<svg width="243" height="242" viewBox="0 0 243 242" fill="none" xmlns="http://www.w3.org/2000/svg">
    <path
        d="M121.049 242C187.895 242 242.084 187.829 242.084 121.007C242.084 54.1838 187.895 0.0133057 121.049 0.0133057C54.2028 0.0133057 0.0133057 54.1838 0.0133057 121.007C0.0133057 187.829 54.2028 242 121.049 242Z"
        fill="#2C2E59" />
    <path
        d="M128.898 220.076C185.987 220.076 232.266 173.813 232.266 116.744C232.266 59.6754 185.987 13.412 128.898 13.412C71.8093 13.412 25.5297 59.6754 25.5297 116.744C25.5297 173.813 71.8093 220.076 128.898 220.076Z"
        fill="#1D91F9" />
    <path
        d="M136.204 186.845C181.038 186.845 217.383 150.513 217.383 105.694C217.383 60.8759 181.038 24.5435 136.204 24.5435C91.3699 24.5435 55.0247 60.8759 55.0247 105.694C55.0247 150.513 91.3699 186.845 136.204 186.845Z"
        fill="#FFC332" />
    <path
        d="M142.478 152.921C172.792 152.921 197.367 128.355 197.367 98.0516C197.367 67.7478 172.792 43.1818 142.478 43.1818C112.163 43.1818 87.5887 67.7478 87.5887 98.0516C87.5887 128.355 112.163 152.921 142.478 152.921Z"
        fill="#E1502D" />
    <path
        d="M150.87 119.174C167.505 119.174 180.99 105.694 180.99 89.065C180.99 72.4361 167.505 58.9558 150.87 58.9558C134.235 58.9558 120.75 72.4361 120.75 89.065C120.75 105.694 134.235 119.174 150.87 119.174Z"
        fill="#B01C21" />
</svg>