<svg width="340" height="338" viewBox="0 0 340 338" fill="none" xmlns="http://www.w3.org/2000/svg">
<path d="M157.589 250.714C145.251 250.714 137.874 242.065 139.146 224.511L140.672 197.164C140.799 194.747 142.707 192.839 145.251 192.839H158.098C160.897 192.839 162.932 195.129 162.677 197.8L160.769 217.897C160.642 225.402 161.914 227.437 165.476 227.437L167.765 226.928C169.673 226.419 170.945 224.766 170.818 222.731L168.91 197.8C168.656 195.129 170.818 192.839 173.489 192.839H185.573C187.99 192.839 190.025 194.747 190.152 197.164L193.078 243.845C193.332 247.534 190.407 250.714 186.718 250.714H174.888C172.344 250.714 170.564 248.17 171.454 245.753L165.476 249.061C164.077 249.951 161.914 250.714 157.589 250.714Z" fill="#593312"/>
<path d="M273.735 281.557C271.197 281.557 269.082 279.3 269.082 276.762L272.184 189.199C272.325 186.66 274.299 184.686 276.837 184.686L288.681 184.545C291.22 184.545 293.335 186.519 293.335 189.058L294.181 228.116C294.322 229.808 296.437 230.231 297.142 228.821L301.936 219.374C302.782 218.105 304.333 217.399 305.884 217.399H318.856C322.664 217.399 324.92 221.63 322.805 224.732L314.767 236.576C313.921 237.986 313.921 239.819 314.767 241.229L336.2 274.365C338.174 277.467 335.918 281.557 332.252 281.557H313.216C311.101 281.557 309.268 280.146 308.704 278.172L300.385 250.395C299.962 249.125 298.411 248.843 297.706 249.831L296.719 250.959C295.027 253.074 294.04 255.753 294.04 258.573L293.899 276.903C293.899 279.441 291.784 281.557 289.245 281.557H273.735Z" fill="#593312"/>
<path d="M205.862 238.445C203.191 238.445 201.156 236.282 201.283 233.611L205.099 184.131C205.226 181.969 206.88 180.188 209.042 179.934L220.49 178.789C223.161 178.534 225.451 180.697 225.451 183.368L229.903 181.078C231.938 180.061 234.1 179.679 237.407 179.679C242.368 179.679 247.074 180.951 250.382 184.64C250.382 184.64 259.667 193.798 259.667 233.611C259.667 236.282 257.505 238.445 254.834 238.445H237.407C234.736 238.445 232.701 236.155 232.828 233.611C232.828 233.611 238.425 194.688 230.539 194.688L226.596 195.452V234.12C226.341 236.537 224.433 238.445 222.016 238.445H205.862Z" fill="#593312"/>
<path d="M74.6626 294.088C67.2045 294.088 67.0583 290.432 67.2045 290.14L70.7142 204.299C70.8604 196.549 73.9314 193.624 77.7335 193.624H128.331C129.501 193.624 130.378 194.502 130.525 195.671L130.671 202.691C130.817 203.861 129.794 204.738 128.477 204.592L98.2066 201.96C95.7205 201.96 93.8195 203.861 93.8195 206.2L93.6732 229.013C93.527 231.792 96.013 233.839 98.6453 233.4L120.288 227.551C121.751 227.112 123.067 228.136 123.067 229.598L123.359 236.764C123.359 237.934 122.628 238.811 121.604 238.957L97.3291 242.613C95.1356 242.906 93.527 244.807 93.3808 247.146L95.5743 285.753C95.8668 290.286 92.2109 294.088 87.6776 294.088H74.6626Z" fill="#593312"/>
<path d="M74.7769 101.832C72.6007 101.832 70.8429 99.9908 70.9266 97.7309L75.1117 51.4437C75.1955 50.2718 74.191 49.3511 73.0192 49.4348L63.9794 50.2718C62.8912 50.3555 61.8868 49.5185 61.8868 48.3467V45.8356C61.8868 44.8312 62.7238 43.9105 63.812 43.9105H101.227C102.231 43.9105 103.152 44.8312 103.152 45.8356V48.3467C103.152 49.5185 102.148 50.4392 100.976 50.2718L91.4336 49.4348C90.2618 49.2674 89.2574 50.2718 89.3411 51.4437L93.5262 97.7309C93.6099 99.9908 91.8522 101.832 89.6759 101.832H74.7769Z" fill="#593312"/>
<path d="M103.412 111.85C101.654 111.85 100.231 110.343 100.315 108.585L102.909 57.2761C103.077 55.6857 104.416 54.3465 106.006 54.3465L111.363 54.2628C113.121 54.2628 114.544 55.6857 114.544 57.4435V75.6068L118.143 73.8491C119.148 73.3469 120.654 73.2632 122.412 73.2632C135.47 73.2632 136.892 99.4619 136.976 108.669C137.06 110.427 135.637 111.85 133.879 111.85H124.17C122.496 111.85 121.156 110.511 121.073 108.837L120.068 83.8096C120.068 81.0475 119.482 79.0386 116.971 79.0386C115.716 79.3734 114.879 80.7127 114.879 82.2193L114.544 108.753C114.544 110.511 113.121 111.85 111.447 111.85H103.412Z" fill="#593312"/>
<path d="M159.91 107.462C146.769 107.462 141.83 102.942 142.165 89.8848C142.416 77.1621 148.359 68.2897 159.91 68.2897C170.038 68.2897 173.135 76.4088 174.056 82.1842C174.558 85.0301 172.298 87.7086 169.368 87.7086H155.809C155.809 88.4619 155.725 89.2989 155.725 90.0522C155.725 98.0039 156.981 101.268 159.575 101.268C161.333 101.268 162.421 99.7617 162.923 96.1625C163.174 94.4047 165.267 93.6514 166.523 94.9069L171.042 99.4269C172.716 101.101 172.382 104.03 170.289 105.202C167.611 106.793 164.179 107.462 159.91 107.462ZM162.84 82.4353C162.337 77.6643 161.333 74.1488 159.575 74.1488C157.65 74.1488 156.646 77.748 156.143 82.4353H162.84Z" fill="#593312"/>
<path d="M37.9351 184.65C14.923 184.65 1.39467 176.561 1.39467 143.507C1.39467 112.824 14.7835 87.8593 37.9351 87.8593C53.695 87.8593 64.7129 99.8535 70.0127 117.566C71.2679 121.75 68.1996 125.934 63.8761 125.934H54.5318C51.1846 125.934 48.5347 123.423 48.1163 120.216C46.3032 106.548 42.8165 97.2036 37.9351 97.2036C29.7066 97.2036 25.3831 118.124 25.3831 143.507C25.3831 156.338 29.9855 157.314 37.9351 157.314C45.1874 157.314 49.3715 153.688 49.3715 143.507C49.3715 142.809 49.3715 141.973 49.3715 141.275C49.3715 137.649 52.3003 134.72 55.9264 134.72H67.0838C70.5705 134.72 73.4993 137.51 73.6388 141.136C73.6388 141.833 73.6388 142.67 73.6388 143.507C73.6388 174.608 62.063 184.65 37.9351 184.65Z" fill="#593312"/>
<path d="M280.552 175.541C277.687 175.541 275.32 173.174 275.196 170.309V167.569C272.456 172.178 266.601 175.416 262.616 175.416C249.164 175.416 239.947 168.067 243.559 154.366C247.171 140.665 252.029 137.178 262.865 137.178C264.359 137.178 266.601 137.302 268.096 137.551L274.822 138.548L274.698 132.943C274.698 128.957 270.961 127.462 266.352 127.462C263.612 127.462 260.125 130.576 257.135 132.818C254.644 134.686 251.032 133.316 250.783 130.452L250.409 125.345C250.16 123.476 251.281 121.733 253.15 120.985C257.135 119.242 262.865 117.872 270.712 117.872C286.157 117.872 293.879 125.345 294.626 140.291L296.246 169.936C296.495 172.925 294.128 175.416 291.014 175.416L280.552 175.541ZM267.722 153.619C270.338 153.619 272.58 153.37 275.071 152.747L274.947 146.768L268.47 146.644C264.235 146.644 262.865 147.516 262.865 149.633C262.74 152 264.11 153.619 267.722 153.619Z" fill="#593312"/>
<path d="M201.968 168.27C189.886 168.27 182.662 159.8 183.908 142.612L185.402 115.832C185.527 113.466 187.395 111.597 189.886 111.597H202.466C205.207 111.597 207.199 113.839 206.95 116.455L205.082 136.135C204.958 143.484 206.203 145.476 209.691 145.476L211.933 144.978C213.801 144.48 215.046 142.861 214.922 140.868L213.054 116.455C212.804 113.839 214.922 111.597 217.538 111.597H229.37C231.737 111.597 233.73 113.466 233.854 115.832L236.719 161.544C236.968 165.156 234.103 168.27 230.491 168.27H218.908C216.417 168.27 214.673 165.779 215.545 163.412L209.691 166.651C208.32 167.523 206.203 168.27 201.968 168.27Z" fill="#593312"/>
<path d="M322.214 202.105C311.898 202.105 304.057 193.715 304.608 184.086L309.009 112.008C309.147 109.532 311.623 107.607 314.786 107.607L325.653 107.469C328.679 107.469 331.293 109.395 331.43 112.008L336.52 195.09C336.657 198.942 333.631 202.105 329.78 202.105H322.214Z" fill="#593312"/>
<path d="M117.516 183.253C114.651 183.253 112.284 180.886 112.16 178.022V175.281C109.419 179.89 103.565 183.128 99.5796 183.128C86.1276 183.128 76.9105 175.78 80.5226 162.079C84.1347 148.378 88.9924 144.89 99.8287 144.89C101.323 144.89 103.565 145.015 105.06 145.264L111.786 146.26L111.661 140.655C111.661 136.669 107.925 135.175 103.316 135.175C100.576 135.175 97.0885 138.289 94.0991 140.531C91.608 142.399 87.9959 141.029 87.7468 138.164L87.3732 133.057C87.124 131.189 88.245 129.445 90.1134 128.698C94.0991 126.954 99.8287 125.584 107.676 125.584C123.121 125.584 130.843 133.057 131.59 148.004L133.21 177.648C133.459 180.637 131.092 183.128 127.978 183.128L117.516 183.253ZM104.686 161.331C107.302 161.331 109.544 161.082 112.035 160.459L111.911 154.481L105.434 154.356C101.199 154.356 99.8287 155.228 99.8287 157.346C99.7041 159.712 101.074 161.331 104.686 161.331ZM159.833 183.627C151.986 183.627 145.758 182.007 141.524 180.264C138.908 179.143 137.538 176.153 138.41 173.538L141.15 165.815C142.022 163.2 144.762 161.705 147.378 162.328C150.99 163.075 155.723 163.822 159.086 163.822C163.445 163.822 164.94 163.2 164.94 162.079C164.94 160.709 162.947 160.086 155.349 159.089C145.011 157.595 139.282 153.858 139.655 142.897C140.029 130.442 148.872 125.086 159.584 125.086C166.31 125.086 170.794 126.207 175.154 128.075C177.146 128.822 178.018 131.064 177.271 132.933L175.527 137.292C174.78 139.036 172.912 140.032 171.043 139.534C167.556 138.662 163.819 138.164 159.709 138.164C156.346 138.164 155.349 138.787 155.349 139.659C155.349 140.655 156.844 141.278 165.065 142.523C175.652 144.018 182.129 151.367 182.502 163.324C183.001 176.901 175.901 183.627 159.833 183.627Z" fill="#593312"/>
<path d="M246.009 99.7467C243.34 93.0322 236.787 88.3671 229.372 88.3671H217.534C214.945 88.3671 212.383 88.9334 210.01 90.0121C207.637 88.9334 205.075 88.3671 202.46 88.3671H200.437C200.356 87.9087 200.302 87.4503 200.248 86.9919C198.711 72.3764 209.336 59.217 223.951 57.653C224.895 57.5452 225.866 57.4912 226.81 57.4912C240.454 57.4912 251.861 67.7382 253.29 81.356C253.91 87.2346 252.562 93.194 249.434 98.2097C248.895 98.3984 248.382 98.5872 247.87 98.8029C247.223 99.0726 246.603 99.3692 246.009 99.7197V99.7467Z" fill="#9C470F"/>
<path d="M256.553 96.0524C258.468 91.2525 259.223 85.9942 258.657 80.7898C256.931 64.4485 243.232 52.0981 226.81 52.0981C225.677 52.0981 224.518 52.152 223.385 52.2868C205.804 54.1475 193.022 69.9765 194.882 87.5582C194.882 87.8279 194.936 88.0975 194.99 88.3402H189.867C187.871 88.3402 185.93 88.6908 184.015 89.338C183.907 89.0953 183.772 88.8256 183.665 88.5829C186.874 84.5111 188.195 79.3606 187.305 74.3989C186.361 68.4394 184.123 63.1541 180.779 58.9744C189.193 49.5903 200.626 43.7387 213.192 42.3904C214.999 42.2016 216.806 42.0938 218.612 42.0938C244.634 42.0938 266.315 61.644 269.066 87.5312C269.308 89.8233 269.389 92.1694 269.308 94.5963C264.751 94.6772 260.463 95.1626 256.499 96.0255L256.553 96.0524Z" fill="#9C470F"/>
<path d="M288.885 98.2635C284.733 96.3489 279.987 95.1894 274.755 94.7849C274.863 92.1422 274.755 89.5266 274.486 87.0187C271.439 58.354 247.439 36.7544 218.666 36.7544C216.671 36.7544 214.675 36.8622 212.68 37.078C198.873 38.5341 186.334 44.925 177.031 55.172C172.339 51.289 166.46 49.2396 159.881 49.2396C158.398 49.2396 156.915 49.3474 155.485 49.5362C168.051 35.46 185.498 26.4264 204.428 24.431C207.125 24.1343 209.875 23.9995 212.599 23.9995C251.726 23.9995 284.355 53.3923 288.508 92.358C288.724 94.2995 288.832 96.268 288.885 98.2905V98.2635Z" fill="#9C470F"/>
<path d="M295.385 102.228C295.034 101.958 294.683 101.688 294.306 101.419C294.36 98.1288 294.198 94.8929 293.874 91.7649C289.452 50.0487 254.504 18.5795 212.599 18.5795C209.714 18.5795 206.775 18.7413 203.862 19.038C180.914 21.4649 160.016 33.5456 146.425 52.179C142.731 53.9318 139.576 56.3587 136.96 59.4598C134.317 57.2216 131.324 55.6846 128.034 54.8756V51.8554C128.034 51.5588 128.034 51.2891 127.98 50.9925C144.484 29.7434 168.267 16.5032 195.018 13.6717C198.496 13.2942 202.002 13.1055 205.48 13.1055C250.352 13.1055 290.126 44.5477 300.643 88.0706C297.569 91.1447 295.789 95.1356 295.546 99.4502L295.385 102.228Z" fill="#9C470F"/>
<path d="M305.334 84.6189C293.469 39.8286 252.077 7.68527 205.48 7.68527C201.812 7.68527 198.118 7.87403 194.451 8.27852C167.566 11.1369 143.539 23.9457 126.281 44.4937C124.258 40.3409 120.564 37.1859 115.98 35.8646C115.845 35.4062 115.683 34.9747 115.521 34.5163C134.209 15.4784 159.017 3.47859 185.552 0.647175C189.624 0.215721 193.776 0 197.848 0C249.245 0 294.332 34.1118 308.462 83.2976C307.357 83.6481 306.332 84.0795 305.334 84.5919V84.6189Z" fill="#9C470F"/>
</svg>
