<svg width="1140" height="933" viewBox="0 0 1140 933" fill="none" xmlns="http://www.w3.org/2000/svg">
<path d="M452.975 157.68C461.214 155.757 469.563 154.014 478.056 152.49C486.55 150.929 494.753 149.949 502.666 149.513C510.579 149.078 518.02 149.368 525.062 150.385C532.067 151.401 538.274 153.542 543.683 156.737C548.329 159.568 551.487 162.798 553.229 166.464C554.971 170.131 555.77 173.724 555.625 177.281C555.48 180.802 554.681 184.142 553.229 187.227C551.741 190.312 549.999 192.672 548.002 194.269C546.006 195.866 544.046 196.519 542.122 196.192C540.198 195.866 538.783 194.087 537.875 190.893C535.806 183.96 531.414 178.406 524.663 174.305C517.911 170.203 508.873 168.533 497.548 169.296C500.779 170.82 502.957 173.107 504.118 176.047C505.28 179.024 505.715 182.472 505.461 186.465C505.207 190.457 504.445 194.849 503.138 199.677C501.868 204.505 500.307 209.659 498.492 215.104C496.677 220.585 494.862 226.247 493.011 232.164C491.16 238.08 489.49 243.997 488.075 249.913C487.421 252.744 486.804 255.975 486.151 259.568C485.497 263.162 484.953 266.901 484.517 270.748C484.082 274.596 483.755 278.371 483.537 282.037C483.32 285.703 483.392 289.079 483.646 292.164C484.154 297.427 483.646 302.001 482.013 305.848C480.416 309.696 477.149 311.91 472.285 312.418C470.216 312.672 467.929 312.345 465.425 311.438C462.92 310.531 460.416 308.933 457.911 306.61C455.406 304.287 453.083 301.093 450.978 296.955C448.873 292.854 447.167 287.663 445.969 281.42C444.735 275.176 444.154 267.735 444.227 259.024C444.299 250.349 445.207 240.222 447.022 228.643C448.691 217.826 450.434 208.824 452.249 201.528C454.063 194.269 455.987 188.243 458.02 183.488C451.958 186.828 445.86 190.203 439.69 193.615C433.519 197.027 427.239 199.858 420.887 202.109C414.535 204.359 408.038 205.739 401.395 206.247C394.753 206.755 388.001 205.739 381.032 203.162C375.116 200.984 370.651 197.898 367.638 193.906C364.626 189.913 362.702 185.666 361.867 181.165C361.032 176.664 361.105 172.2 362.048 167.771C362.992 163.343 364.48 159.604 366.477 156.591C368.473 153.579 370.796 151.473 373.41 150.312C376.059 149.15 378.6 149.622 381.032 151.655C384.771 154.74 388.473 157.245 392.212 159.169C395.951 161.092 400.415 162.363 405.606 162.944C410.796 163.524 417.185 163.379 424.699 162.544C432.212 161.709 441.65 160.076 452.975 157.608V157.68Z" fill="white" stroke="white" stroke-width="48.8571" stroke-linecap="round" stroke-linejoin="round"/>
<path d="M520.852 220.401C520.199 208.06 520.38 197.897 521.324 189.911C522.304 181.926 524.119 175.573 526.805 170.818C529.491 166.063 533.194 162.76 537.912 160.873C542.595 159.022 548.366 158.078 555.19 158.078C562.921 158.078 568.366 159.675 571.597 162.905C574.827 166.136 576.533 170.383 576.715 175.646C576.896 180.909 575.952 186.862 573.811 193.505C571.706 200.147 569.201 206.79 566.37 213.468C568.947 210.891 571.742 208.713 574.755 206.898C577.767 205.084 581.034 203.886 584.482 203.232C588.983 202.47 593.121 202.543 596.933 203.414C600.708 204.321 603.938 205.918 606.588 208.241C609.238 210.565 611.234 213.468 612.577 217.026C613.92 220.583 614.464 224.648 614.21 229.294C613.956 232.634 614.319 235.174 615.263 236.917C616.243 238.659 617.477 239.53 619.038 239.53C620.599 239.53 622.232 238.586 623.974 236.735C625.717 234.884 627.278 231.944 628.693 227.951C630.218 233.868 630.835 239.821 630.508 245.81C630.181 251.799 628.875 257.207 626.552 261.999C624.229 266.79 620.925 270.746 616.606 273.759C612.287 276.772 606.987 278.296 600.708 278.296C594.428 278.296 589.383 277.498 585.644 275.901C581.905 274.304 579.074 272.198 577.15 269.621C575.226 267.044 573.992 264.176 573.484 261.019C572.976 257.861 572.903 254.666 573.303 251.472C573.557 248.786 573.23 246.717 572.323 245.302C571.415 243.886 570.399 243.233 569.237 243.378C568.076 243.523 566.987 244.358 565.971 245.991C564.954 247.588 564.41 250.057 564.41 253.432C564.41 253.686 564.41 253.977 564.519 254.303C564.591 254.63 564.627 254.92 564.627 255.175C564.882 258.514 565.027 261.599 565.099 264.431C565.172 267.262 564.918 269.694 564.337 271.763C563.756 273.832 562.74 275.429 561.252 276.59C559.764 277.752 557.622 278.333 554.791 278.333C550.943 278.333 547.096 277.679 543.321 276.409C539.509 275.138 536.097 272.452 533.012 268.387C529.927 264.322 527.277 258.514 525.099 250.928C522.921 243.341 521.506 233.178 520.852 220.438V220.401Z" fill="white" stroke="white" stroke-width="48.8571" stroke-linecap="round" stroke-linejoin="round"/>
<path d="M693.738 214.595C695.553 217.281 696.316 220.366 696.062 223.851C695.807 227.335 694.682 230.566 692.686 233.578C690.69 236.591 687.895 239.096 684.301 241.092C680.708 243.088 676.388 243.96 671.379 243.705C673.194 245.121 675.698 245.811 678.893 245.811C684.047 245.811 688.911 244.25 693.557 241.092C698.203 237.934 701.47 233.542 703.394 227.88C705.063 233.143 705.499 239.313 704.737 246.391C703.575 256.555 699.51 264.395 692.468 269.912C685.463 275.43 676.679 278.225 666.152 278.225C655.626 278.225 646.842 275.466 639.8 269.912C632.794 264.395 628.693 256.519 627.531 246.391C626.769 239.822 627.096 233.869 628.511 228.533C629.927 223.197 632.286 218.624 635.662 214.849C639.001 211.074 643.248 208.097 648.403 205.956C653.557 203.85 659.473 202.761 666.152 202.761C672.468 202.761 677.985 203.742 682.74 205.665C687.495 207.589 691.161 210.566 693.738 214.522V214.595ZM680.236 230.42C680.345 229.404 680.127 228.533 679.546 227.807C678.965 227.117 678.203 226.573 677.223 226.282C676.243 225.956 675.263 225.883 674.247 226.101C673.23 226.282 672.25 226.791 671.343 227.553C670.326 228.206 669.528 229.15 669.02 230.457C668.512 231.727 668.112 233.143 667.858 234.704C670.798 235.357 673.557 235.393 676.061 234.812C678.566 234.232 679.945 232.78 680.199 230.457L680.236 230.42Z" fill="white" stroke="white" stroke-width="48.8571" stroke-linecap="round" stroke-linejoin="round"/>
<path d="M312.213 421.721C312.462 421.905 312.712 422.087 312.963 422.266C312.679 422.718 312.403 423.172 312.134 423.627C312.094 423.695 312.055 423.763 312.016 423.83C310.499 426.457 308.188 429.156 304.573 431.81L304.493 431.869C300.398 434.899 295.812 437.339 290.633 439.199C285.669 440.982 280.343 442.069 274.51 442.403C269.358 442.698 265.105 442.068 261.456 440.839C258.201 439.743 255.255 437.984 252.426 435.247L252.361 435.185C250.882 433.763 249.022 431.171 247.642 426.057C244.861 415.672 244.618 407.841 245.644 402.01C246.985 394.387 249.287 388.678 252.093 384.327C255.222 379.475 258.983 375.639 263.457 372.599L248.582 350.711L263.457 372.599C268.895 368.903 274.074 366.468 279.044 364.998C284.299 363.469 288.824 363.003 292.779 363.256C294.707 363.378 296.065 363.647 296.998 363.92C296.821 364.951 296.454 366.442 295.735 368.448C295.655 368.633 295.576 368.818 295.5 369.005C291.393 379.003 290.912 390.23 295.448 400.991C295.477 401.059 295.506 401.126 295.535 401.193C299.272 409.858 305.267 416.631 312.213 421.721ZM297.145 362.449C297.145 362.444 297.144 362.441 297.144 362.441C297.144 362.441 297.145 362.444 297.145 362.449ZM394.993 425.019C402.061 421.286 408.518 416.499 414.387 410.821L395.987 391.8L414.387 410.821C423.536 401.971 429.708 391.153 432.927 379.024L407.348 372.235L432.927 379.024C436.049 367.261 436.278 355.235 434.048 343.358L434.027 343.249C431.682 331.044 426.698 319.612 419.547 309.032C411.919 297.744 401.908 288.392 390.135 280.727L390.073 280.688C377.724 272.697 363.467 267.128 347.787 263.537C347.785 263.537 347.784 263.536 347.782 263.536C347.778 263.535 347.775 263.535 347.772 263.534C331.068 259.702 312.764 259.051 293.312 260.919C273.615 262.81 255.313 267.206 238.741 274.601C222.873 281.682 208.758 290.762 196.72 302.113C184.877 313.246 175.33 326.023 168.178 340.327C161.231 354.221 156.592 368.75 154.317 383.87C152.055 398.908 152.16 413.973 154.477 429.006C156.809 444.147 161.359 458.597 168.102 472.303C168.145 472.389 168.188 472.476 168.231 472.562C177.774 491.435 190.031 507.435 205.246 519.984L205.282 520.014C219.522 531.716 235.037 540.608 251.742 546.267C267.918 551.746 284.504 554.403 301.377 554.049C317.581 553.744 333.04 551.098 347.452 545.769C361.912 540.422 374.724 532.589 385.421 522.042C396.937 510.687 404.48 496.749 407.11 480.736L407.112 480.728C408.635 471.436 408.735 461.89 406.735 452.496C406.726 452.454 406.717 452.413 406.708 452.371C404.961 444.356 402.143 436.663 397.928 429.54L397.879 429.456C396.974 427.94 396.012 426.459 394.993 425.019Z" fill="white" stroke="white" stroke-width="52.9286" stroke-linecap="round" stroke-linejoin="round"/>
<path d="M472.916 406.436C470.662 405.158 468.586 403.544 466.769 401.627C466.548 402.145 466.357 402.696 466.198 403.28C465.758 404.892 465.552 406.76 465.585 408.884C465.589 409.138 465.596 409.397 465.607 409.658C465.607 410.425 465.639 411.155 465.702 411.846C465.991 414.983 466.934 417.345 468.51 418.951M472.916 406.436L470.83 408L472.916 406.436ZM472.916 406.436C473.609 406.829 474.319 407.19 475.044 407.519C476.249 408.065 477.495 408.521 478.77 408.881M472.916 406.436L474.971 404.895L472.916 406.436ZM478.77 408.881L478.517 409.129L478.239 409.403L478.517 409.129L478.77 408.881ZM478.77 408.881C479.026 408.954 479.284 409.022 479.542 409.087C479.966 409.193 480.393 409.289 480.822 409.374L481.007 409.516L481.193 409.658L484.366 412.088C484.17 414.024 483.725 415.662 483.019 416.994C482.047 417.11 481.09 417.279 480.152 417.498M480.152 417.498L475.166 412.418M480.152 417.498L475.166 412.418M480.152 417.498C478.375 417.913 476.665 418.507 475.044 419.261C473.86 419.812 472.722 420.447 471.64 421.161C470.531 420.68 469.488 419.947 468.51 418.951M480.152 417.498L480.575 417.929M480.152 417.498L480.575 417.929M475.166 412.418L475.044 412.538L475.166 412.418ZM468.51 418.951L468.839 418.628L468.51 418.951ZM480.575 417.929L481.578 418.951L480.575 417.929ZM581.597 380.176C578.28 377.688 574.518 376.073 570.621 375.34C569.592 371.293 568.092 367.328 565.996 363.545C556.6 346.592 539.369 340.935 525.041 339.605C524.998 339.601 524.954 339.597 524.911 339.593C512.345 338.489 499.641 340.188 488.053 346.219C487.132 346.699 486.226 347.198 485.336 347.717C480.944 345.202 476.321 343.359 471.676 342.018C465.167 340.139 458.444 339.455 451.85 339.455C443.227 339.455 434.979 341.283 427.209 344.326L436.859 368.969L427.209 344.326C418.245 347.837 410.496 353.204 403.819 359.721C396.673 366.696 391.105 375.014 386.736 383.942L386.712 383.992C381.729 394.229 378.976 405.398 377.79 417.029C377.785 417.083 377.779 417.137 377.774 417.192C376.789 427.492 377.411 437.72 380.111 447.62L380.121 447.657C382.73 457.169 387.048 466.038 393.167 473.804L393.244 473.901C399.461 481.717 407.166 487.961 416.094 492.511C425.294 497.201 435.234 499.662 445.554 500.216C454.487 500.777 463.481 499.62 472.15 496.219C476.906 494.353 481.496 492.013 485.802 489.116C489.91 491.792 494.297 493.964 498.854 495.712C507.476 499.018 516.595 500.225 525.534 500.225C538.945 500.225 552.143 496.932 563.604 488.889L563.664 488.847C573.558 481.863 581.244 472.729 586.51 461.796C591.55 451.333 594.153 440.085 594.79 428.458L594.796 428.347C595.319 418.018 594.404 407.725 592.039 397.565C591.036 390.833 587.451 384.568 581.742 380.285L581.597 380.176ZM481.295 409.528L481.182 409.443C481.385 409.48 481.589 409.516 481.794 409.548C482.047 409.589 482.3 409.625 482.554 409.658C483.192 409.741 483.835 409.801 484.481 409.838C484.477 410.539 484.446 411.21 484.389 411.848L481.469 409.658L481.295 409.528ZM480.197 400.975L475.044 404.84L480.197 400.975Z" fill="white" stroke="white" stroke-width="52.9286" stroke-linecap="round" stroke-linejoin="round"/>
<mask id="path-6-outside-1_171_376" maskUnits="userSpaceOnUse" x="507.908" y="305.878" width="209" height="224" fill="black">
<rect fill="white" x="507.908" y="305.878" width="209" height="224"/>
<path d="M592.322 407.445C592.685 408.933 595.371 409.514 600.38 409.26C605.389 408.969 611.669 408.388 619.255 407.445C622.957 407.082 627.168 406.973 631.887 407.154C636.605 407.336 641.143 408.134 645.462 409.514C649.818 410.893 653.593 413.071 656.823 416.011C660.054 418.987 662.123 422.944 663.066 427.953C663.974 432.962 663.683 438.262 662.086 443.888C660.526 449.514 657.658 454.741 653.484 459.568C649.31 464.396 643.829 468.389 636.968 471.619C630.144 474.85 621.905 476.556 612.286 476.737C601.941 476.919 593.52 475.612 587.059 472.853C580.598 470.095 575.552 466.574 571.959 462.327C568.365 458.08 566.042 453.507 565.026 448.606C564.01 443.706 563.973 439.242 564.881 435.14C565.788 429.949 567.095 427.154 568.765 426.683C570.434 426.211 573.12 426.719 576.823 428.207C579.581 429.332 582.776 430.349 586.405 431.256C589.999 432.163 594.935 432.635 601.251 432.635C604.409 432.635 607.567 432.526 610.834 432.345C614.064 432.163 617.077 431.764 619.836 431.111C622.594 430.457 625.063 429.623 627.168 428.606C629.273 427.59 630.725 426.247 631.451 424.577C632.359 422.545 630.798 421.71 626.732 422.073C622.667 422.436 616.024 423.452 606.769 425.122C599.908 426.428 593.629 426.646 587.894 425.811C582.159 424.977 577.258 423.416 573.193 421.093C569.128 418.77 565.97 415.684 563.756 411.8C561.541 407.917 560.598 403.561 560.997 398.769C561.36 393.034 562.848 387.735 565.425 382.835C568.002 377.935 571.487 373.688 575.807 370.094C580.162 366.501 585.244 363.706 591.052 361.782C596.859 359.858 603.102 358.878 609.781 358.878C623.103 358.878 633.847 362.036 642.086 368.316C650.326 374.595 655.444 383.016 657.477 393.543C658.384 399.459 657.84 403.234 655.807 404.904C653.774 406.574 651.27 406.465 648.33 404.613C645.172 402.944 640.707 401.782 634.863 401.129C629.055 400.475 622.994 400.33 616.714 400.693C614.137 400.875 611.342 401.129 608.402 401.383C605.462 401.673 602.703 402.073 600.235 402.617C597.73 403.162 595.698 403.815 594.137 404.577C592.576 405.303 591.959 406.247 592.322 407.336V407.445Z"/>
</mask>
<path d="M592.322 407.445C592.685 408.933 595.371 409.514 600.38 409.26C605.389 408.969 611.669 408.388 619.255 407.445C622.957 407.082 627.168 406.973 631.887 407.154C636.605 407.336 641.143 408.134 645.462 409.514C649.818 410.893 653.593 413.071 656.823 416.011C660.054 418.987 662.123 422.944 663.066 427.953C663.974 432.962 663.683 438.262 662.086 443.888C660.526 449.514 657.658 454.741 653.484 459.568C649.31 464.396 643.829 468.389 636.968 471.619C630.144 474.85 621.905 476.556 612.286 476.737C601.941 476.919 593.52 475.612 587.059 472.853C580.598 470.095 575.552 466.574 571.959 462.327C568.365 458.08 566.042 453.507 565.026 448.606C564.01 443.706 563.973 439.242 564.881 435.14C565.788 429.949 567.095 427.154 568.765 426.683C570.434 426.211 573.12 426.719 576.823 428.207C579.581 429.332 582.776 430.349 586.405 431.256C589.999 432.163 594.935 432.635 601.251 432.635C604.409 432.635 607.567 432.526 610.834 432.345C614.064 432.163 617.077 431.764 619.836 431.111C622.594 430.457 625.063 429.623 627.168 428.606C629.273 427.59 630.725 426.247 631.451 424.577C632.359 422.545 630.798 421.71 626.732 422.073C622.667 422.436 616.024 423.452 606.769 425.122C599.908 426.428 593.629 426.646 587.894 425.811C582.159 424.977 577.258 423.416 573.193 421.093C569.128 418.77 565.97 415.684 563.756 411.8C561.541 407.917 560.598 403.561 560.997 398.769C561.36 393.034 562.848 387.735 565.425 382.835C568.002 377.935 571.487 373.688 575.807 370.094C580.162 366.501 585.244 363.706 591.052 361.782C596.859 359.858 603.102 358.878 609.781 358.878C623.103 358.878 633.847 362.036 642.086 368.316C650.326 374.595 655.444 383.016 657.477 393.543C658.384 399.459 657.84 403.234 655.807 404.904C653.774 406.574 651.27 406.465 648.33 404.613C645.172 402.944 640.707 401.782 634.863 401.129C629.055 400.475 622.994 400.33 616.714 400.693C614.137 400.875 611.342 401.129 608.402 401.383C605.462 401.673 602.703 402.073 600.235 402.617C597.73 403.162 595.698 403.815 594.137 404.577C592.576 405.303 591.959 406.247 592.322 407.336V407.445Z" fill="white"/>
<path d="M592.322 407.445H539.393C539.393 411.67 539.9 415.881 540.901 419.986L592.322 407.445ZM600.38 409.26L603.061 462.12C603.189 462.114 603.316 462.107 603.443 462.099L600.38 409.26ZM619.255 407.445L614.091 354.769C613.633 354.813 613.177 354.864 612.721 354.921L619.255 407.445ZM645.462 409.514L629.361 459.934C629.402 459.947 629.443 459.96 629.483 459.973L645.462 409.514ZM656.823 416.011L692.687 377.085C692.608 377.012 692.528 376.939 692.449 376.867L656.823 416.011ZM663.066 427.953L715.147 418.518C715.125 418.396 715.103 418.275 715.08 418.153L663.066 427.953ZM662.086 443.888L611.17 429.434C611.141 429.535 611.112 429.637 611.084 429.739L662.086 443.888ZM636.968 471.619L614.419 423.734C614.387 423.75 614.354 423.765 614.321 423.78L636.968 471.619ZM612.286 476.737L613.214 529.658C613.238 529.657 613.261 529.657 613.284 529.656L612.286 476.737ZM564.881 435.14L616.56 446.573C616.73 445.804 616.883 445.031 617.019 444.255L564.881 435.14ZM576.823 428.207L596.813 379.199C596.73 379.165 596.646 379.131 596.563 379.097L576.823 428.207ZM586.405 431.256L599.364 379.938C599.324 379.928 599.283 379.918 599.243 379.908L586.405 431.256ZM610.834 432.345L613.77 485.192C613.781 485.191 613.792 485.191 613.803 485.19L610.834 432.345ZM631.451 424.577L583.12 403.001C583.05 403.158 582.98 403.315 582.912 403.473L631.451 424.577ZM606.769 425.122L597.372 373.034C597.203 373.064 597.034 373.096 596.865 373.128L606.769 425.122ZM560.997 398.769L613.743 403.165C613.772 402.814 613.798 402.464 613.82 402.113L560.997 398.769ZM575.807 370.094L542.124 329.267C542.068 329.313 542.012 329.359 541.956 329.405L575.807 370.094ZM657.477 393.543L709.793 385.519C709.69 384.846 709.574 384.175 709.445 383.507L657.477 393.543ZM648.33 404.613L676.531 359.824C675.402 359.113 674.248 358.446 673.069 357.823L648.33 404.613ZM634.863 401.129L628.946 453.726C628.958 453.727 628.97 453.728 628.982 453.73L634.863 401.129ZM616.714 400.693L613.66 347.853C613.438 347.866 613.217 347.88 612.996 347.895L616.714 400.693ZM608.402 401.383L603.845 348.651C603.63 348.669 603.415 348.689 603.2 348.711L608.402 401.383ZM600.235 402.617L611.479 454.338C611.531 454.326 611.584 454.315 611.636 454.303L600.235 402.617ZM594.137 404.577L616.459 452.569C616.762 452.428 617.063 452.284 617.364 452.137L594.137 404.577ZM592.322 407.336H645.251C645.251 401.647 644.333 395.995 642.534 390.598L592.322 407.336ZM540.901 419.986C548.831 452.498 578.429 459.626 583.09 460.665C591.498 462.54 599.123 462.32 603.061 462.12L597.699 356.399C597.699 356.399 597.731 356.397 597.793 356.395C597.854 356.393 597.951 356.391 598.082 356.39C598.332 356.387 598.771 356.388 599.366 356.414C600.352 356.457 602.821 356.608 606.128 357.346C609.047 357.997 615.634 359.745 622.839 364.655C630.915 370.16 640.119 380.042 643.743 394.903L540.901 419.986ZM603.443 462.099C609.884 461.726 617.356 461.017 625.789 459.968L612.721 354.921C605.982 355.759 600.894 356.212 597.317 356.42L603.443 462.099ZM624.419 460.121C625.33 460.031 627.097 459.938 629.852 460.044L633.921 354.265C627.239 354.008 620.585 354.132 614.091 354.769L624.419 460.121ZM629.852 460.044C629.879 460.045 629.835 460.044 629.733 460.027C629.631 460.009 629.503 459.979 629.361 459.934L661.563 359.093C652.61 356.234 643.336 354.627 633.921 354.265L629.852 460.044ZM629.483 459.973C626.694 459.089 623.733 457.462 621.198 455.155L692.449 376.867C683.452 368.679 672.941 362.696 661.441 359.055L629.483 459.973ZM620.959 454.937C618.009 452.218 615.629 449.055 613.898 445.743C612.208 442.511 611.417 439.682 611.053 437.753L715.08 418.153C712.377 403.808 705.586 388.969 692.687 377.085L620.959 454.937ZM610.986 437.388C610.314 433.679 610.785 430.788 611.17 429.434L713.003 458.341C716.582 445.735 717.634 432.245 715.147 418.518L610.986 437.388ZM611.084 429.739C611.418 428.535 611.873 427.46 612.361 426.57C612.842 425.693 613.265 425.16 613.447 424.95L693.521 494.187C702.337 483.991 709.244 471.895 713.089 458.037L611.084 429.739ZM613.447 424.95C614.16 424.125 614.761 423.636 615.044 423.43C615.304 423.24 615.167 423.382 614.419 423.734L659.517 519.504C671.788 513.726 683.661 505.591 693.521 494.187L613.447 424.95ZM614.321 423.78C615.873 423.046 615.411 423.74 611.287 423.818L613.284 529.656C628.398 529.371 644.416 526.653 659.615 519.458L614.321 423.78ZM611.357 423.817C608.596 423.865 606.975 423.694 606.285 423.588C605.581 423.479 606.265 423.503 607.842 424.176L566.275 521.531C581.996 528.243 598.564 529.915 613.214 529.658L611.357 423.817ZM607.842 424.176C607.048 423.837 609.436 424.678 612.364 428.138L531.554 496.516C541.669 508.469 554.148 516.353 566.275 521.531L607.842 424.176ZM612.364 428.138C613.745 429.771 615.86 433.075 616.852 437.857L513.2 459.355C516.225 473.938 522.986 486.39 531.554 496.516L612.364 428.138ZM616.852 437.857C617.099 439.05 617.518 442.241 616.56 446.573L513.202 423.707C510.429 436.242 510.92 448.363 513.2 459.355L616.852 437.857ZM617.019 444.255C617.017 444.264 616.994 444.397 616.941 444.638C616.889 444.876 616.797 445.27 616.652 445.795C616.396 446.718 615.794 448.72 614.598 451.312C613.483 453.73 611.138 458.235 606.782 463.036C602.261 468.019 594.543 474.399 583.159 477.616L554.37 375.749C530.486 382.499 520.913 401.688 518.475 406.971C515.05 414.396 513.53 421.524 512.743 426.025L617.019 444.255ZM583.159 477.616C572.852 480.529 564.741 479.198 562.193 478.716C558.993 478.11 557.113 477.329 557.083 477.317L596.563 379.097C592.83 377.597 587.756 375.817 581.87 374.704C576.636 373.713 566.347 372.364 554.37 375.749L583.159 477.616ZM556.833 477.215C562.416 479.493 568.088 481.234 573.568 482.604L599.243 379.908C597.464 379.463 596.746 379.171 596.813 379.199L556.833 477.215ZM573.446 482.574C583.115 485.015 592.989 485.564 601.251 485.564V379.707C599.355 379.707 598.229 379.634 597.739 379.588C597.512 379.566 597.534 379.561 597.77 379.599C597.999 379.636 598.552 379.733 599.364 379.938L573.446 482.574ZM601.251 485.564C605.625 485.564 609.794 485.413 613.77 485.192L607.898 379.498C605.34 379.64 603.193 379.707 601.251 379.707V485.564ZM613.803 485.19C619.457 484.873 625.642 484.128 632.034 482.615L607.637 379.607C608.101 379.497 608.362 379.461 608.382 379.459C608.403 379.456 608.239 379.479 607.865 379.5L613.803 485.19ZM632.034 482.615C637.593 481.298 643.851 479.326 650.179 476.271L604.157 380.941C605.267 380.406 606.135 380.079 606.676 379.895C607.223 379.708 607.557 379.626 607.637 379.607L632.034 482.615ZM650.179 476.271C659.891 471.582 672.747 462.342 679.99 445.681L582.912 403.473C588.704 390.152 598.655 383.598 604.157 380.941L650.179 476.271ZM679.782 446.154C682.402 440.284 686.93 427.451 683.256 411.441C679.035 393.04 666.681 381.477 655.808 375.695C646.454 370.721 637.857 369.627 633.732 369.281C628.981 368.883 624.866 369.1 622.025 369.354L631.439 474.792C630.631 474.864 628.236 475.049 624.892 474.769C622.175 474.541 614.674 473.715 606.105 469.158C596.017 463.794 584.137 452.798 580.08 435.113C576.571 419.82 580.953 407.854 583.12 403.001L679.782 446.154ZM622.025 369.354C615.382 369.947 606.691 371.353 597.372 373.034L616.165 477.21C625.358 475.551 629.952 474.924 631.439 474.792L622.025 369.354ZM596.865 373.128C594.743 373.532 594.465 373.282 595.518 373.435L580.269 478.188C592.792 480.011 605.073 479.325 616.672 477.115L596.865 373.128ZM595.518 373.435C594.703 373.316 596.482 373.44 599.453 375.138L546.933 467.048C558.035 473.392 569.614 476.637 580.269 478.188L595.518 373.435ZM599.453 375.138C603.013 377.172 606.933 380.668 609.737 385.587L517.774 438.014C525.007 450.7 535.242 460.367 546.933 467.048L599.453 375.138ZM609.737 385.587C613.095 391.476 614.183 397.878 613.743 403.165L508.251 394.374C507.012 409.244 509.988 424.357 517.774 438.014L609.737 385.587ZM613.82 402.113C613.777 402.797 613.649 403.686 613.367 404.696C613.085 405.709 612.702 406.651 612.27 407.472L518.58 358.198C512.468 369.82 508.999 382.393 508.174 395.426L613.82 402.113ZM612.27 407.472C611.905 408.165 611.462 408.836 610.966 409.443C610.473 410.047 610.01 410.489 609.657 410.783L541.956 329.405C532.519 337.257 524.527 346.891 518.58 358.198L612.27 407.472ZM609.489 410.922C609.054 411.281 608.629 411.559 608.264 411.759C607.904 411.956 607.691 412.027 607.695 412.026L574.408 311.538C562.715 315.412 551.787 321.294 542.124 329.267L609.489 410.922ZM607.695 412.026C607.757 412.005 608.347 411.807 609.781 411.807V305.95C597.858 305.95 585.961 307.711 574.408 311.538L607.695 412.026ZM609.781 411.807C612.309 411.807 613.215 412.111 612.977 412.041C612.844 412.002 612.456 411.876 611.892 411.596C611.322 411.313 610.672 410.921 610.004 410.412L674.169 326.219C654.431 311.176 631.459 305.95 609.781 305.95V411.807ZM610.004 410.412C609.14 409.754 607.941 408.568 606.914 406.883C605.905 405.229 605.578 403.94 605.508 403.578L709.445 383.507C705.06 360.798 693.214 340.733 674.169 326.219L610.004 410.412ZM605.16 401.567C605.148 401.488 605.037 400.766 604.992 399.534C604.948 398.353 604.94 396.113 605.373 393.155C606.144 387.882 609.25 374.651 622.211 364.005L689.403 445.803C704.396 433.487 708.791 417.534 710.115 408.477C711.46 399.283 710.642 391.048 709.793 385.519L605.16 401.567ZM622.211 364.005C630.714 357.02 642.154 352.698 654.524 353.193C665.484 353.631 673.116 357.674 676.531 359.824L620.128 449.403C626.483 453.404 636.838 458.427 650.293 458.965C665.159 459.56 678.867 454.457 689.403 445.803L622.211 364.005ZM673.069 357.823C661.512 351.712 649.562 349.514 640.744 348.528L628.982 453.73C630.029 453.847 630.052 453.914 629.328 453.727C628.663 453.554 626.512 452.949 623.59 451.404L673.069 357.823ZM640.78 348.532C631.776 347.519 622.704 347.33 613.66 347.853L619.768 453.534C623.284 453.33 626.335 453.432 628.946 453.726L640.78 348.532ZM612.996 347.895C609.868 348.116 606.419 348.428 603.845 348.651L612.959 454.115C616.265 453.829 618.406 453.634 620.432 453.491L612.996 347.895ZM603.2 348.711C598.887 349.137 593.943 349.804 588.834 350.931L611.636 454.303C611.5 454.333 611.595 454.307 611.967 454.252C612.332 454.197 612.871 454.128 613.604 454.055L603.2 348.711ZM588.991 350.896C584.105 351.959 577.622 353.739 570.91 357.017L617.364 452.137C615.427 453.083 613.898 453.626 613.029 453.905C612.133 454.193 611.579 454.316 611.479 454.338L588.991 350.896ZM571.815 356.586C566.523 359.047 556.138 364.783 548.27 376.762C538.768 391.227 536.978 408.68 542.11 424.073L642.534 390.598C647.303 404.903 645.64 421.339 636.746 434.879C629.486 445.932 620.19 450.833 616.459 452.569L571.815 356.586ZM539.393 407.336V407.445H645.251V407.336H539.393Z" fill="white" mask="url(#path-6-outside-1_171_376)"/>
<path d="M741.469 413.218L748.415 411.423L741.469 413.218ZM741.469 413.218L740.76 413.402L741.469 413.218ZM854.272 382.638C850.301 378.665 845.311 376.175 840.06 375.268C839.031 371.221 837.531 367.256 835.434 363.472C826.039 346.519 808.808 340.863 794.48 339.532C794.323 339.518 794.167 339.505 794.01 339.493C779.69 338.42 764.698 340.506 752.047 348.848C749.476 346.91 746.685 345.315 743.764 344.063C737.079 341.198 729.952 339.989 723.366 339.5C703.252 337.824 683.301 342.22 667.845 356.694C652.255 371.293 646.176 392.709 644.462 414.428C643.557 424.743 643.963 434.912 646.085 444.796C648.215 454.72 652.037 464.165 657.975 472.561C664.119 481.249 672.121 488.063 681.52 492.882C691.553 498.025 702.452 500.225 713.557 500.225C722.447 500.225 731.112 498.576 739.362 495.102L739.428 495.074C744.692 492.841 749.663 490.078 754.288 486.801C758.487 490.178 763.069 492.849 767.78 494.926L777.996 471.758L767.78 494.926C776.659 498.841 786.191 500.225 795.372 500.225C808.783 500.225 821.981 496.932 833.442 488.889L833.502 488.847C843.396 481.863 851.082 472.729 856.348 461.796C861.388 451.333 863.991 440.085 864.628 428.458L864.634 428.347C865.184 417.496 864.146 406.683 861.506 396.023C860.48 391.062 858.033 386.401 854.308 382.674L854.272 382.638Z" fill="white" stroke="white" stroke-width="52.9286" stroke-linecap="round" stroke-linejoin="round"/>
<path d="M900.286 406.436C898.032 405.158 895.957 403.544 894.139 401.627C893.918 402.145 893.728 402.696 893.568 403.28C893.129 404.892 892.923 406.76 892.955 408.884C892.959 409.138 892.966 409.397 892.977 409.658C892.977 410.425 893.009 411.155 893.073 411.846C893.362 414.983 894.305 417.345 895.881 418.951C896.859 419.947 897.902 420.68 899.01 421.161L906.14 408.881C904.865 408.521 903.62 408.065 902.415 407.519C901.69 407.19 900.98 406.829 900.286 406.436ZM900.286 406.436L898.201 408L900.286 406.436ZM900.286 406.436L902.342 404.895M900.286 406.436L902.342 404.895M902.342 404.895L902.415 404.84M902.342 404.895L902.415 404.84M902.342 404.895L902.415 404.95L906.758 408.276M902.342 404.895L906.861 408.174M902.415 404.84L906.861 408.174M902.415 404.84L906.861 408.174M906.861 408.174L908.018 409.042L908.552 409.443C908.432 409.421 908.312 409.398 908.193 409.374L907.772 409.052L906.758 408.276M906.861 408.174L906.758 408.276M906.861 408.174L906.758 408.276M1008.97 380.179C1005.65 377.69 1001.89 376.074 997.991 375.34C996.962 371.293 995.463 367.328 993.366 363.545C983.971 346.592 966.74 340.935 952.412 339.605C952.368 339.601 952.325 339.597 952.281 339.593C939.715 338.489 927.011 340.188 915.424 346.219C914.502 346.699 913.596 347.198 912.706 347.717C908.314 345.202 903.691 343.359 899.046 342.018C892.538 340.139 885.815 339.455 879.22 339.455C870.598 339.455 862.35 341.283 854.579 344.326C845.616 347.837 837.867 353.204 831.189 359.721L831.189 359.721C824.044 366.696 818.476 375.014 814.106 383.942L814.082 383.992C809.099 394.229 806.347 405.398 805.161 417.029C805.155 417.083 805.15 417.137 805.145 417.192C804.159 427.492 804.781 437.72 807.481 447.62L807.492 447.657C810.101 457.169 814.419 466.037 820.538 473.804L820.614 473.901C826.831 481.717 834.537 487.961 843.464 492.511L855.175 469.535L843.464 492.511C852.665 497.201 862.605 499.662 872.925 500.216C881.858 500.777 890.851 499.62 899.521 496.219L890.336 472.806L899.521 496.219C904.277 494.353 908.867 492.013 913.173 489.116C917.281 491.792 921.668 493.964 926.225 495.712C934.846 499.018 943.965 500.225 952.905 500.225C966.316 500.225 979.513 496.932 990.974 488.889L991.034 488.847C1000.93 481.863 1008.61 472.729 1013.88 461.796C1018.92 451.333 1021.52 440.085 1022.16 428.458L1022.17 428.347C1022.69 418.018 1021.77 407.725 1019.41 397.564C1018.41 390.834 1014.82 384.571 1009.12 380.288L1008.97 380.179ZM911.759 411.848C911.816 411.21 911.847 410.539 911.852 409.838L911.759 411.848Z" fill="white" stroke="white" stroke-width="52.9286" stroke-linecap="round" stroke-linejoin="round"/>
<path d="M1069.53 397.701L1069.55 397.6L1069.58 397.468L1069.55 397.6L1069.53 397.701ZM1069.53 397.701L1068.71 401.311M1069.53 397.701L1068.71 401.311M1068.71 401.311H1068.71M1068.71 401.311L1068.7 401.347L1068.71 401.311M1068.71 401.311H1068.71M1106.25 395.52C1104.49 387.666 1099.23 381.043 1092.05 377.533C1093.76 371.768 1095.37 366.038 1096.87 360.344C1098.96 352.376 1100.54 344.592 1101.54 336.945C1101.54 336.942 1101.54 336.939 1101.54 336.935C1102.77 327.56 1102.37 317.903 1099.36 308.595C1099.33 308.519 1099.31 308.444 1099.28 308.368C1095.56 297.199 1088.15 288.491 1078.48 282.614C1067.73 276.082 1055.18 274.483 1044.09 274.483C1030.59 274.483 1017.38 277.25 1005.55 283.984C993.593 290.787 984.569 300.767 978.253 312.725L978.241 312.746C966.175 335.642 963.727 366.609 966.41 401.455L966.418 401.558C967.626 416.475 969.672 429.876 972.807 441.445C975.84 452.636 980.033 463.251 986.024 472.218C992.118 481.377 1000.23 489.106 1010.7 493.995C1020.12 498.409 1030.16 500.225 1040.2 500.225C1053.61 500.225 1066.81 496.933 1078.27 488.89C1088.24 481.893 1095.94 472.737 1101.21 461.797C1106.25 451.333 1108.86 440.086 1109.49 428.459L1109.5 428.348C1110.06 417.325 1108.98 406.343 1106.25 395.52Z" fill="white" stroke="white" stroke-width="52.9286" stroke-linecap="round" stroke-linejoin="round"/>
<path d="M492.824 749.203C495.565 749.35 498.314 749.442 501.076 749.48C508.562 749.62 516.268 748.927 524.081 747.567C524.082 747.567 524.084 747.566 524.086 747.566C533.58 745.919 543.807 742.308 554.329 737.665C564.614 733.161 573.984 726.723 581.342 717.743C587.322 710.478 592.08 702.39 595.091 693.534L570.035 685.015L595.091 693.534C597.861 685.386 599.293 676.887 598.988 668.155L598.988 668.149C598.752 661.461 597.743 654.388 595.253 647.664C601.55 646.257 607.786 644.229 613.937 641.683C628.06 635.907 640.581 627.838 650.144 616.708L650.151 616.7C658.26 607.256 664.544 596.7 668.117 585.032L668.151 584.921C671.356 574.287 672.612 563.278 671.316 552.066C670.218 542.564 667.803 533.073 663.135 524.525C658.815 516.615 651.436 507.397 639.285 503.263L630.774 528.28L639.285 503.263C631.553 500.633 623.085 500.782 615.202 504.164C608.037 507.237 603.103 512.217 599.88 516.366C599.853 516.401 599.826 516.436 599.799 516.471C596.082 521.306 593.078 524.092 590.861 525.65L590.787 525.702C589.722 526.456 587.257 527.75 582.405 528.624L582.307 528.642C576.971 529.624 569.33 530.19 558.803 530.023C548.027 529.853 533.992 529.163 516.545 527.879C480.039 525.109 446.77 527.138 417.063 534.545C388.419 541.686 363.47 552.159 343.068 566.688L343.046 566.704C323.03 580.989 307.536 598.395 298.206 619.353C298.205 619.356 298.203 619.359 298.202 619.361C288.833 640.374 286.783 662.439 292.552 684.496C295.932 698.154 302.844 710.482 314.213 719.656C323.237 726.939 333.405 732.151 344.578 734.986L350.977 709.769L344.578 734.986C355.109 737.658 365.814 738.288 376.463 736.767C379.779 736.293 383.104 735.618 386.386 734.697C386.621 735.681 386.863 736.652 387.113 737.609C390.998 752.511 396.159 766.109 403.452 776.86L403.487 776.911C409.894 786.308 418.5 795.468 430.195 800.539C437.734 803.819 446.223 806.216 455.153 806.216C464.532 806.216 475.142 802.855 482.826 793.501C488.361 786.763 490.798 779.074 491.922 772.7C492.996 766.618 493.223 760.331 492.997 754.111C492.94 752.521 492.882 750.886 492.824 749.203ZM578.629 669.291C578.621 669.301 578.612 669.313 578.6 669.328C578.611 669.314 578.622 669.299 578.633 669.285L578.629 669.291ZM513.035 647.114C509.001 648.348 504.83 649.554 500.511 650.734C501.715 644.904 502.791 639.264 503.734 633.809L503.753 633.702C503.911 632.762 504.063 631.826 504.207 630.895C511.271 634.265 518.436 637.442 525.73 640.376C526.653 640.749 527.58 641.112 528.511 641.465C524.055 643.417 518.921 645.312 513.035 647.114Z" fill="white" stroke="white" stroke-width="52.9286" stroke-linecap="round" stroke-linejoin="round"/>
<path d="M754.251 632.185C759.506 633.092 764.5 635.586 768.472 639.563L768.508 639.599C772.228 643.324 774.673 647.982 775.698 652.939C778.338 663.599 779.376 674.412 778.826 685.264L778.82 685.375C778.183 697.002 775.58 708.25 770.54 718.713C765.274 729.646 757.588 738.78 747.693 745.764L747.634 745.806C736.173 753.849 722.975 757.142 709.564 757.142C700.383 757.142 690.851 755.758 681.972 751.843C677.261 749.766 672.679 747.095 668.48 743.718C663.855 746.995 658.884 749.758 653.62 751.991L653.554 752.019C645.304 755.492 636.639 757.142 627.749 757.142C616.644 757.142 605.745 754.942 595.712 749.799C586.313 744.98 578.311 738.166 572.167 729.478C566.229 721.082 562.407 711.637 560.277 701.712C558.155 691.829 557.749 681.66 558.653 671.345C560.368 649.626 566.447 628.21 582.037 613.61C597.493 599.137 617.444 594.741 637.558 596.417C644.144 596.906 651.271 598.115 657.956 600.98C660.877 602.232 663.668 603.827 666.238 605.765C678.89 597.423 693.882 595.337 708.202 596.41C708.359 596.422 708.515 596.435 708.672 596.449C723 597.78 740.231 603.436 749.626 620.389M754.251 632.185L749.626 620.389M754.251 632.185C753.223 628.138 751.723 624.172 749.626 620.389M754.251 632.185L749.626 620.389M745.098 662.726L745.496 662.508L745.098 662.726ZM745.098 662.726L737.188 661.537L735.227 661.242L732.624 660.851L745.098 662.726ZM745.098 662.726L745.012 662.774L745.098 662.726ZM655.661 670.135L662.607 668.34L655.661 670.135ZM655.661 670.135L659.456 673.181M655.661 670.135L659.456 673.181M655.661 670.135L659.456 673.181M655.661 670.135L659.456 673.181M655.661 670.135L654.952 670.318L655.661 670.135ZM659.456 673.181L659.685 673.365L659.456 673.181Z" fill="white" stroke="white" stroke-width="52.9286" stroke-linecap="round" stroke-linejoin="round"/>
<path d="M723.511 672.306C723.453 671.87 723.406 671.43 723.37 670.987C722.834 664.443 723.091 657.673 723.843 650.911C723.849 650.855 723.855 650.798 723.862 650.742C724.833 642.491 727.043 634.478 730.726 626.823L730.76 626.753C735.213 617.57 741.911 610.031 750.381 604.363C761.378 597.003 773.947 595.227 785.291 595.745C785.394 595.75 785.498 595.755 785.602 595.761C790.625 596.05 795.593 596.867 800.459 598.249C804.933 599.519 809.243 601.401 813.244 603.951C819.83 600.272 826.921 597.658 834.438 596.179C834.627 596.142 834.816 596.107 835.006 596.074C844.479 594.424 854.16 594.433 863.617 596.703C872.95 598.942 881.713 603.25 889.096 610.054C895.759 616.194 900.625 623.622 903.869 631.737C903.979 631.741 904.09 631.745 904.2 631.749C915.814 632.247 925.744 640.265 928.676 651.514C931.569 662.611 932.721 673.88 932.148 685.19L932.142 685.302C931.504 696.929 928.901 708.176 923.861 718.64C918.595 729.572 910.909 738.706 901.015 745.691L900.955 745.733C889.494 753.775 876.297 757.068 862.886 757.068C852.007 757.068 840.748 755.734 830.748 751.409C828.389 750.389 826.039 749.222 823.74 747.886C823.379 748.195 823.01 748.499 822.634 748.797C822.576 748.843 822.519 748.888 822.461 748.933C813.878 755.625 804.09 757.032 796.897 757.032C788.767 757.032 780.825 755.857 773.147 753.58C762.803 750.512 754.114 744.655 747.085 737.145M723.511 672.306L747.085 737.145M723.511 672.306C724.565 685.878 726.754 698.476 730.746 709.306M723.511 672.306L730.746 709.306M747.085 737.145C739.736 729.294 734.512 719.611 730.746 709.306M747.085 737.145L730.746 709.306M836.919 724.938C836.681 726.064 836.405 727.192 836.087 728.317L836.919 724.938ZM836.919 724.938C838.254 725.721 839.699 726.447 841.252 727.119C846.625 729.442 853.848 730.604 862.886 730.604C871.924 730.604 879.547 728.426 885.754 724.07C891.924 719.714 896.679 714.088 900.019 707.155L836.919 724.938ZM823.503 692.055C823.469 692.345 823.437 692.634 823.408 692.923C823.367 693.329 823.331 693.736 823.301 694.141C823.284 694.366 823.268 694.59 823.254 694.814C823.222 695.333 823.198 695.852 823.183 696.37L823.503 692.055ZM823.503 692.055C823.535 691.71 823.561 691.373 823.58 691.043L818.492 687.732L816.764 686.608L823.503 692.055ZM820.555 706.713C819.434 706.835 818.318 706.872 817.215 706.828L819.53 697.282H823.163C823.13 700.127 823.342 702.959 823.793 705.776C823.811 705.886 823.829 705.997 823.848 706.107C822.822 706.376 821.723 706.586 820.555 706.713ZM818.485 687.671L816.794 686.588L817.695 680.404C819.365 680.222 820.817 681.13 822.124 683.162C823.269 685.028 823.766 687.603 823.586 690.939L818.485 687.671Z" fill="white" stroke="white" stroke-width="52.9286" stroke-linecap="round" stroke-linejoin="round"/>
<path d="M1082.94 651.587C1081.76 647.039 1079.38 642.889 1076.06 639.564L1076.02 639.527C1073.5 636.998 1070.53 635.048 1067.32 633.735C1065.64 626.802 1062.49 620.225 1057.79 614.316C1051.21 606.033 1042.74 599.992 1033.05 596.178C1025.22 593.097 1017.07 591.688 1008.9 591.52C1009.21 587.618 1009.26 583.721 1009 579.85C1008.14 566.836 1003.08 554.459 992.779 544.951L992.697 544.876C980.736 533.927 964.877 531.435 951.67 531.435C939.638 531.435 927.844 533.059 917.115 537.317C904.159 542.418 894.439 551.628 887.908 563.103L910.908 576.193L887.908 563.103C881.677 574.05 878.343 586.974 876.72 600.475C875.091 614.024 874.929 630.267 875.875 648.777C876.829 667.994 879.011 684.896 882.971 698.578C886.567 711.147 891.527 722.989 898.72 732.422L898.783 732.505C905.576 741.341 914.6 749.053 926.365 752.981C934.52 755.714 942.904 757.105 951.38 757.105C958.573 757.105 968.361 755.699 976.944 749.007C977.002 748.962 977.06 748.916 977.117 748.871C978.067 748.117 978.969 747.33 979.824 746.513C982.345 748.003 984.938 749.369 987.597 750.614C996.917 754.979 1006.86 757.141 1017.12 757.141C1030.53 757.141 1043.72 753.849 1055.18 745.806C1065.16 738.809 1072.86 729.653 1078.13 718.713L1054.28 707.229L1078.13 718.713C1083.17 708.25 1085.77 697.002 1086.41 685.375L1086.41 685.264C1086.99 673.953 1085.83 662.684 1082.94 651.587ZM974.528 659.349C975.445 659.18 976.354 658.962 977.251 658.695C976.653 659.161 976.073 659.655 975.513 660.174C975.487 660.198 975.461 660.223 975.435 660.247C975.12 660.542 974.812 660.845 974.51 661.156C974.463 661.205 974.417 661.253 974.37 661.302C974.275 661.401 974.182 661.501 974.088 661.602C973.954 661.747 973.822 661.894 973.691 662.043C973.466 661.958 973.24 661.877 973.014 661.799C973.001 661.795 972.989 661.791 972.977 661.787C972.792 661.723 972.606 661.662 972.419 661.602C972.092 661.498 971.762 661.4 971.43 661.309C971.194 661.244 970.957 661.182 970.719 661.123C970.546 661.081 970.372 661.04 970.198 661.001C970.068 660.972 969.939 660.944 969.809 660.916L969.973 660.776L971.174 659.75C971.777 659.717 972.378 659.663 972.977 659.588C972.989 659.587 973.001 659.585 973.014 659.584C973.48 659.525 973.945 659.454 974.409 659.371C974.448 659.364 974.488 659.356 974.528 659.349ZM969.633 660.88C968.272 660.606 966.881 660.438 965.47 660.382C965.471 660.065 965.479 659.756 965.494 659.454C966.649 659.64 967.813 659.749 968.978 659.781C969.644 659.799 970.311 659.792 970.977 659.76L969.875 660.678L969.633 660.88Z" fill="white" stroke="white" stroke-width="52.9286" stroke-linecap="round" stroke-linejoin="round"/>
<path d="M464.957 911.593C711.627 911.593 911.593 711.627 911.593 464.957C911.593 218.287 711.627 18.3211 464.957 18.3211C218.287 18.3211 18.3211 218.287 18.3211 464.957C18.3211 711.627 218.287 911.593 464.957 911.593Z" stroke="white" stroke-width="36.6429"/>
<path d="M464.957 893.271C701.508 893.271 893.271 701.508 893.271 464.957C893.271 228.405 701.508 36.6426 464.957 36.6426C228.405 36.6426 36.6426 228.405 36.6426 464.957C36.6426 701.508 228.405 893.271 464.957 893.271Z" fill="#2C2E59"/>
<path d="M492.748 815.625C694.766 815.625 858.533 651.858 858.533 449.84C858.533 247.823 694.766 84.0552 492.748 84.0552C290.731 84.0552 126.963 247.823 126.963 449.84C126.963 651.858 290.731 815.625 492.748 815.625Z" fill="#1D91F9"/>
<path d="M518.592 698.049C677.241 698.049 805.852 569.438 805.852 410.788C805.852 252.138 677.241 123.527 518.592 123.527C359.942 123.527 231.331 252.138 231.331 410.788C231.331 569.438 359.942 698.049 518.592 698.049Z" fill="#F2B705"/>
<path d="M540.809 577.953C648.08 577.953 735.039 490.993 735.039 383.723C735.039 276.453 648.08 189.493 540.809 189.493C433.539 189.493 346.579 276.453 346.579 383.723C346.579 490.993 433.539 577.953 540.809 577.953Z" fill="#F2490C"/>
<path d="M570.509 458.544C629.394 458.544 677.129 410.808 677.129 351.923C677.129 293.038 629.394 245.303 570.509 245.303C511.624 245.303 463.888 293.038 463.888 351.923C463.888 410.808 511.624 458.544 570.509 458.544Z" fill="#B01C21"/>
<path d="M387.276 674.636C393.918 680.916 397.113 686.614 396.859 691.696C396.568 696.778 394.281 700.952 389.926 704.182C385.57 707.413 379.835 709.555 372.72 710.571C365.606 711.587 358.383 711.188 351.087 709.337C343.791 707.486 337.04 704.074 330.833 699.064C324.626 694.055 320.415 687.05 318.201 677.975C313.954 661.896 315.334 645.924 322.375 630.135C329.417 614.309 341.432 600.371 358.419 588.247C375.443 576.124 397.113 566.795 423.465 560.225C449.817 553.655 480.162 551.659 514.572 554.272C532.322 555.579 546.914 556.305 558.384 556.487C569.854 556.668 579.4 556.087 587.095 554.672C594.754 553.292 601.106 550.824 606.079 547.303C611.088 543.782 615.952 538.882 620.78 532.603C623.938 528.537 627.241 527.122 630.762 528.32C634.283 529.517 637.332 532.494 639.909 537.213C642.486 541.931 644.192 547.884 645.027 555.107C645.862 562.331 645.099 569.699 642.813 577.285C640.49 584.872 636.243 592.276 630.072 599.463C623.865 606.687 615.154 612.603 603.865 617.213C595.371 620.734 587.277 622.766 579.582 623.311C571.923 623.855 564.373 623.456 556.968 622.077C549.563 620.697 542.449 618.592 535.625 615.834C528.765 613.075 521.977 610.062 515.226 606.832C508.474 603.601 501.723 600.443 494.972 597.394C488.22 594.345 481.505 591.804 474.863 589.772C478.02 594.019 479.618 599.536 479.726 606.287C479.799 613.039 479.109 620.697 477.657 629.3C476.169 637.903 474.318 647.086 472.104 656.886C469.89 666.687 468.111 676.669 466.841 686.832C475.516 684.436 484.59 682.077 494.028 679.754C503.465 677.431 512.358 674.999 520.779 672.422C529.2 669.845 536.678 666.977 543.248 663.819C549.818 660.661 554.573 657.177 557.549 653.293C559.945 650.135 562.304 649.01 564.627 649.808C566.95 650.643 568.801 652.748 570.181 656.197C571.56 659.609 572.358 663.928 572.54 669.082C572.721 674.273 571.887 679.573 570.035 685.017C568.184 690.462 565.135 695.798 560.888 700.952C556.642 706.143 550.906 710.28 543.683 713.438C534.064 717.685 526.042 720.371 519.545 721.497C513.084 722.622 507.059 723.13 501.505 723.021C495.952 722.948 490.471 722.622 484.99 722.041C479.545 721.497 472.939 721.569 465.171 722.331L466.006 738.702C466.187 744.618 466.369 750.063 466.55 755.072C466.732 760.081 466.514 764.401 465.861 768.103C465.207 771.805 464.046 774.673 462.376 776.706C460.706 778.738 458.311 779.755 455.153 779.755C450.906 779.755 446.078 778.593 440.743 776.27C435.37 773.947 430.253 769.192 425.352 762.005C420.452 754.782 416.242 744.437 412.721 730.934C409.2 717.431 407.167 699.427 406.623 676.85C405.679 652.821 406.514 634.237 409.127 621.097C411.704 607.957 415.588 598.447 420.779 592.53C411.16 596.233 402.485 601.133 394.717 607.231C386.949 613.329 381.178 620.117 377.367 627.63C373.592 635.108 372.249 642.948 373.338 651.079C374.426 659.209 379.073 667.086 387.203 674.636H387.276Z" fill="black" stroke="black" stroke-width="48.8571" stroke-linecap="round" stroke-linejoin="round"/>
<path d="M749.746 658.266C751.96 666.759 752.831 675.326 752.396 683.928C751.924 692.531 750.036 700.298 746.697 707.231C743.358 714.164 738.603 719.79 732.432 724.146C726.225 728.502 718.602 730.68 709.564 730.68C702.922 730.68 697.259 729.663 692.65 727.631C688.04 725.598 684.265 722.912 681.433 719.573C678.566 716.233 676.424 712.567 675.045 708.465C673.666 704.4 672.795 700.335 672.395 696.269C670.907 700.516 668.838 704.69 666.152 708.756C663.466 712.821 660.199 716.487 656.315 719.718C652.432 722.948 648.076 725.598 643.284 727.631C638.457 729.663 633.303 730.68 627.749 730.68C620.163 730.68 613.52 729.191 607.785 726.251C602.05 723.311 597.368 719.282 593.774 714.2C590.181 709.119 587.64 703.093 586.152 696.16C584.663 689.228 584.3 681.714 585.026 673.547C586.515 654.491 591.56 640.951 600.126 632.93C608.693 624.908 620.526 621.532 635.48 622.803C640.49 623.166 644.482 624 647.531 625.307C650.58 626.614 652.649 628.647 653.775 631.405C654.9 634.164 655.154 637.794 654.609 642.222C654.065 646.65 652.758 652.204 650.726 658.846C649.056 664.218 648.657 668.502 649.491 671.732C650.326 674.963 651.706 676.777 653.666 677.14C655.589 677.503 657.695 676.306 659.909 673.547C662.123 670.788 663.684 666.07 664.628 659.391C666.66 646.069 670.943 636.414 677.513 630.425C684.083 624.436 693.63 621.859 706.225 622.803C716.388 623.746 723.14 627.195 726.479 633.22C729.818 639.245 730.544 648.247 728.693 660.262C727.967 665.09 728.294 668.719 729.673 671.224C731.053 673.728 732.904 674.963 735.227 674.963C737.55 674.963 740.018 673.62 742.704 670.933C745.39 668.247 747.75 664.037 749.782 658.302L749.746 658.266Z" fill="black" stroke="black" stroke-width="48.8571" stroke-linecap="round" stroke-linejoin="round"/>
<path d="M749.746 668.827C749.383 664.399 749.528 659.39 750.145 653.836C750.798 648.283 752.25 643.128 754.573 638.301C756.896 633.509 760.381 629.517 765.1 626.359C769.818 623.201 776.134 621.821 784.083 622.184C787.241 622.366 790.29 622.874 793.23 623.709C796.171 624.544 798.711 625.851 800.853 627.593C802.958 629.371 804.628 631.586 805.862 634.235C807.06 636.921 807.568 640.297 807.387 644.362C811.089 638.99 815.699 634.272 821.252 630.206C826.806 626.141 832.904 623.455 839.546 622.148C846.007 621.023 851.997 621.132 857.441 622.439C862.886 623.745 867.46 626.105 871.162 629.517C874.864 632.929 877.696 637.248 879.619 642.402C881.579 647.593 882.342 653.51 881.979 660.152C881.616 664.98 882.16 668.609 883.648 671.114C885.137 673.619 886.988 674.853 889.202 674.853C891.416 674.853 893.775 673.51 896.28 670.824C898.785 668.138 901.035 663.927 903.068 658.192C905.282 666.686 906.153 675.252 905.717 683.854C905.246 692.457 903.358 700.225 900.019 707.158C896.679 714.091 891.924 719.717 885.754 724.072C879.547 728.428 871.924 730.606 862.886 730.606C853.848 730.606 846.625 729.445 841.252 727.121C835.88 724.798 831.815 721.822 829.056 718.12C826.298 714.417 824.519 710.316 823.793 705.778C823.067 701.241 822.958 696.668 823.503 692.058C823.866 688.174 823.394 685.234 822.124 683.165C820.817 681.132 819.365 680.225 817.695 680.406C816.026 680.588 814.465 681.858 812.977 684.145C811.488 686.468 810.762 690.025 810.762 694.816C810.762 695.179 810.799 695.615 810.908 696.051C810.98 696.522 811.053 696.922 811.053 697.285C811.416 702.112 811.67 706.541 811.742 710.606C811.815 714.671 811.452 718.192 810.617 721.132C809.782 724.109 808.294 726.396 806.189 728.065C804.047 729.735 800.962 730.57 796.897 730.57C791.343 730.57 785.935 729.771 780.671 728.21C775.408 726.65 770.653 723.601 766.406 719.063C762.16 714.526 758.53 708.247 755.59 700.189C752.613 692.13 750.689 681.64 749.782 668.718L749.746 668.827Z" fill="black" stroke="black" stroke-width="48.8571" stroke-linecap="round" stroke-linejoin="round"/>
<path d="M1057.33 658.265C1059.55 666.759 1060.42 675.325 1059.98 683.928C1059.51 692.531 1057.62 700.298 1054.28 707.231C1050.94 714.164 1046.19 719.79 1039.98 724.146C1033.78 728.502 1026.15 730.679 1017.12 730.679C1010.65 730.679 1004.56 729.336 998.821 726.65C993.086 723.964 987.896 720.552 983.286 716.378C978.676 712.204 974.683 707.485 971.344 702.222C968.004 696.959 965.718 691.805 964.411 686.832L965.246 697.358C965.609 702.186 965.899 706.614 966.081 710.679C966.262 714.745 965.935 718.266 965.101 721.206C964.266 724.182 962.777 726.469 960.672 728.139C958.531 729.808 955.445 730.643 951.38 730.643C945.826 730.643 940.273 729.736 934.756 727.885C929.202 726.033 924.229 722.186 919.765 716.378C915.336 710.571 911.525 702.186 908.403 691.26C905.245 680.371 903.213 665.743 902.305 647.449C901.398 629.699 901.616 615.107 902.995 603.637C904.374 592.167 907.024 583.02 910.908 576.196C914.792 569.372 920.091 564.581 926.843 561.931C933.594 559.245 941.87 557.902 951.67 557.902C962.378 557.902 970.11 560.08 974.828 564.399C979.547 568.755 982.124 574.49 982.596 581.604C983.068 588.719 981.979 596.777 979.402 605.742C976.825 614.708 973.594 623.891 969.71 633.329C971.743 631.478 973.812 629.808 975.954 628.32C978.059 626.831 980.346 625.452 982.741 624.145C989.965 620.443 997.115 618.41 1004.23 618.047C1011.34 617.684 1017.73 618.592 1023.36 620.806C1028.98 623.02 1033.56 626.36 1037.08 630.788C1040.6 635.216 1042.34 640.407 1042.34 646.323C1042.34 654.091 1040.78 660.407 1037.62 665.307C1034.47 670.207 1030.51 673.946 1025.68 676.523C1020.85 679.1 1015.59 680.625 1009.89 681.097C1004.16 681.569 998.712 681.06 993.522 679.572C997.95 683.819 1003.39 686.178 1009.89 686.65C1016.35 687.122 1022.78 686.178 1029.17 683.892C1035.55 681.569 1041.33 678.157 1046.48 673.619C1051.67 669.082 1055.26 663.964 1057.3 658.229L1057.33 658.265ZM973.014 671.296C974.865 671.296 976.571 670.498 978.131 668.937C979.692 667.376 980.491 664.908 980.491 661.605C980.672 657.902 980.019 655.18 978.567 653.438C977.079 651.695 975.228 650.788 973.014 650.788C970.799 650.788 968.948 651.659 967.46 653.438C965.972 655.18 965.318 657.939 965.5 661.605C965.5 664.944 966.298 667.376 967.859 668.937C969.42 670.498 971.126 671.296 972.977 671.296H973.014Z" fill="black" stroke="black" stroke-width="48.8571" stroke-linecap="round" stroke-linejoin="round"/>
<path d="M394.536 663.746C401.178 670.026 404.372 675.725 404.118 680.806C403.828 685.888 401.541 690.062 397.185 693.293C392.83 696.523 387.095 698.665 379.98 699.681C372.866 700.698 365.643 700.298 358.347 698.447C351.051 696.596 344.299 693.184 338.093 688.175C331.886 683.166 327.675 676.16 325.461 667.086C321.214 651.006 322.593 635.035 329.635 619.245C336.677 603.419 348.692 589.481 365.679 577.358C382.703 565.234 404.372 555.906 430.725 549.336C457.077 542.766 487.422 540.769 521.832 543.383C539.582 544.69 554.173 545.416 565.644 545.597C577.114 545.778 586.66 545.198 594.355 543.782C602.014 542.403 608.366 539.935 613.339 536.414C618.348 532.893 623.212 527.993 628.04 521.713C631.197 517.648 634.501 516.232 638.021 517.43C641.542 518.628 644.591 521.604 647.168 526.323C649.746 531.042 651.452 536.994 652.286 544.218C653.121 551.441 652.359 558.809 650.072 566.396C647.749 573.982 643.502 581.387 637.332 588.574C631.125 595.797 622.413 601.713 611.125 606.323C602.631 609.844 594.537 611.877 586.842 612.421C579.183 612.966 571.633 612.566 564.228 611.187C556.823 609.808 549.709 607.703 542.885 604.944C536.025 602.185 529.237 599.173 522.485 595.942C515.734 592.712 508.983 589.554 502.231 586.505C495.48 583.456 488.765 580.915 482.122 578.882C485.28 583.129 486.877 588.646 486.986 595.398C487.059 602.149 486.369 609.808 484.917 618.41C483.429 627.013 481.578 636.196 479.364 645.997C477.149 655.797 475.371 665.779 474.1 675.942C482.776 673.547 491.85 671.187 501.288 668.864C510.725 666.541 519.618 664.109 528.039 661.532C536.46 658.955 543.938 656.088 550.507 652.93C557.077 649.772 561.832 646.287 564.809 642.403C567.204 639.245 569.564 638.12 571.887 638.919C574.21 639.754 576.061 641.859 577.44 645.307C578.82 648.719 579.618 653.039 579.8 658.193C579.981 663.383 579.146 668.683 577.295 674.128C575.444 679.572 572.395 684.908 568.148 690.062C563.901 695.253 558.166 699.391 550.943 702.549C541.324 706.796 533.302 709.482 526.805 710.607C520.344 711.732 514.318 712.24 508.765 712.131C503.211 712.059 497.73 711.732 492.249 711.151C486.805 710.607 480.199 710.68 472.431 711.442L473.266 727.812C473.447 733.729 473.629 739.173 473.81 744.182C473.992 749.191 473.774 753.511 473.12 757.213C472.467 760.916 471.306 763.783 469.636 765.816C467.966 767.849 465.57 768.865 462.413 768.865C458.166 768.865 453.338 767.703 448.002 765.38C442.63 763.057 437.512 758.302 432.612 751.115C427.712 743.892 423.501 733.547 419.98 720.044C416.46 706.542 414.427 688.538 413.882 665.961C412.939 641.931 413.774 623.347 416.387 610.207C418.964 597.067 422.848 587.557 428.039 581.641C418.42 585.343 409.744 590.243 401.977 596.341C394.209 602.439 388.438 609.227 384.626 616.741C380.851 624.218 379.508 632.058 380.597 640.189C381.686 648.32 386.332 656.196 394.463 663.746H394.536Z" fill="white"/>
<path d="M757.006 647.376C759.22 655.87 760.091 664.436 759.656 673.038C759.184 681.641 757.296 689.409 753.957 696.342C750.617 703.275 745.862 708.901 739.692 713.256C733.485 717.612 725.862 719.79 716.824 719.79C710.182 719.79 704.519 718.774 699.909 716.741C695.299 714.708 691.524 712.022 688.693 708.683C685.826 705.343 683.684 701.677 682.305 697.576C680.926 693.51 680.054 689.445 679.655 685.38C678.167 689.627 676.098 693.801 673.412 697.866C670.726 701.932 667.459 705.598 663.575 708.828C659.691 712.059 655.336 714.708 650.544 716.741C645.717 718.774 640.562 719.79 635.009 719.79C627.423 719.79 620.78 718.302 615.045 715.362C609.31 712.422 604.627 708.393 601.034 703.311C597.441 698.229 594.9 692.204 593.411 685.271C591.923 678.338 591.56 670.824 592.286 662.657C593.774 643.601 598.82 630.062 607.386 622.04C615.952 614.018 627.786 610.642 642.74 611.913C647.749 612.276 651.742 613.111 654.791 614.417C657.84 615.724 659.909 617.757 661.034 620.516C662.16 623.274 662.414 626.904 661.869 631.332C661.325 635.761 660.018 641.314 657.985 647.957C656.316 653.329 655.916 657.612 656.751 660.842C657.586 664.073 658.965 665.888 660.925 666.251C662.849 666.614 664.954 665.416 667.169 662.657C669.383 659.899 670.944 655.18 671.887 648.501C673.92 635.18 678.203 625.525 684.773 619.535C691.343 613.546 700.889 610.969 713.485 611.913C723.648 612.857 730.399 616.305 733.739 622.33C737.078 628.356 737.804 637.358 735.953 649.372C735.227 654.2 735.554 657.83 736.933 660.334C738.312 662.839 740.164 664.073 742.487 664.073C744.81 664.073 747.278 662.73 749.964 660.044C752.65 657.358 755.009 653.147 757.042 647.412L757.006 647.376Z" fill="white"/>
<path d="M757.006 657.939C756.643 653.511 756.788 648.502 757.405 642.948C758.059 637.395 759.511 632.24 761.834 627.413C764.157 622.621 767.641 618.629 772.36 615.471C777.079 612.313 783.394 610.934 791.344 611.297C794.502 611.478 797.551 611.986 800.491 612.821C803.431 613.656 805.972 614.963 808.113 616.705C810.219 618.484 811.888 620.698 813.122 623.347C814.32 626.033 814.828 629.409 814.647 633.474C818.349 628.102 822.959 623.384 828.513 619.318C834.066 615.253 840.164 612.567 846.807 611.26C853.268 610.135 859.257 610.244 864.702 611.551C870.146 612.857 874.72 615.217 878.422 618.629C882.125 622.041 884.956 626.36 886.88 631.514C888.84 636.705 889.602 642.622 889.239 649.264C888.876 654.092 889.42 657.721 890.909 660.226C892.397 662.731 894.248 663.965 896.462 663.965C898.676 663.965 901.036 662.622 903.54 659.936C906.045 657.25 908.295 653.039 910.328 647.304C912.542 655.798 913.413 664.364 912.978 672.967C912.506 681.569 910.618 689.337 907.279 696.27C903.94 703.203 899.185 708.829 893.014 713.185C886.807 717.54 879.184 719.718 870.146 719.718C861.108 719.718 853.885 718.557 848.513 716.234C843.141 713.91 839.075 710.934 836.317 707.232C833.558 703.529 831.779 699.428 831.053 694.89C830.328 690.353 830.219 685.78 830.763 681.17C831.126 677.286 830.654 674.346 829.384 672.277C828.077 670.244 826.625 669.337 824.955 669.518C823.286 669.7 821.725 670.97 820.237 673.257C818.749 675.58 818.023 679.137 818.023 683.929C818.023 684.291 818.059 684.727 818.168 685.163C818.24 685.634 818.313 686.034 818.313 686.397C818.676 691.224 818.93 695.653 819.003 699.718C819.075 703.783 818.712 707.304 817.877 710.244C817.043 713.221 815.554 715.508 813.449 717.177C811.308 718.847 808.222 719.682 804.157 719.682C798.603 719.682 793.195 718.883 787.932 717.322C782.669 715.762 777.913 712.713 773.667 708.175C769.42 703.638 765.79 697.359 762.85 689.301C759.873 681.242 757.95 670.752 757.042 657.83L757.006 657.939Z" fill="white"/>
<path d="M1064.59 647.376C1066.81 655.869 1067.68 664.436 1067.24 673.038C1066.77 681.641 1064.88 689.409 1061.54 696.341C1058.21 703.274 1053.45 708.901 1047.24 713.256C1041.04 717.612 1033.41 719.79 1024.38 719.79C1017.91 719.79 1011.82 718.447 1006.08 715.761C1000.35 713.075 995.156 709.663 990.546 705.489C985.936 701.314 981.943 696.596 978.604 691.332C975.265 686.069 972.978 680.915 971.671 675.942L972.506 686.468C972.869 691.296 973.159 695.724 973.341 699.79C973.522 703.855 973.196 707.376 972.361 710.316C971.526 713.293 970.038 715.579 967.932 717.249C965.791 718.919 962.706 719.754 958.64 719.754C953.087 719.754 947.533 718.846 942.016 716.995C936.462 715.144 931.489 711.296 927.025 705.489C922.596 699.681 918.785 691.296 915.664 680.37C912.506 669.481 910.473 654.853 909.566 636.559C908.658 618.809 908.876 604.218 910.255 592.747C911.635 581.277 914.284 572.13 918.168 565.306C922.052 558.482 927.351 553.691 934.103 551.041C940.854 548.355 949.13 547.012 958.931 547.012C969.638 547.012 977.37 549.19 982.089 553.509C986.807 557.865 989.384 563.6 989.856 570.715C990.328 577.829 989.239 585.887 986.662 594.853C984.085 603.818 980.855 613.002 976.971 622.439C979.003 620.588 981.072 618.918 983.214 617.43C985.319 615.942 987.606 614.562 990.002 613.256C997.225 609.553 1004.38 607.521 1011.49 607.158C1018.6 606.795 1024.99 607.702 1030.62 609.916C1036.24 612.131 1040.82 615.47 1044.34 619.898C1047.86 624.327 1049.6 629.517 1049.6 635.434C1049.6 643.201 1048.04 649.517 1044.88 654.417C1041.73 659.318 1037.77 663.056 1032.94 665.633C1028.11 668.211 1022.85 669.735 1017.15 670.207C1011.42 670.679 1005.97 670.171 1000.78 668.683C1005.21 672.929 1010.65 675.289 1017.15 675.761C1023.61 676.232 1030.04 675.289 1036.43 673.002C1042.81 670.679 1048.59 667.267 1053.74 662.73C1058.93 658.192 1062.52 653.074 1064.56 647.339L1064.59 647.376ZM980.274 660.407C982.125 660.407 983.831 659.608 985.392 658.047C986.952 656.486 987.751 654.018 987.751 650.715C987.933 647.013 987.279 644.29 985.827 642.548C984.339 640.806 982.488 639.898 980.274 639.898C978.06 639.898 976.208 640.769 974.72 642.548C973.232 644.29 972.579 647.049 972.76 650.715C972.76 654.054 973.559 656.486 975.119 658.047C976.68 659.608 978.386 660.407 980.237 660.407H980.274Z" fill="white"/>
<path d="M319.98 379.17C323.5 370.096 324.444 362.546 322.883 356.412C321.323 350.313 318.019 345.631 313.047 342.401C308.038 339.17 301.867 337.319 294.462 336.847C287.057 336.375 279.435 337.319 271.595 339.606C263.718 341.929 256.059 345.631 248.582 350.713C241.104 355.794 234.861 362.219 229.852 369.987C224.843 377.755 221.431 386.902 219.58 397.428C217.729 407.954 218.563 419.788 222.084 432.927C224.48 441.82 228.473 448.935 234.026 454.27C239.58 459.643 245.896 463.526 253.01 465.922C260.124 468.318 267.783 469.298 276.023 468.826C284.262 468.354 292.103 466.793 299.58 464.107C307.058 461.421 313.954 457.791 320.234 453.145C326.513 448.535 331.413 443.163 334.934 437.065C337.33 433 340.306 430.169 343.791 428.608C347.312 427.047 350.942 426.611 354.753 427.374C358.528 428.1 362.23 429.842 365.86 432.492C369.453 435.178 372.575 438.699 375.152 443.018C377.729 447.374 379.617 452.347 380.851 458.009C382.049 463.635 382.085 469.806 380.996 476.448C379.326 486.612 374.608 495.541 366.84 503.2C359.072 510.859 349.562 516.775 338.274 520.95C326.985 525.124 314.499 527.338 300.851 527.592C287.166 527.882 273.627 525.741 260.233 521.204C246.839 516.666 234.099 509.443 222.084 499.57C210.07 489.661 199.979 476.702 191.848 460.623C186.295 449.334 182.556 437.465 180.632 424.978C178.708 412.492 178.636 400.114 180.487 387.809C182.338 375.504 186.113 363.635 191.848 352.165C197.583 340.695 205.242 330.422 214.861 321.384C224.48 312.31 236.023 304.796 249.525 298.771C263.028 292.745 278.455 288.934 295.841 287.264C313.228 285.594 328.582 286.284 341.867 289.333C355.188 292.382 366.441 296.919 375.697 302.909C384.953 308.934 392.249 315.903 397.621 323.852C402.993 331.802 406.441 339.932 408.038 348.244C409.599 356.557 409.381 364.579 407.348 372.237C405.316 379.896 401.541 386.43 395.987 391.802C390.434 397.174 384.481 401.13 378.092 403.744C371.704 406.321 365.424 407.846 359.217 408.317C353.011 408.789 347.203 408.281 341.758 406.793C336.314 405.305 331.667 403.199 327.892 400.404C324.117 397.646 321.431 394.415 319.834 390.713C318.274 387.011 318.31 383.127 319.98 379.061V379.17Z" fill="black" stroke="black" stroke-width="48.8571" stroke-linecap="round" stroke-linejoin="round"/>
<path d="M565.716 401.349C567.93 409.842 568.801 418.409 568.366 427.011C567.894 435.614 566.006 443.382 562.667 450.314C559.328 457.247 554.573 462.873 548.402 467.229C542.195 471.585 534.573 473.763 525.534 473.763C518.892 473.763 513.157 472.855 508.329 471.004C503.502 469.153 499.509 466.794 496.278 463.926C493.048 461.059 490.58 457.828 488.946 454.235C487.313 450.641 486.369 446.975 486.188 443.273C486.006 446.975 484.881 450.677 482.848 454.38C480.815 458.082 478.093 461.422 474.681 464.362C471.269 467.338 467.204 469.734 462.485 471.585C457.766 473.436 452.648 474.162 447.095 473.799C440.053 473.436 433.737 471.803 428.111 468.935C422.485 466.068 417.766 462.22 413.955 457.429C410.18 452.637 407.385 447.011 405.643 440.659C403.9 434.271 403.392 427.302 404.118 419.715C405.062 410.459 407.167 402.438 410.507 395.577C413.846 388.753 417.766 383.091 422.303 378.663C426.841 374.234 431.668 371.004 436.859 368.971C442.049 366.938 447.022 365.922 451.85 365.922C456.677 365.922 460.815 366.43 464.336 367.446C467.857 368.463 470.906 369.806 473.483 371.476C476.06 373.145 478.383 375.033 480.416 377.174C482.449 379.316 484.3 381.385 485.97 383.418C489.309 377.501 494.064 372.927 500.271 369.697C506.478 366.466 513.919 365.196 522.594 365.958C532.758 366.902 539.509 370.35 542.848 376.376C546.188 382.401 546.914 391.403 545.063 403.418C544.337 408.245 544.591 411.875 545.897 414.38C547.204 416.884 548.983 418.118 551.306 418.118C553.629 418.118 556.097 416.775 558.783 414.089C561.469 411.403 563.829 407.193 565.861 401.458L565.716 401.349ZM475.044 421.857C477.44 421.857 479.618 420.877 481.578 418.953C483.538 417.029 484.482 413.908 484.482 409.661C484.663 405.233 483.864 401.857 482.122 399.534C480.38 397.211 478.021 396.049 475.044 396.049C472.068 396.049 469.745 397.211 467.966 399.534C466.224 401.857 465.425 405.233 465.607 409.661C465.607 413.908 466.587 416.993 468.51 418.953C470.434 420.913 472.612 421.857 475.044 421.857Z" fill="black" stroke="black" stroke-width="48.8571" stroke-linecap="round" stroke-linejoin="round"/>
<path d="M592.322 407.447C592.685 408.935 595.371 409.516 600.38 409.262C605.389 408.972 611.669 408.391 619.255 407.447C622.957 407.084 627.168 406.975 631.886 407.157C636.605 407.338 641.142 408.137 645.462 409.516C649.818 410.895 653.592 413.073 656.823 416.013C660.053 418.99 662.122 422.946 663.066 427.955C663.974 432.964 663.683 438.264 662.086 443.89C660.525 449.516 657.658 454.743 653.484 459.571C649.309 464.398 643.828 468.391 636.968 471.622C630.144 474.852 621.905 476.558 612.286 476.74C601.941 476.921 593.52 475.614 587.059 472.856C580.598 470.097 575.552 466.576 571.959 462.329C568.365 458.083 566.042 453.509 565.026 448.609C564.009 443.709 563.973 439.244 564.881 435.142C565.788 429.952 567.095 427.157 568.764 426.685C570.434 426.213 573.12 426.721 576.823 428.209C579.581 429.335 582.775 430.351 586.405 431.258C589.999 432.166 594.935 432.638 601.251 432.638C604.409 432.638 607.567 432.529 610.834 432.347C614.064 432.166 617.077 431.767 619.835 431.113C622.594 430.46 625.062 429.625 627.168 428.609C629.273 427.592 630.725 426.249 631.451 424.58C632.358 422.547 630.797 421.712 626.732 422.075C622.667 422.438 616.024 423.454 606.768 425.124C599.908 426.431 593.628 426.649 587.893 425.814C582.158 424.979 577.258 423.418 573.193 421.095C569.127 418.772 565.97 415.687 563.755 411.803C561.541 407.919 560.597 403.563 560.997 398.772C561.36 393.037 562.848 387.737 565.425 382.837C568.002 377.937 571.487 373.69 575.806 370.097C580.162 366.503 585.244 363.708 591.051 361.784C596.859 359.861 603.102 358.881 609.781 358.881C623.102 358.881 633.846 362.039 642.086 368.318C650.326 374.598 655.444 383.019 657.476 393.545C658.384 399.462 657.839 403.237 655.807 404.906C653.774 406.576 651.269 406.467 648.329 404.616C645.171 402.946 640.707 401.785 634.863 401.131C629.055 400.478 622.993 400.333 616.714 400.696C614.137 400.877 611.342 401.131 608.402 401.385C605.462 401.676 602.703 402.075 600.235 402.619C597.73 403.164 595.697 403.817 594.137 404.58C592.576 405.306 591.959 406.249 592.322 407.338V407.447Z" fill="black" stroke="black" stroke-width="48.8571" stroke-linecap="round" stroke-linejoin="round"/>
<path d="M835.554 401.348C837.768 409.842 838.639 418.408 838.204 427.011C837.732 435.614 835.844 443.381 832.505 450.314C829.165 457.247 824.41 462.873 818.24 467.229C812.033 471.585 804.41 473.763 795.372 473.763C788.73 473.763 783.067 472.746 778.457 470.714C773.848 468.681 770.073 465.995 767.241 462.656C764.374 459.316 762.232 455.65 760.853 451.548C759.474 447.483 758.602 443.418 758.203 439.352C756.715 443.599 754.646 447.773 751.96 451.839C749.274 455.904 746.007 459.57 742.123 462.801C738.239 466.031 733.884 468.681 729.092 470.714C724.265 472.746 719.11 473.763 713.557 473.763C705.971 473.763 699.328 472.274 693.593 469.334C687.858 466.394 683.176 462.365 679.582 457.283C675.989 452.202 673.448 446.176 671.96 439.243C670.471 432.311 670.108 424.797 670.834 416.63C672.323 397.574 677.368 384.034 685.934 376.013C694.501 367.991 706.334 364.615 721.288 365.886C726.297 366.249 730.29 367.083 733.339 368.39C736.388 369.697 738.457 371.729 739.582 374.488C740.708 377.247 740.962 380.877 740.417 385.305C739.873 389.733 738.566 395.287 736.533 401.929C734.864 407.301 734.464 411.584 735.299 414.815C736.134 418.045 737.513 419.86 739.474 420.223C741.397 420.586 743.503 419.389 745.717 416.63C747.931 413.871 749.492 409.153 750.435 402.474C752.468 389.152 756.751 379.497 763.321 373.508C769.891 367.519 779.437 364.942 792.033 365.886C802.196 366.829 808.948 370.278 812.287 376.303C815.626 382.328 816.352 391.33 814.501 403.345C813.775 408.173 814.102 411.802 815.481 414.307C816.86 416.811 818.712 418.045 821.035 418.045C823.358 418.045 825.826 416.702 828.512 414.016C831.198 411.33 833.557 407.12 835.59 401.385L835.554 401.348Z" fill="black" stroke="black" stroke-width="48.8571" stroke-linecap="round" stroke-linejoin="round"/>
<path d="M993.087 401.349C995.301 409.842 996.172 418.409 995.736 427.011C995.264 435.614 993.377 443.382 990.038 450.314C986.698 457.247 981.943 462.873 975.773 467.229C969.566 471.585 961.943 473.763 952.905 473.763C946.262 473.763 940.527 472.855 935.7 471.004C930.872 469.153 926.879 466.794 923.649 463.926C920.418 461.059 917.95 457.828 916.317 454.235C914.683 450.641 913.74 446.975 913.558 443.273C913.377 446.975 912.251 450.677 910.219 454.38C908.186 458.082 905.464 461.422 902.052 464.362C898.64 467.338 894.574 469.734 889.856 471.585C885.137 473.436 880.019 474.162 874.465 473.799C867.424 473.436 861.108 471.803 855.482 468.935C849.855 466.068 845.137 462.22 841.325 457.429C837.55 452.637 834.756 447.011 833.013 440.659C831.271 434.271 830.763 427.302 831.489 419.715C832.432 410.459 834.538 402.438 837.877 395.577C841.217 388.753 845.137 383.091 849.674 378.663C854.211 374.234 859.039 371.004 864.229 368.971C869.42 366.938 874.393 365.922 879.22 365.922C884.048 365.922 888.186 366.43 891.707 367.446C895.228 368.463 898.277 369.806 900.854 371.476C903.431 373.145 905.754 375.033 907.787 377.174C909.819 379.316 911.671 381.385 913.34 383.418C916.68 377.501 921.435 372.927 927.642 369.697C933.849 366.466 941.29 365.196 949.965 365.958C960.128 366.902 966.88 370.35 970.219 376.376C973.558 382.401 974.284 391.403 972.433 403.418C971.707 408.245 971.961 411.875 973.268 414.38C974.575 416.884 976.353 418.118 978.676 418.118C980.999 418.118 983.468 416.775 986.154 414.089C988.84 411.403 991.199 407.193 993.232 401.458L993.087 401.349ZM902.415 421.857C904.81 421.857 906.988 420.877 908.948 418.953C910.908 417.029 911.852 413.908 911.852 409.661C912.034 405.233 911.235 401.857 909.493 399.534C907.75 397.211 905.391 396.049 902.415 396.049C899.438 396.049 897.115 397.211 895.337 399.534C893.594 401.857 892.796 405.233 892.977 409.661C892.977 413.908 893.957 416.993 895.881 418.953C897.805 420.913 899.983 421.857 902.415 421.857Z" fill="black" stroke="black" stroke-width="48.8571" stroke-linecap="round" stroke-linejoin="round"/>
<path d="M1080.42 401.349C1082.63 409.843 1083.5 418.409 1083.07 427.012C1082.6 435.614 1080.71 443.382 1077.37 450.315C1074.03 457.248 1069.28 462.874 1063.07 467.23C1056.86 471.586 1049.24 473.763 1040.2 473.763C1033.34 473.763 1027.24 472.529 1021.91 470.025C1016.54 467.52 1011.93 463.382 1008.04 457.538C1004.16 451.731 1000.93 444.036 998.35 434.525C995.773 425.015 993.922 413.328 992.796 399.425C990.219 365.959 993.159 341.204 1001.65 325.088C1010.15 309.008 1024.3 300.949 1044.09 300.949C1053.16 300.949 1060.02 302.365 1064.74 305.233C1069.46 308.1 1072.58 311.948 1074.18 316.739C1075.74 321.567 1076.14 327.157 1075.3 333.509C1074.47 339.897 1073.12 346.576 1071.27 353.618C1069.42 360.659 1067.39 367.774 1065.17 374.961C1062.96 382.148 1061.18 389.117 1059.91 395.759C1058.6 402.22 1058.57 407.23 1059.77 410.75C1060.96 414.271 1062.78 416.304 1065.17 416.848C1067.57 417.393 1070.22 416.377 1073.09 413.799C1075.95 411.222 1078.39 407.048 1080.42 401.313V401.349Z" fill="black" stroke="black" stroke-width="48.8571" stroke-linecap="round" stroke-linejoin="round"/>
<path d="M327.239 368.282C330.76 359.207 331.704 351.657 330.143 345.523C328.582 339.425 325.279 334.742 320.306 331.512C315.297 328.281 309.127 326.43 301.722 325.958C294.317 325.486 286.695 326.43 278.854 328.717C270.978 331.04 263.319 334.742 255.841 339.824C248.364 344.906 242.121 351.33 237.112 359.098C232.103 366.866 228.691 376.013 226.84 386.539C224.988 397.066 225.823 408.899 229.344 422.039C231.74 430.932 235.733 438.046 241.286 443.382C246.84 448.754 253.155 452.638 260.27 455.033C267.384 457.429 275.043 458.409 283.283 457.937C291.522 457.465 299.363 455.905 306.84 453.218C314.317 450.532 321.214 446.903 327.493 442.257C333.773 437.647 338.673 432.275 342.194 426.177C344.59 422.111 347.566 419.28 351.051 417.719C354.572 416.158 358.201 415.723 362.013 416.485C365.788 417.211 369.49 418.953 373.12 421.603C376.713 424.289 379.835 427.81 382.412 432.129C384.989 436.485 386.877 441.458 388.111 447.12C389.309 452.747 389.345 458.917 388.256 465.56C386.586 475.723 381.868 484.652 374.1 492.311C366.332 499.97 356.822 505.887 345.533 510.061C334.245 514.235 321.758 516.449 308.11 516.703C294.426 516.994 280.887 514.852 267.493 510.315C254.099 505.778 241.359 498.554 229.344 488.681C217.33 478.772 207.239 465.814 199.108 449.734C193.554 438.445 189.816 426.576 187.892 414.089C185.968 401.603 185.896 389.225 187.747 376.92C189.598 364.615 193.373 352.746 199.108 341.276C204.843 329.806 212.502 319.534 222.121 310.495C231.74 301.421 243.282 293.907 256.785 287.882C270.288 281.856 285.715 278.045 303.101 276.375C320.488 274.706 335.842 275.395 349.127 278.444C362.448 281.493 373.701 286.031 382.956 292.02C392.212 298.045 399.508 305.014 404.88 312.964C410.252 320.913 413.701 329.044 415.298 337.356C416.859 345.668 416.641 353.69 414.608 361.349C412.575 369.008 408.801 375.541 403.247 380.913C397.693 386.285 391.741 390.242 385.352 392.855C378.964 395.432 372.684 396.957 366.477 397.429C360.27 397.901 354.463 397.392 349.018 395.904C343.573 394.416 338.927 392.311 335.152 389.516C331.377 386.757 328.691 383.527 327.094 379.824C325.533 376.122 325.57 372.238 327.239 368.173V368.282Z" fill="white"/>
<path d="M572.976 390.46C575.19 398.954 576.061 407.52 575.626 416.123C575.154 424.725 573.266 432.493 569.927 439.426C566.587 446.359 561.832 451.985 555.662 456.341C549.455 460.696 541.832 462.874 532.794 462.874C526.152 462.874 520.417 461.967 515.589 460.116C510.761 458.264 506.769 455.905 503.538 453.037C500.308 450.17 497.839 446.939 496.206 443.346C494.573 439.752 493.629 436.086 493.447 432.384C493.266 436.086 492.141 439.789 490.108 443.491C488.075 447.193 485.353 450.533 481.941 453.473C478.529 456.449 474.464 458.845 469.745 460.696C465.026 462.547 459.908 463.273 454.355 462.91C447.313 462.547 440.997 460.914 435.371 458.047C429.745 455.179 425.026 451.331 421.215 446.54C417.44 441.749 414.645 436.123 412.902 429.771C411.16 423.382 410.652 416.413 411.378 408.827C412.322 399.571 414.427 391.549 417.766 384.689C421.106 377.865 425.026 372.202 429.563 367.774C434.1 363.346 438.928 360.115 444.119 358.082C449.309 356.05 454.282 355.033 459.11 355.033C463.937 355.033 468.075 355.541 471.596 356.558C475.117 357.574 478.166 358.917 480.743 360.587C483.32 362.257 485.643 364.144 487.676 366.286C489.709 368.427 491.56 370.496 493.229 372.529C496.569 366.612 501.324 362.039 507.531 358.808C513.738 355.578 521.179 354.307 529.854 355.07C540.017 356.013 546.769 359.462 550.108 365.487C553.448 371.513 554.174 380.514 552.322 392.529C551.596 397.357 551.85 400.986 553.157 403.491C554.464 405.995 556.243 407.23 558.566 407.23C560.889 407.23 563.357 405.887 566.043 403.201C568.729 400.514 571.088 396.304 573.121 390.569L572.976 390.46ZM482.304 410.968C484.7 410.968 486.877 409.988 488.837 408.064C490.798 406.141 491.741 403.019 491.741 398.772C491.923 394.344 491.124 390.968 489.382 388.645C487.64 386.322 485.28 385.161 482.304 385.161C479.327 385.161 477.004 386.322 475.226 388.645C473.483 390.968 472.685 394.344 472.866 398.772C472.866 403.019 473.846 406.104 475.77 408.064C477.694 410.025 479.872 410.968 482.304 410.968Z" fill="white"/>
<path d="M599.582 396.557C599.945 398.045 602.631 398.626 607.64 398.372C612.649 398.081 618.929 397.5 626.515 396.557C630.218 396.194 634.428 396.085 639.147 396.266C643.866 396.448 648.403 397.246 652.722 398.626C657.078 400.005 660.853 402.183 664.083 405.123C667.314 408.099 669.383 412.056 670.327 417.065C671.234 422.074 670.944 427.374 669.347 433C667.786 438.626 664.918 443.853 660.744 448.68C656.57 453.508 651.089 457.501 644.229 460.731C637.405 463.962 629.165 465.668 619.546 465.849C609.201 466.031 600.78 464.724 594.319 461.965C587.858 459.207 582.813 455.686 579.219 451.439C575.626 447.192 573.303 442.619 572.286 437.718C571.27 432.818 571.234 428.354 572.141 424.252C573.049 419.061 574.355 416.266 576.025 415.795C577.695 415.323 580.381 415.831 584.083 417.319C586.842 418.444 590.036 419.461 593.666 420.368C597.259 421.276 602.196 421.747 608.512 421.747C611.669 421.747 614.827 421.639 618.094 421.457C621.325 421.276 624.337 420.876 627.096 420.223C629.855 419.57 632.323 418.735 634.428 417.718C636.533 416.702 637.985 415.359 638.711 413.689C639.619 411.657 638.058 410.822 633.993 411.185C629.927 411.548 623.285 412.564 614.029 414.234C607.169 415.54 600.889 415.758 595.154 414.923C589.419 414.089 584.519 412.528 580.453 410.205C576.388 407.882 573.23 404.796 571.016 400.912C568.802 397.029 567.858 392.673 568.257 387.882C568.62 382.146 570.108 376.847 572.686 371.947C575.263 367.047 578.747 362.8 583.067 359.206C587.422 355.613 592.504 352.818 598.312 350.894C604.119 348.97 610.363 347.99 617.042 347.99C630.363 347.99 641.107 351.148 649.347 357.428C657.586 363.707 662.704 372.128 664.737 382.655C665.644 388.571 665.1 392.346 663.067 394.016C661.034 395.686 658.53 395.577 655.59 393.725C652.432 392.056 647.967 390.894 642.123 390.241C636.316 389.588 630.254 389.442 623.974 389.805C621.397 389.987 618.602 390.241 615.662 390.495C612.722 390.785 609.963 391.185 607.495 391.729C604.991 392.274 602.958 392.927 601.397 393.689C599.836 394.415 599.219 395.359 599.582 396.448V396.557Z" fill="white"/>
<path d="M842.814 390.46C845.028 398.954 845.899 407.52 845.464 416.123C844.992 424.725 843.104 432.493 839.765 439.426C836.425 446.359 831.67 451.985 825.5 456.341C819.293 460.696 811.67 462.874 802.632 462.874C795.99 462.874 790.327 461.858 785.717 459.825C781.108 457.793 777.333 455.106 774.501 451.767C771.634 448.428 769.492 444.762 768.113 440.66C766.734 436.595 765.862 432.529 765.463 428.464C763.975 432.711 761.906 436.885 759.22 440.95C756.534 445.016 753.267 448.682 749.383 451.912C745.499 455.143 741.144 457.793 736.352 459.825C731.525 461.858 726.37 462.874 720.817 462.874C713.231 462.874 706.588 461.386 700.853 458.446C695.118 455.506 690.436 451.477 686.842 446.395C683.249 441.313 680.708 435.288 679.22 428.355C677.731 421.422 677.368 413.908 678.094 405.741C679.583 386.685 684.628 373.146 693.194 365.124C701.761 357.102 713.594 353.727 728.548 354.997C733.557 355.36 737.55 356.195 740.599 357.502C743.648 358.808 745.717 360.841 746.842 363.6C747.968 366.358 748.222 369.988 747.677 374.416C747.133 378.845 745.826 384.398 743.793 391.041C742.124 396.413 741.724 400.696 742.559 403.927C743.394 407.157 744.773 408.972 746.734 409.335C748.657 409.698 750.763 408.5 752.977 405.741C755.191 402.983 756.752 398.264 757.695 391.585C759.728 378.264 764.011 368.609 770.581 362.62C777.151 356.631 786.697 354.053 799.293 354.997C809.456 355.941 816.208 359.389 819.547 365.415C822.886 371.44 823.612 380.442 821.761 392.456C821.035 397.284 821.362 400.914 822.741 403.418C824.12 405.923 825.972 407.157 828.295 407.157C830.618 407.157 833.086 405.814 835.772 403.128C838.458 400.442 840.817 396.231 842.85 390.496L842.814 390.46Z" fill="white"/>
<path d="M1000.35 390.46C1002.56 398.954 1003.43 407.52 1003 416.123C1002.52 424.725 1000.64 432.493 997.297 439.426C993.958 446.359 989.203 451.985 983.032 456.341C976.825 460.696 969.203 462.874 960.165 462.874C953.522 462.874 947.787 461.967 942.96 460.116C938.132 458.264 934.139 455.905 930.909 453.037C927.678 450.17 925.21 446.939 923.576 443.346C921.943 439.752 920.999 436.086 920.818 432.384C920.636 436.086 919.511 439.789 917.478 443.491C915.446 447.193 912.723 450.533 909.311 453.473C905.899 456.449 901.834 458.845 897.115 460.696C892.397 462.547 887.279 463.273 881.725 462.91C874.683 462.547 868.368 460.914 862.741 458.047C857.115 455.179 852.396 451.331 848.585 446.54C844.81 441.749 842.015 436.123 840.273 429.771C838.531 423.382 838.023 416.413 838.748 408.827C839.692 399.571 841.797 391.549 845.137 384.689C848.476 377.865 852.396 372.202 856.934 367.774C861.471 363.346 866.299 360.115 871.489 358.082C876.68 356.05 881.653 355.033 886.48 355.033C891.308 355.033 895.446 355.541 898.967 356.558C902.487 357.574 905.536 358.917 908.114 360.587C910.691 362.257 913.014 364.144 915.046 366.286C917.079 368.427 918.93 370.496 920.6 372.529C923.939 366.612 928.694 362.039 934.901 358.808C941.108 355.578 948.549 354.307 957.225 355.07C967.388 356.013 974.139 359.462 977.479 365.487C980.818 371.513 981.544 380.514 979.693 392.529C978.967 397.357 979.221 400.986 980.528 403.491C981.834 405.995 983.613 407.23 985.936 407.23C988.259 407.23 990.727 405.887 993.414 403.201C996.1 400.514 998.459 396.304 1000.49 390.569L1000.35 390.46ZM909.674 410.968C912.07 410.968 914.248 409.988 916.208 408.064C918.168 406.141 919.112 403.019 919.112 398.772C919.293 394.344 918.495 390.968 916.752 388.645C915.01 386.322 912.651 385.161 909.674 385.161C906.698 385.161 904.375 386.322 902.596 388.645C900.854 390.968 900.055 394.344 900.237 398.772C900.237 403.019 901.217 406.104 903.141 408.064C905.065 410.025 907.242 410.968 909.674 410.968Z" fill="white"/>
<path d="M1087.68 390.461C1089.89 398.954 1090.76 407.521 1090.33 416.123C1089.86 424.726 1087.97 432.493 1084.63 439.426C1081.29 446.359 1076.54 451.985 1070.33 456.341C1064.12 460.697 1056.5 462.875 1047.46 462.875C1040.6 462.875 1034.5 461.641 1029.17 459.136C1023.8 456.632 1019.19 452.494 1015.3 446.65C1011.42 440.842 1008.19 433.147 1005.61 423.637C1003.03 414.127 1001.18 402.439 1000.06 388.537C997.479 355.07 1000.42 330.315 1008.91 314.199C1017.41 298.119 1031.56 290.061 1051.35 290.061C1060.42 290.061 1067.28 291.476 1072 294.344C1076.72 297.211 1079.84 301.059 1081.44 305.85C1083 310.678 1083.4 316.268 1082.56 322.62C1081.73 329.008 1080.38 335.687 1078.53 342.729C1076.68 349.771 1074.65 356.885 1072.43 364.072C1070.22 371.259 1068.44 378.228 1067.17 384.871C1065.86 391.332 1065.83 396.341 1067.03 399.862C1068.22 403.383 1070.04 405.415 1072.43 405.96C1074.83 406.504 1077.48 405.488 1080.35 402.911C1083.21 400.334 1085.65 396.159 1087.68 390.424V390.461Z" fill="white"/>
<path d="M452.974 157.681C461.214 155.758 469.562 154.015 478.056 152.491C486.55 150.93 494.753 149.95 502.666 149.514C510.579 149.079 518.02 149.369 525.062 150.386C532.067 151.402 538.274 153.543 543.683 156.738C548.329 159.569 551.487 162.799 553.229 166.465C554.971 170.132 555.77 173.725 555.625 177.282C555.479 180.803 554.681 184.142 553.229 187.228C551.741 190.313 549.998 192.672 548.002 194.27C546.006 195.867 544.046 196.52 542.122 196.193C540.198 195.867 538.782 194.088 537.875 190.894C535.806 183.961 531.414 178.407 524.662 174.306C517.911 170.204 508.873 168.534 497.548 169.297C500.779 170.821 502.956 173.108 504.118 176.048C505.279 179.024 505.715 182.473 505.461 186.466C505.207 190.458 504.445 194.85 503.138 199.678C501.867 204.506 500.307 209.66 498.492 215.105C496.677 220.586 494.862 226.248 493.011 232.165C491.16 238.081 489.49 243.998 488.074 249.914C487.421 252.745 486.804 255.976 486.151 259.569C485.497 263.163 484.953 266.902 484.517 270.749C484.082 274.597 483.755 278.372 483.537 282.038C483.319 285.704 483.392 289.08 483.646 292.165C484.154 297.428 483.646 302.002 482.013 305.849C480.415 309.697 477.149 311.911 472.285 312.419C470.216 312.673 467.929 312.346 465.424 311.439C462.92 310.532 460.415 308.934 457.911 306.611C455.406 304.288 453.083 301.094 450.978 296.956C448.873 292.854 447.167 287.664 445.969 281.421C444.735 275.177 444.154 267.736 444.227 259.025C444.299 250.35 445.207 240.223 447.021 228.644C448.691 217.827 450.433 208.825 452.248 201.529C454.063 194.27 455.987 188.244 458.02 183.489C451.958 186.829 445.86 190.204 439.689 193.616C433.519 197.028 427.239 199.859 420.887 202.11C414.535 204.36 408.038 205.74 401.395 206.248C394.753 206.756 388.001 205.74 381.032 203.163C375.115 200.985 370.651 197.899 367.638 193.907C364.625 189.914 362.702 185.667 361.867 181.166C361.032 176.665 361.104 172.201 362.048 167.772C362.992 163.344 364.48 159.605 366.477 156.592C368.473 153.58 370.796 151.474 373.409 150.313C376.059 149.151 378.6 149.623 381.032 151.656C384.771 154.741 388.473 157.246 392.212 159.17C395.95 161.093 400.415 162.364 405.606 162.945C410.796 163.525 417.185 163.38 424.698 162.545C432.212 161.71 441.649 160.077 452.974 157.609V157.681Z" fill="black" stroke="black" stroke-width="48.8571" stroke-linecap="round" stroke-linejoin="round"/>
<path d="M520.852 220.402C520.199 208.061 520.38 197.898 521.324 189.912C522.304 181.927 524.119 175.574 526.805 170.819C529.491 166.064 533.193 162.761 537.912 160.874C542.594 159.023 548.366 158.079 555.19 158.079C562.921 158.079 568.366 159.676 571.596 162.906C574.827 166.137 576.533 170.384 576.714 175.647C576.896 180.91 575.952 186.863 573.811 193.506C571.705 200.148 569.201 206.791 566.37 213.469C568.947 210.892 571.742 208.714 574.754 206.899C577.767 205.085 581.034 203.887 584.482 203.233C588.983 202.471 593.121 202.544 596.932 203.415C600.707 204.322 603.938 205.919 606.588 208.242C609.237 210.566 611.234 213.469 612.577 217.027C613.92 220.584 614.464 224.649 614.21 229.295C613.956 232.635 614.319 235.175 615.263 236.918C616.243 238.66 617.477 239.531 619.038 239.531C620.598 239.531 622.232 238.587 623.974 236.736C625.716 234.885 627.277 231.945 628.693 227.952C630.217 233.869 630.834 239.822 630.508 245.811C630.181 251.8 628.874 257.208 626.551 262C624.228 266.791 620.925 270.747 616.606 273.76C612.286 276.773 606.987 278.297 600.707 278.297C594.428 278.297 589.382 277.499 585.644 275.902C581.905 274.304 579.074 272.199 577.15 269.622C575.226 267.045 573.992 264.177 573.484 261.019C572.976 257.862 572.903 254.667 573.302 251.473C573.557 248.787 573.23 246.718 572.322 245.303C571.415 243.887 570.399 243.234 569.237 243.379C568.076 243.524 566.987 244.359 565.97 245.992C564.954 247.589 564.409 250.058 564.409 253.433C564.409 253.687 564.409 253.978 564.518 254.304C564.591 254.631 564.627 254.921 564.627 255.176C564.881 258.515 565.027 261.6 565.099 264.431C565.172 267.263 564.918 269.695 564.337 271.764C563.756 273.833 562.74 275.43 561.252 276.591C559.763 277.753 557.622 278.334 554.791 278.334C550.943 278.334 547.095 277.68 543.32 276.41C539.509 275.139 536.097 272.453 533.012 268.388C529.927 264.323 527.277 258.515 525.099 250.929C522.921 243.342 521.505 233.179 520.852 220.439V220.402Z" fill="black" stroke="black" stroke-width="48.8571" stroke-linecap="round" stroke-linejoin="round"/>
<path d="M693.738 214.596C695.553 217.282 696.315 220.367 696.061 223.851C695.807 227.336 694.682 230.567 692.686 233.579C690.689 236.592 687.894 239.097 684.301 241.093C680.707 243.089 676.388 243.96 671.379 243.706C673.194 245.122 675.698 245.812 678.892 245.812C684.047 245.812 688.911 244.251 693.557 241.093C698.203 237.935 701.47 233.543 703.393 227.881C705.063 233.144 705.499 239.314 704.736 246.392C703.575 256.556 699.51 264.396 692.468 269.913C685.462 275.431 676.678 278.226 666.152 278.226C655.626 278.226 646.841 275.467 639.8 269.913C632.794 264.396 628.693 256.52 627.531 246.392C626.769 239.823 627.095 233.87 628.511 228.534C629.927 223.198 632.286 218.625 635.662 214.85C639.001 211.075 643.248 208.098 648.402 205.957C653.557 203.851 659.473 202.762 666.152 202.762C672.468 202.762 677.985 203.742 682.74 205.666C687.495 207.59 691.161 210.566 693.738 214.523V214.596ZM680.235 230.421C680.344 229.405 680.127 228.534 679.546 227.808C678.965 227.118 678.203 226.574 677.223 226.283C676.243 225.957 675.263 225.884 674.246 226.102C673.23 226.283 672.25 226.792 671.343 227.554C670.326 228.207 669.528 229.151 669.019 230.458C668.511 231.728 668.112 233.144 667.858 234.705C670.798 235.358 673.557 235.394 676.061 234.813C678.566 234.233 679.945 232.781 680.199 230.458L680.235 230.421Z" fill="black" stroke="black" stroke-width="48.8571" stroke-linecap="round" stroke-linejoin="round"/>
<path d="M460.235 146.791C468.474 144.868 476.823 143.125 485.316 141.601C493.81 140.04 502.013 139.06 509.926 138.624C517.839 138.189 525.28 138.479 532.322 139.496C539.327 140.512 545.534 142.654 550.943 145.848C555.589 148.679 558.747 151.909 560.489 155.576C562.231 159.242 563.03 162.835 562.885 166.392C562.74 169.913 561.941 173.253 560.489 176.338C559.001 179.423 557.259 181.783 555.262 183.38C553.266 184.977 551.306 185.63 549.382 185.303C547.458 184.977 546.043 183.198 545.135 180.004C543.066 173.071 538.674 167.518 531.923 163.416C525.171 159.314 516.133 157.645 504.808 158.407C508.039 159.931 510.217 162.218 511.378 165.158C512.54 168.135 512.975 171.583 512.721 175.576C512.467 179.568 511.705 183.96 510.398 188.788C509.128 193.616 507.567 198.77 505.752 204.215C503.937 209.696 502.122 215.358 500.271 221.275C498.42 227.191 496.75 233.108 495.335 239.024C494.681 241.855 494.064 245.086 493.411 248.679C492.757 252.273 492.213 256.012 491.777 259.859C491.342 263.707 491.015 267.482 490.797 271.148C490.58 274.814 490.652 278.19 490.906 281.275C491.414 286.538 490.906 291.112 489.273 294.959C487.676 298.807 484.409 301.021 479.545 301.529C477.476 301.783 475.189 301.457 472.685 300.549C470.18 299.642 467.676 298.045 465.171 295.721C462.667 293.398 460.343 290.204 458.238 286.066C456.133 281.965 454.427 276.774 453.229 270.531C451.995 264.288 451.414 256.846 451.487 248.135C451.559 239.46 452.467 229.333 454.282 217.754C455.951 206.937 457.694 197.935 459.509 190.639C461.323 183.38 463.247 177.354 465.28 172.599C459.218 175.939 453.12 179.314 446.95 182.726C440.779 186.138 434.499 188.97 428.147 191.22C421.795 193.47 415.298 194.85 408.655 195.358C402.013 195.866 395.261 194.85 388.292 192.273C382.376 190.095 377.911 187.009 374.898 183.017C371.886 179.024 369.962 174.777 369.127 170.276C368.292 165.775 368.365 161.311 369.308 156.882C370.252 152.454 371.74 148.715 373.737 145.703C375.733 142.69 378.056 140.585 380.67 139.423C383.319 138.261 385.86 138.733 388.292 140.766C392.031 143.851 395.733 146.356 399.472 148.28C403.211 150.203 407.675 151.474 412.866 152.055C418.056 152.635 424.445 152.49 431.959 151.655C439.472 150.821 448.91 149.187 460.235 146.719V146.791Z" fill="white"/>
<path d="M528.111 209.514C527.457 197.173 527.639 187.009 528.582 179.024C529.563 171.038 531.377 164.686 534.063 159.931C536.75 155.176 540.452 151.873 545.171 149.985C549.853 148.134 555.624 147.19 562.448 147.19C570.18 147.19 575.624 148.788 578.855 152.018C582.085 155.249 583.791 159.495 583.973 164.759C584.154 170.022 583.211 175.975 581.069 182.617C578.964 189.26 576.459 195.902 573.628 202.581C576.205 200.004 579 197.826 582.013 196.011C585.026 194.196 588.292 192.998 591.741 192.345C596.242 191.583 600.38 191.655 604.191 192.526C607.966 193.434 611.196 195.031 613.846 197.354C616.496 199.677 618.492 202.581 619.835 206.138C621.178 209.695 621.723 213.761 621.469 218.407C621.215 221.746 621.578 224.287 622.521 226.029C623.501 227.772 624.735 228.643 626.296 228.643C627.857 228.643 629.49 227.699 631.233 225.848C632.975 223.997 634.536 221.057 635.951 217.064C637.476 222.98 638.093 228.933 637.766 234.922C637.44 240.911 636.133 246.32 633.81 251.111C631.487 255.902 628.184 259.859 623.864 262.872C619.545 265.884 614.245 267.409 607.966 267.409C601.686 267.409 596.641 266.61 592.902 265.013C589.164 263.416 586.332 261.311 584.409 258.734C582.485 256.157 581.251 253.289 580.742 250.131C580.234 246.973 580.162 243.779 580.561 240.585C580.815 237.899 580.488 235.83 579.581 234.414C578.673 232.998 577.657 232.345 576.496 232.49C575.334 232.636 574.245 233.47 573.229 235.104C572.212 236.701 571.668 239.169 571.668 242.545C571.668 242.799 571.668 243.089 571.777 243.416C571.85 243.743 571.886 244.033 571.886 244.287C572.14 247.627 572.285 250.712 572.358 253.543C572.43 256.374 572.176 258.806 571.595 260.875C571.015 262.944 569.998 264.541 568.51 265.703C567.022 266.864 564.88 267.445 562.049 267.445C558.201 267.445 554.354 266.792 550.579 265.521C546.768 264.251 543.356 261.565 540.27 257.5C537.185 253.434 534.535 247.627 532.357 240.04C530.18 232.454 528.764 222.291 528.111 209.55V209.514Z" fill="white"/>
<path d="M700.998 203.706C702.812 206.392 703.575 209.477 703.321 212.962C703.067 216.446 701.941 219.677 699.945 222.689C697.949 225.702 695.154 228.207 691.56 230.203C687.967 232.199 683.647 233.071 678.638 232.817C680.453 234.232 682.958 234.922 686.152 234.922C691.306 234.922 696.17 233.361 700.816 230.203C705.462 227.045 708.729 222.653 710.653 216.991C712.322 222.254 712.758 228.424 711.996 235.503C710.834 245.666 706.769 253.506 699.727 259.024C692.722 264.541 683.938 267.336 673.411 267.336C662.885 267.336 654.101 264.577 647.059 259.024C640.053 253.506 635.952 245.63 634.79 235.503C634.028 228.933 634.355 222.98 635.77 217.644C637.186 212.308 639.545 207.735 642.921 203.96C646.26 200.185 650.507 197.208 655.662 195.067C660.816 192.961 666.732 191.873 673.411 191.873C679.727 191.873 685.244 192.853 689.999 194.776C694.754 196.7 698.42 199.677 700.998 203.633V203.706ZM687.495 219.532C687.604 218.515 687.386 217.644 686.805 216.918C686.224 216.228 685.462 215.684 684.482 215.394C683.502 215.067 682.522 214.994 681.506 215.212C680.489 215.394 679.509 215.902 678.602 216.664C677.585 217.317 676.787 218.261 676.279 219.568C675.771 220.838 675.371 222.254 675.117 223.815C678.057 224.468 680.816 224.504 683.321 223.924C685.825 223.343 687.204 221.891 687.458 219.568L687.495 219.532Z" fill="white"/>
</svg>
