<svg width="280" height="229" viewBox="0 0 280 229" fill="none" xmlns="http://www.w3.org/2000/svg">
<path d="M111.257 38.7286C113.281 38.2561 115.331 37.8282 117.417 37.4538C119.504 37.0704 121.518 36.8297 123.462 36.7227C125.405 36.6157 127.233 36.687 128.963 36.9367C130.683 37.1863 132.208 37.7123 133.536 38.4968C134.677 39.1922 135.453 39.9857 135.881 40.8861C136.309 41.7866 136.505 42.6692 136.469 43.5429C136.434 44.4077 136.238 45.2279 135.881 45.9857C135.515 46.7434 135.087 47.3229 134.597 47.7152C134.107 48.1075 133.625 48.268 133.153 48.1877C132.68 48.1075 132.333 47.6706 132.11 46.8861C131.602 45.1833 130.523 43.8192 128.865 42.8118C127.206 41.8044 124.986 41.3943 122.205 41.5815C122.998 41.956 123.533 42.5176 123.819 43.2398C124.104 43.9708 124.211 44.8178 124.148 45.7984C124.086 46.7791 123.899 47.8579 123.578 49.0436C123.266 50.2293 122.882 51.4953 122.437 52.8326C121.991 54.1788 121.545 55.5696 121.09 57.0227C120.636 58.4759 120.226 59.9291 119.878 61.3823C119.718 62.0777 119.566 62.8711 119.406 63.7538C119.245 64.6364 119.111 65.5546 119.004 66.4997C118.897 67.4447 118.817 68.3719 118.764 69.2723C118.71 70.1727 118.728 71.0019 118.79 71.7597C118.915 73.0524 118.79 74.1757 118.389 75.1207C117.997 76.0657 117.195 76.6096 116 76.7344C115.492 76.7968 114.93 76.7165 114.315 76.4937C113.7 76.2708 113.085 75.8785 112.469 75.3079C111.854 74.7374 111.284 73.9528 110.767 72.9365C110.25 71.929 109.831 70.6542 109.536 69.1207C109.233 67.5873 109.091 65.7597 109.108 63.62C109.126 61.4893 109.349 59.0019 109.795 56.158C110.205 53.5012 110.633 51.2902 111.079 49.4983C111.524 47.7152 111.997 46.2353 112.496 45.0674C111.007 45.8876 109.51 46.7167 107.994 47.5547C106.478 48.3928 104.936 49.0882 103.376 49.6409C101.816 50.1937 100.22 50.5324 98.5884 50.6572C96.9569 50.7821 95.2987 50.5324 93.5869 49.8994C92.1337 49.3645 91.0372 48.6067 90.2972 47.6261C89.5572 46.6454 89.0847 45.6023 88.8797 44.4968C88.6746 43.3913 88.6924 42.2947 88.9242 41.2071C89.156 40.1194 89.5216 39.2011 90.0119 38.4612C90.5022 37.7212 91.0728 37.2041 91.7147 36.9188C92.3655 36.6335 92.9896 36.7494 93.5869 37.2487C94.5052 38.0065 95.4146 38.6217 96.3328 39.0942C97.2511 39.5667 98.3477 39.8787 99.6226 40.0213C100.897 40.164 102.467 40.1283 104.312 39.9233C106.157 39.7182 108.475 39.317 111.257 38.7108V38.7286Z" fill="white" stroke="white" stroke-width="12" stroke-linecap="round" stroke-linejoin="round"/>
<path d="M127.929 54.1342C127.768 51.103 127.813 48.6067 128.044 46.6453C128.285 44.684 128.731 43.1238 129.391 41.9559C130.05 40.788 130.96 39.9767 132.119 39.5131C133.269 39.0585 134.686 38.8267 136.362 38.8267C138.261 38.8267 139.599 39.2189 140.392 40.0124C141.185 40.8058 141.605 41.8489 141.649 43.1416C141.694 44.4344 141.462 45.8965 140.936 47.5279C140.419 49.1594 139.804 50.7909 139.108 52.4313C139.741 51.7984 140.428 51.2634 141.168 50.8177C141.908 50.3719 142.71 50.0777 143.557 49.9172C144.662 49.73 145.679 49.7478 146.615 49.9618C147.542 50.1847 148.336 50.577 148.986 51.1475C149.637 51.7181 150.127 52.4313 150.457 53.305C150.787 54.1787 150.921 55.1772 150.859 56.3184C150.796 57.1386 150.885 57.7627 151.117 58.1906C151.358 58.6185 151.661 58.8325 152.044 58.8325C152.428 58.8325 152.829 58.6007 153.257 58.146C153.685 57.6913 154.068 56.9692 154.416 55.9885C154.79 57.4417 154.942 58.9038 154.861 60.3748C154.781 61.8458 154.46 63.1742 153.89 64.351C153.319 65.5278 152.508 66.4996 151.447 67.2396C150.386 67.9795 149.084 68.354 147.542 68.354C146 68.354 144.761 68.1578 143.842 67.7656C142.924 67.3733 142.229 66.8562 141.756 66.2232C141.284 65.5903 140.98 64.8859 140.856 64.1103C140.731 63.3347 140.713 62.5502 140.811 61.7656C140.873 61.1059 140.793 60.5977 140.57 60.25C140.347 59.9023 140.098 59.7419 139.813 59.7775C139.527 59.8132 139.26 60.0182 139.01 60.4194C138.761 60.8117 138.627 61.4179 138.627 62.247C138.627 62.3094 138.627 62.3808 138.654 62.461C138.671 62.5412 138.68 62.6126 138.68 62.675C138.743 63.4952 138.778 64.253 138.796 64.9484C138.814 65.6437 138.752 66.2411 138.609 66.7492C138.466 67.2574 138.217 67.6497 137.851 67.935C137.486 68.2203 136.96 68.3629 136.264 68.3629C135.319 68.3629 134.374 68.2024 133.447 67.8904C132.511 67.5784 131.673 66.9186 130.915 65.9201C130.157 64.9216 129.507 63.4952 128.972 61.6319C128.437 59.7686 128.089 57.2723 127.929 54.1431V54.1342Z" fill="white" stroke="white" stroke-width="12" stroke-linecap="round" stroke-linejoin="round"/>
<path d="M170.392 52.7078C170.838 53.3675 171.025 54.1253 170.962 54.9812C170.9 55.837 170.624 56.6305 170.133 57.3704C169.643 58.1104 168.957 58.7256 168.074 59.2159C167.191 59.7062 166.13 59.9202 164.9 59.8578C165.346 60.2055 165.961 60.3749 166.746 60.3749C168.012 60.3749 169.206 59.9915 170.347 59.2159C171.488 58.4403 172.291 57.3615 172.763 55.9708C173.173 57.2635 173.28 58.7791 173.093 60.5175C172.808 63.0138 171.809 64.9395 170.08 66.2946C168.359 67.6497 166.202 68.3362 163.616 68.3362C161.031 68.3362 158.873 67.6586 157.144 66.2946C155.423 64.9395 154.416 63.0049 154.13 60.5175C153.943 58.9039 154.023 57.4418 154.371 56.1312C154.719 54.8207 155.298 53.6974 156.127 52.7702C156.948 51.843 157.991 51.1119 159.257 50.5859C160.523 50.0689 161.976 49.8014 163.616 49.8014C165.168 49.8014 166.523 50.0421 167.691 50.5146C168.858 50.9871 169.759 51.7182 170.392 52.6899V52.7078ZM167.075 56.5948C167.102 56.3452 167.049 56.1312 166.906 55.9529C166.763 55.7835 166.576 55.6498 166.335 55.5785C166.095 55.4982 165.854 55.4804 165.604 55.5339C165.355 55.5785 165.114 55.7033 164.891 55.8905C164.642 56.051 164.445 56.2828 164.321 56.6037C164.196 56.9158 164.098 57.2635 164.035 57.6468C164.757 57.8073 165.435 57.8162 166.05 57.6736C166.665 57.5309 167.004 57.1743 167.066 56.6037L167.075 56.5948Z" fill="white" stroke="white" stroke-width="12" stroke-linecap="round" stroke-linejoin="round"/>
<path d="M93.7532 103.642C94.6256 104.484 95.3763 105.448 96.0071 106.506L96.0155 106.52C96.9269 108.06 97.5488 109.744 97.9391 111.535L97.9437 111.556C98.3743 113.579 98.36 115.668 98.0187 117.75L98.0185 117.752C97.445 121.243 95.8058 124.288 93.2605 126.797C90.8546 129.169 87.9573 130.949 84.6455 132.173C81.3418 133.395 77.7696 134.012 73.9829 134.083C70.0796 134.165 66.236 133.552 62.4732 132.277C58.6203 130.972 55.0193 128.914 51.69 126.178L51.6838 126.173C48.1887 123.29 45.3419 119.59 43.1048 115.166L43.0828 115.122C41.5166 111.938 40.4604 108.584 39.9183 105.066C39.3791 101.566 39.3556 98.0688 39.8802 94.5818C40.4069 91.0809 41.481 87.7134 43.0957 84.4841C44.7453 81.1849 46.9475 78.236 49.6882 75.66C52.462 73.044 55.7346 70.9322 59.4532 69.2728C63.2916 67.5599 67.5694 66.5245 72.2327 66.0767C76.8543 65.6328 81.127 65.7957 84.9714 66.6777L93.7532 103.642ZM93.7532 103.642C94.019 103.546 94.2841 103.445 94.5483 103.338L94.5687 103.33C96.7197 102.45 98.6558 101.143 100.389 99.4664C102.364 97.5555 103.699 95.2223 104.4 92.581C105.084 90.002 105.14 87.3508 104.643 84.7032L104.639 84.6846C104.12 81.9811 103.011 79.4228 101.39 77.0229C99.6865 74.5027 97.4329 72.3858 94.7314 70.6272L94.7314 70.6272L94.721 70.6205C91.9216 68.8091 88.647 67.5192 84.974 66.6782L93.7532 103.642ZM74.4934 91.2437C74.4711 91.2929 74.4496 91.3427 74.4289 91.3931C73.6045 93.4004 73.5199 95.6031 74.4092 97.7126L74.4239 97.7469C75.1803 99.5004 76.4028 100.896 77.8688 101.97C78.486 102.426 79.1391 102.818 79.8172 103.154C79.2623 103.738 78.7879 104.385 78.3876 105.065L78.3675 105.099C77.8435 106.007 77.0803 106.872 75.9909 107.671L75.9774 107.681C74.8064 108.548 73.5055 109.237 72.0598 109.756C70.6505 110.262 69.1524 110.565 67.5378 110.658C66.0391 110.743 64.7371 110.562 63.5789 110.172C62.4878 109.805 61.5096 109.212 60.6088 108.341L60.5979 108.33C59.9267 107.685 59.3085 106.707 58.8928 105.165C58.1539 102.406 58.0496 100.18 58.3639 98.3933C58.7317 96.3016 59.3811 94.6395 60.2368 93.3127C61.1474 91.9006 62.2587 90.7629 63.5846 89.8618C65.0744 88.8493 66.5336 88.1555 67.9738 87.73C69.4603 87.2971 70.8057 87.1467 72.0379 87.2252C73.2637 87.3033 73.9935 87.5877 74.443 87.8757C74.6609 88.0185 74.8259 88.1919 74.9443 88.6517C75.002 88.8819 75.0772 89.6448 74.4934 91.2437Z" fill="white" stroke="white" stroke-width="9" stroke-linecap="round" stroke-linejoin="round"/>
<path d="M141.648 94.977C140.721 94.2813 139.588 93.9871 138.486 94.1005C138.304 92.7484 137.925 91.448 137.267 90.2618C135.417 86.9237 131.977 85.7013 128.772 85.4037L128.75 85.4017C125.958 85.1564 123.235 85.5413 120.796 86.811C120.239 87.101 119.709 87.4238 119.209 87.7785C119.054 87.67 118.898 87.5649 118.741 87.4629C117.674 86.7716 116.505 86.2757 115.295 85.9265C113.923 85.5302 112.467 85.3755 110.981 85.3755C109.15 85.3755 107.371 85.7632 105.658 86.4342C103.741 87.1848 102.059 88.3416 100.58 89.7844C99.0225 91.305 97.7794 93.1474 96.7842 95.1813L96.7841 95.1813L96.78 95.1898C95.6803 97.4489 95.0532 99.9543 94.7802 102.631L94.7775 102.659C94.555 104.984 94.6993 107.25 95.29 109.416L95.2918 109.422C95.8671 111.52 96.8125 113.453 98.1384 115.136L98.1514 115.152C99.4965 116.843 101.163 118.196 103.107 119.186C105.096 120.2 107.264 120.742 109.551 120.864C111.489 120.987 113.405 120.735 115.236 120.017C116.711 119.439 118.085 118.664 119.304 117.651C120.472 118.603 121.802 119.335 123.242 119.887C125.072 120.589 127.056 120.863 129.079 120.863C132.042 120.863 134.862 120.138 137.28 118.442L137.29 118.434C139.439 116.918 141.105 114.939 142.253 112.556C143.362 110.253 143.948 107.754 144.092 105.126L144.093 105.107C144.213 102.729 143.999 100.359 143.445 98.0165C143.29 96.8436 142.676 95.7478 141.684 95.0037L141.648 94.977ZM133.987 98.5948C133.987 98.5947 133.988 98.5938 133.99 98.5922C133.988 98.594 133.987 98.5948 133.987 98.5948ZM114.668 100.606C114.637 100.552 114.612 100.502 114.591 100.456C114.593 100.45 114.596 100.444 114.599 100.438C114.69 100.236 114.852 99.9621 115.13 99.6891C115.212 99.6092 115.393 99.4558 115.688 99.3245C115.871 99.2427 116.067 99.1834 116.269 99.149L116.66 99.4483L116.677 99.4621L117.744 100.279L117.993 100.469L118.142 100.583L118.188 100.618L118.512 100.867C118.366 101.057 118.099 101.322 117.692 101.523C117.49 101.623 117.298 101.685 117.127 101.723C116.951 101.762 116.797 101.775 116.677 101.775C116.567 101.775 116.426 101.764 116.265 101.731C116.087 101.694 115.885 101.631 115.673 101.526C115.263 101.325 114.982 101.052 114.816 100.831C114.76 100.756 114.713 100.685 114.675 100.618C114.672 100.614 114.67 100.61 114.668 100.606ZM116.677 99.4349L116.291 99.1452C116.419 99.1246 116.548 99.1139 116.677 99.1139C116.801 99.1139 116.93 99.1243 117.062 99.1465C117.254 99.1787 117.452 99.2356 117.646 99.3215C117.966 99.4628 118.175 99.6374 118.284 99.7486C118.531 99.9998 118.678 100.25 118.762 100.438C118.764 100.442 118.765 100.446 118.767 100.45C118.746 100.498 118.719 100.55 118.687 100.606C118.685 100.61 118.682 100.614 118.68 100.618C118.641 100.685 118.595 100.756 118.539 100.831L118.255 100.618L118.213 100.586L118.054 100.467L117.769 100.254L116.677 99.4349Z" fill="white" stroke="white" stroke-width="9" stroke-linecap="round" stroke-linejoin="round"/>
<path d="M134.557 103.373C134.664 103.56 134.776 103.743 134.892 103.921C134.615 104.626 134.444 105.356 134.327 106.009C133.969 107.699 134.022 109.411 134.372 111.098C134.793 113.125 135.74 114.918 137.046 116.461C138.483 118.159 140.354 119.395 142.423 120.278C144.797 121.292 147.558 121.644 150.465 121.593L150.471 121.593C153.299 121.54 155.983 121.035 158.37 119.906C160.513 118.896 162.401 117.564 163.909 115.82C165.326 114.181 166.372 112.318 166.95 110.241C167.508 108.27 167.643 106.277 167.286 104.309L167.281 104.278C167.019 102.889 166.508 101.559 165.691 100.38C165.853 99.9166 165.949 99.476 166.004 99.0977C166.163 98.0122 166.078 96.923 165.934 95.9777C165.925 95.9205 165.915 95.8635 165.904 95.8067C165.205 92.1855 163.376 89.1272 160.433 86.8848C157.432 84.5974 153.753 83.6459 149.771 83.6459C147.685 83.6459 145.671 83.953 143.756 84.5874C141.829 85.2256 140.084 86.1746 138.562 87.4295L138.548 87.4413C137.052 88.6859 135.813 90.1871 134.894 91.9353C133.967 93.6978 133.434 95.6033 133.301 97.6167C133.141 99.6341 133.547 101.602 134.557 103.373Z" fill="white" stroke="white" stroke-width="9" stroke-linecap="round" stroke-linejoin="round"/>
<path d="M208.407 95.396C207.403 94.391 206.015 93.9437 204.668 94.111C204.488 92.7487 204.107 91.4385 203.445 90.2439C201.595 86.9059 198.155 85.6834 194.95 85.3859C194.924 85.3834 194.897 85.3812 194.871 85.3792C191.111 85.0975 187.421 85.7954 184.593 88.2859C183.847 87.4323 182.918 86.7858 181.891 86.3456C180.523 85.7593 179.009 85.4908 177.512 85.3804C172.962 84.9995 168.675 86.0016 165.399 89.0693C162.1 92.1586 160.686 96.824 160.282 101.956C160.073 104.327 160.17 106.624 160.643 108.829C161.118 111.04 161.96 113.102 163.241 114.913C164.557 116.775 166.272 118.238 168.303 119.28C170.443 120.376 172.798 120.863 175.26 120.863C177.191 120.863 179.054 120.506 180.822 119.761L180.822 119.761L180.833 119.756C182.405 119.089 183.854 118.211 185.154 117.13C185.227 117.069 185.299 117.008 185.371 116.946C186.517 118.169 187.902 119.078 189.385 119.731C191.243 120.551 193.291 120.863 195.355 120.863C198.318 120.863 201.138 120.138 203.556 118.442L203.566 118.434C205.715 116.918 207.381 114.939 208.529 112.556C209.638 110.253 210.224 107.754 210.368 105.126L210.369 105.107C210.495 102.625 210.255 100.152 209.647 97.7096C209.477 96.8531 209.058 96.0474 208.416 95.405L208.407 95.396ZM200.237 98.5769C200.237 98.5769 200.238 98.576 200.24 98.5744C200.238 98.5761 200.237 98.577 200.237 98.5769Z" fill="white" stroke="white" stroke-width="9" stroke-linecap="round" stroke-linejoin="round"/>
<path d="M246.617 94.9775C245.689 94.2815 244.557 93.9871 243.454 94.1005C243.273 92.7484 242.893 91.448 242.235 90.2618C240.385 86.9237 236.945 85.7013 233.741 85.4037L233.719 85.4017C230.926 85.1564 228.204 85.5413 225.764 86.811C225.207 87.101 224.677 87.4238 224.177 87.7785C224.022 87.67 223.866 87.5649 223.709 87.4629C222.642 86.7716 221.473 86.2757 220.264 85.9265C218.891 85.5302 217.435 85.3755 215.949 85.3755C214.118 85.3755 212.339 85.7632 210.626 86.4342C208.709 87.1848 207.027 88.3416 205.549 89.7844C203.991 91.305 202.748 93.1474 201.752 95.1813L201.752 95.1813L201.748 95.1898C200.649 97.4489 200.021 99.9544 199.748 102.631L199.746 102.659C199.523 104.984 199.667 107.25 200.258 109.416L200.26 109.422C200.835 111.52 201.781 113.453 203.107 115.136L203.12 115.152C204.465 116.843 206.132 118.196 208.075 119.186C210.065 120.2 212.232 120.742 214.519 120.864C216.457 120.987 218.373 120.735 220.204 120.017C221.679 119.439 223.053 118.664 224.272 117.651C225.441 118.603 226.77 119.335 228.21 119.887C230.041 120.589 232.025 120.863 234.047 120.863C237.01 120.863 239.83 120.138 242.248 118.442L242.258 118.434C244.407 116.918 246.074 114.939 247.221 112.556C248.331 110.253 248.916 107.754 249.06 105.126L249.061 105.107C249.181 102.729 248.967 100.359 248.413 98.0163C248.259 96.8437 247.644 95.7482 246.653 95.0042L246.617 94.9775ZM238.955 98.5948C238.955 98.5947 238.957 98.5939 238.959 98.5922C238.957 98.594 238.955 98.5948 238.955 98.5948ZM219.636 100.606C219.605 100.552 219.58 100.502 219.559 100.456C219.562 100.45 219.564 100.444 219.567 100.438C219.658 100.236 219.82 99.9621 220.098 99.6891C220.18 99.6092 220.361 99.4558 220.656 99.3245C220.839 99.2427 221.036 99.1834 221.237 99.149L221.628 99.4483L221.646 99.4621L222.712 100.279L222.961 100.469L223.11 100.583L223.156 100.618L223.48 100.867C223.335 101.057 223.067 101.322 222.66 101.523C222.459 101.623 222.266 101.685 222.095 101.723C221.919 101.762 221.765 101.775 221.646 101.775C221.535 101.775 221.394 101.764 221.233 101.731C221.055 101.694 220.854 101.631 220.641 101.526C220.232 101.325 219.95 101.052 219.784 100.831C219.728 100.756 219.682 100.685 219.643 100.618C219.641 100.614 219.638 100.61 219.636 100.606ZM221.646 99.4349L221.259 99.1452C221.387 99.1246 221.517 99.1139 221.646 99.1139C221.769 99.1139 221.898 99.1243 222.03 99.1465C222.222 99.1787 222.42 99.2356 222.615 99.3215C222.934 99.4628 223.143 99.6374 223.253 99.7486C223.499 99.9998 223.646 100.25 223.73 100.438C223.732 100.442 223.734 100.446 223.735 100.45C223.714 100.498 223.687 100.55 223.656 100.606C223.653 100.61 223.651 100.614 223.648 100.618C223.61 100.685 223.563 100.756 223.507 100.831L223.224 100.618L223.181 100.586L223.022 100.467L222.738 100.254L221.646 99.4349Z" fill="white" stroke="white" stroke-width="9" stroke-linecap="round" stroke-linejoin="round"/>
<path d="M269.761 97.6C270.391 100.077 270.639 102.588 270.511 105.107L270.51 105.126C270.366 107.753 269.781 110.253 268.671 112.556C267.523 114.94 265.854 116.922 263.69 118.441C261.272 120.138 258.451 120.863 255.488 120.863C253.261 120.863 251.093 120.461 249.088 119.52C246.901 118.5 245.174 116.872 243.845 114.873C242.533 112.91 241.576 110.523 240.865 107.902C240.137 105.216 239.65 102.054 239.359 98.4672L239.358 98.4497C238.707 89.9953 239.345 82.8589 242.039 77.7477L242.041 77.744C243.436 75.1031 245.398 72.95 247.966 71.4891C250.513 70.04 253.399 69.4171 256.442 69.4171C259.014 69.4171 261.667 69.7961 263.852 71.1235C265.853 72.3394 267.348 74.111 268.102 76.3722L268.114 76.4109C268.744 78.3589 268.843 80.4241 268.571 82.4989L269.761 97.6ZM269.761 97.6C269.376 95.8449 267.962 94.4481 266.129 94.1329C265.993 94.1096 265.858 94.0926 265.723 94.0818C265.787 93.8629 265.854 93.6423 265.922 93.4202C266.484 91.5971 267 89.7894 267.472 87.9973C267.967 86.1109 268.338 84.2831 268.571 82.5005L269.761 97.6ZM260.533 98.308C260.533 98.3079 260.534 98.3075 260.535 98.3068C260.535 98.307 260.534 98.3072 260.534 98.3074C260.534 98.3078 260.533 98.308 260.533 98.308Z" fill="white" stroke="white" stroke-width="9" stroke-linecap="round" stroke-linejoin="round"/>
<path d="M118.973 181.851C119.011 183.084 119.05 184.23 119.088 185.293C119.14 186.729 119.085 188.125 118.853 189.438C118.613 190.802 118.111 192.326 117.043 193.626C115.611 195.37 113.625 196.018 111.792 196.018C109.953 196.018 108.145 195.523 106.46 194.79C104.065 193.752 102.214 191.835 100.754 189.694L100.749 189.685C99.138 187.311 97.9424 184.217 97.0156 180.663C96.7804 179.761 96.572 178.802 96.3892 177.786C95.0703 178.393 93.6447 178.772 92.1818 178.981C89.8333 179.316 87.4671 179.179 85.1251 178.584C82.6739 177.962 80.4346 176.818 78.4311 175.202C76.0283 173.262 74.535 170.636 73.7932 167.629C72.4915 162.664 72.9441 157.706 75.0685 152.94L118.973 181.851ZM118.973 181.851C120.343 181.987 121.716 182.065 123.104 182.083C124.795 182.115 126.56 181.959 128.375 181.643C130.482 181.278 132.829 180.461 135.346 179.35C137.641 178.346 139.668 176.938 141.24 175.019C142.578 173.394 143.617 171.615 144.269 169.698C144.88 167.901 145.187 166.055 145.121 164.178L145.121 164.177C145.065 162.576 144.812 160.963 144.221 159.495C143.973 158.877 143.623 158.192 143.13 157.544C145.43 157.328 147.736 156.707 150.03 155.757C153.284 154.427 156.072 152.608 158.168 150.169L158.169 150.168C160.014 148.019 161.403 145.664 162.187 143.107L162.192 143.088C162.91 140.706 163.181 138.277 162.898 135.825C162.648 133.663 162.109 131.6 161.12 129.79C160.191 128.088 158.705 126.296 156.373 125.502C154.925 125.01 153.357 125.039 151.891 125.668C150.547 126.244 149.586 127.195 148.918 128.054L148.905 128.072C147.908 129.368 147.029 130.212 146.274 130.743L146.261 130.752C145.704 131.147 144.805 131.553 143.401 131.806L143.385 131.809C141.896 132.083 139.875 132.223 137.218 132.181C134.519 132.138 131.03 131.966 126.722 131.649C117.914 130.981 109.963 131.477 102.92 133.232C96.0582 134.943 90.1781 137.429 85.4224 140.816L85.4187 140.819C80.7307 144.164 77.1878 148.178 75.0691 152.939L118.973 181.851ZM134.172 156.824C134.725 156.293 135.445 155.757 136.311 155.409C137.379 154.981 138.668 154.839 140.143 155.346C140.163 155.353 140.183 155.36 140.202 155.367C141.213 155.73 142.006 156.301 142.626 156.952L142.353 153.094C140.472 153.227 138.618 153.129 136.799 152.79C134.98 152.452 133.233 151.935 131.557 151.257C129.872 150.579 128.205 149.839 126.547 149.046C125.091 148.35 123.636 147.667 122.181 147.004C122.271 147.614 122.317 148.228 122.327 148.84L122.327 148.864C122.338 149.858 122.293 150.893 122.196 151.967M134.172 156.824C132.696 156.459 131.262 155.991 129.874 155.43M134.172 156.824C133.844 157.139 133.574 157.453 133.368 157.724M134.172 156.824C134.766 156.971 135.367 157.101 135.975 157.214C137.098 157.423 138.228 157.556 139.363 157.615C139.373 157.616 139.383 157.616 139.394 157.617L119.378 167.447M129.874 155.43C129.875 155.431 129.877 155.432 129.878 155.432L131.557 151.257L129.87 155.429C129.872 155.429 129.873 155.43 129.874 155.43ZM129.874 155.43C128.092 154.714 126.338 153.935 124.604 153.105C123.8 152.72 122.997 152.34 122.196 151.967M122.196 151.967C121.369 151.581 120.544 151.201 119.72 150.829C119.08 150.54 118.444 150.273 117.813 150.027C117.763 151.401 117.598 152.912 117.319 154.565C116.954 156.677 116.499 158.933 115.955 161.34C115.77 162.163 115.596 162.99 115.436 163.823C117.002 163.406 118.612 162.994 120.265 162.587C120.273 162.585 120.281 162.583 120.289 162.581M122.196 151.967C122.099 153.044 121.951 154.16 121.757 155.313L121.754 155.332C121.373 157.531 120.903 159.862 120.345 162.332C120.326 162.415 120.307 162.498 120.289 162.581M120.289 162.581C120.285 162.599 120.281 162.618 120.277 162.636C119.925 164.223 119.624 165.826 119.378 167.447M120.289 162.581C122.527 162.03 124.622 161.456 126.594 160.853C128.486 160.274 130.105 159.648 131.48 158.987C132.746 158.379 133.226 157.906 133.368 157.724M119.378 167.447C120.025 167.283 120.679 167.12 121.34 166.957C123.658 166.386 125.842 165.789 127.911 165.156C129.979 164.523 131.816 163.819 133.429 163.043C135.043 162.267 136.211 161.411 136.942 160.458C137.53 159.682 138.11 159.405 138.68 159.602C139.251 159.807 139.706 160.324 140.044 161.171C140.273 161.737 140.437 162.405 140.533 163.169L119.378 167.447ZM133.368 157.724C133.364 157.728 133.36 157.733 133.357 157.738L136.942 160.457L133.37 157.72C133.369 157.721 133.368 157.722 133.368 157.724Z" fill="white" stroke="white" stroke-width="9" stroke-linecap="round" stroke-linejoin="round"/>
<path d="M187.333 158.499C186.328 157.493 184.94 157.046 183.592 157.213C183.412 155.851 183.031 154.541 182.369 153.346C180.519 150.008 177.079 148.785 173.875 148.488C173.848 148.485 173.822 148.483 173.795 148.481C170.035 148.2 166.345 148.897 163.517 151.388C162.772 150.534 161.843 149.888 160.815 149.448C159.447 148.861 157.933 148.593 156.436 148.482C151.887 148.102 147.599 149.104 144.324 152.171C141.025 155.261 139.61 159.926 139.206 165.058C138.998 167.429 139.094 169.726 139.567 171.931C140.042 174.142 140.884 176.204 142.165 178.015C143.481 179.877 145.196 181.34 147.228 182.382C149.367 183.478 151.722 183.965 154.184 183.965C156.115 183.965 157.978 183.608 159.746 182.863L159.746 182.863L159.757 182.859C161.33 182.191 162.779 181.313 164.078 180.232C164.151 180.171 164.223 180.11 164.295 180.048C165.442 181.271 166.826 182.18 168.309 182.833C170.167 183.653 172.216 183.965 174.279 183.965C177.242 183.965 180.063 183.24 182.48 181.544L182.491 181.536C184.639 180.02 186.306 178.041 187.453 175.658C188.563 173.355 189.148 170.856 189.292 168.228L189.293 168.21C189.419 165.727 189.18 163.254 188.571 160.812C188.401 159.956 187.983 159.15 187.341 158.508L187.333 158.499ZM179.161 161.679C179.161 161.679 179.162 161.678 179.164 161.676C179.162 161.678 179.161 161.679 179.161 161.679Z" fill="white" stroke="white" stroke-width="9" stroke-linecap="round" stroke-linejoin="round"/>
<path d="M179.663 164.641C179.671 164.733 179.681 164.824 179.694 164.915C179.943 168.169 180.459 171.086 181.359 173.526C182.221 175.888 183.384 178.009 184.955 179.687C186.471 181.307 188.308 182.533 190.465 183.173C192.168 183.678 193.927 183.938 195.729 183.938C197.259 183.938 199.157 183.636 200.778 182.372L200.808 182.349C201.279 181.975 201.69 181.558 202.044 181.107C202.908 181.768 203.856 182.297 204.837 182.721C206.944 183.632 209.404 183.947 211.937 183.947C214.9 183.947 217.721 183.222 220.139 181.526L220.149 181.519C222.297 180.002 223.964 178.023 225.111 175.64C226.221 173.337 226.806 170.838 226.95 168.211L226.951 168.192C227.082 165.618 226.82 163.055 226.161 160.526C225.662 158.613 223.974 157.25 221.999 157.165C221.526 157.145 221.063 157.199 220.624 157.319C220.52 156.942 220.398 156.569 220.259 156.2C219.564 154.341 218.495 152.669 217.019 151.309C215.484 149.894 213.648 148.983 211.65 148.504C209.63 148.019 207.531 148.009 205.432 148.375C205.4 148.38 205.368 148.386 205.336 148.393C203.283 148.797 201.377 149.588 199.645 150.742C199.632 150.731 199.618 150.719 199.605 150.708C199.584 150.69 199.562 150.672 199.541 150.655C198.505 149.812 197.322 149.222 196.058 148.863C195.008 148.565 193.933 148.387 192.84 148.324C192.823 148.323 192.805 148.323 192.787 148.322C190.258 148.206 187.643 148.612 185.416 150.103C183.62 151.305 182.217 152.889 181.285 154.812L181.285 154.812L181.279 154.824C180.477 156.491 179.991 158.243 179.777 160.065L179.774 160.094C179.599 161.664 179.545 163.193 179.663 164.641ZM216.805 161.738C216.801 161.742 216.799 161.744 216.799 161.744C216.799 161.743 216.801 161.742 216.805 161.738Z" fill="white" stroke="white" stroke-width="9" stroke-linecap="round" stroke-linejoin="round"/>
<path d="M237.185 163.13L237.943 162.499L237.993 162.457L238.103 162.366L238.215 162.272L238.969 161.644L238.977 161.637L238.983 161.632L238.986 161.63L240.18 160.635C239.823 160.475 239.413 160.381 238.986 160.379M237.185 163.13L238.986 160.379M237.185 163.13C237.155 162.937 237.14 162.727 237.14 162.499C237.137 162.438 237.135 162.378 237.134 162.318C237.127 161.93 237.16 161.587 237.234 161.291C237.274 161.13 237.327 160.983 237.391 160.851M237.185 163.13L237.391 160.851M238.986 160.379C238.984 160.379 238.983 160.379 238.981 160.379L238.977 160.379M238.986 160.379H238.977M238.977 160.379C238.552 160.381 238.144 160.474 237.789 160.633C237.788 160.633 237.787 160.633 237.786 160.634C237.775 160.639 237.763 160.644 237.751 160.65C237.611 160.714 237.492 160.784 237.391 160.851M238.977 160.379L237.391 160.851M264.05 160.544C263.849 159.77 263.445 159.065 262.88 158.499L262.871 158.49C262.195 157.812 261.331 157.379 260.414 157.229C260.165 155.386 259.453 153.651 258.244 152.129C256.858 150.386 255.072 149.107 252.999 148.291C250.915 147.471 248.688 147.191 246.424 147.307C246.117 147.322 245.811 147.347 245.507 147.38C245.809 145.74 245.934 144.123 245.83 142.552C245.647 139.801 244.592 137.263 242.484 135.317L242.47 135.305C240.08 133.117 236.799 132.528 233.744 132.528C230.957 132.528 228.326 132.906 225.992 133.833C223.278 134.9 221.225 136.829 219.821 139.296C218.468 141.673 217.701 144.562 217.321 147.724C216.939 150.895 216.895 154.76 217.125 159.248C217.355 163.898 217.88 167.878 218.792 171.028C219.639 173.99 220.771 176.638 222.329 178.681L222.34 178.695C223.832 180.636 225.742 182.238 228.162 183.046C229.966 183.651 231.811 183.956 233.672 183.956C235.203 183.956 237.1 183.654 238.722 182.39L238.751 182.366C239.358 181.885 239.866 181.331 240.279 180.726C241.267 181.428 242.315 182.035 243.416 182.55C245.434 183.496 247.585 183.965 249.818 183.965C252.781 183.965 255.601 183.24 258.019 181.544C260.184 180.025 261.853 178.043 263.001 175.658C264.111 173.355 264.696 170.856 264.84 168.228L264.841 168.21C264.971 165.636 264.71 163.073 264.05 160.544ZM240.565 163.839C240.658 163.648 240.726 163.428 240.768 163.181C240.771 163.165 240.774 163.149 240.776 163.133C240.807 162.938 240.822 162.727 240.822 162.499C240.825 162.437 240.828 162.376 240.829 162.316C240.836 161.927 240.803 161.584 240.73 161.29C240.691 161.131 240.641 160.986 240.579 160.855C240.476 160.787 240.354 160.716 240.212 160.65C240.202 160.645 240.192 160.641 240.182 160.636L239 161.646L238.986 161.658L238.977 161.666L238.239 162.296L238.155 162.368L238.054 162.454L238.001 162.499L237.195 163.188C237.237 163.431 237.304 163.647 237.394 163.835C237.509 163.915 237.639 163.993 237.786 164.064C237.825 164.082 237.864 164.1 237.903 164.117C238.277 164.276 238.651 164.341 238.977 164.342C238.98 164.342 238.983 164.342 238.986 164.342C239.293 164.342 239.669 164.284 240.06 164.117C240.096 164.102 240.133 164.085 240.169 164.068C240.317 163.998 240.448 163.92 240.565 163.839Z" fill="white" stroke="white" stroke-width="9" stroke-linecap="round" stroke-linejoin="round"/>
<path d="M114.2 220.9C173.129 220.9 220.9 173.129 220.9 114.2C220.9 55.2712 173.129 7.5 114.2 7.5C55.2712 7.5 7.5 55.2712 7.5 114.2C7.5 173.129 55.2712 220.9 114.2 220.9Z" stroke="white" stroke-width="3"/>
<path d="M114.2 219.4C172.3 219.4 219.4 172.3 219.4 114.2C219.4 56.0996 172.3 9 114.2 9C56.0996 9 9 56.0996 9 114.2C9 172.3 56.0996 219.4 114.2 219.4Z" fill="#2C2E59"/>
<path d="M121.026 200.329C170.644 200.329 210.868 160.106 210.868 110.487C210.868 60.8689 170.644 20.6453 121.026 20.6453C71.4075 20.6453 31.1839 60.8689 31.1839 110.487C31.1839 160.106 71.4075 200.329 121.026 200.329Z" fill="#1D91F9"/>
<path d="M127.373 171.45C166.34 171.45 197.929 139.862 197.929 100.895C197.929 61.9286 166.34 30.34 127.373 30.34C88.4068 30.34 56.8182 61.9286 56.8182 100.895C56.8182 139.862 88.4068 171.45 127.373 171.45Z" fill="#FFC332"/>
<path d="M132.83 141.953C159.177 141.953 180.536 120.595 180.536 94.2477C180.536 67.9005 159.177 46.542 132.83 46.542C106.483 46.542 85.1247 67.9005 85.1247 94.2477C85.1247 120.595 106.483 141.953 132.83 141.953Z" fill="#E1502D"/>
<path d="M140.125 112.625C154.588 112.625 166.312 100.9 166.312 86.4374C166.312 71.9744 154.588 60.2499 140.125 60.2499C125.662 60.2499 113.937 71.9744 113.937 86.4374C113.937 100.9 125.662 112.625 140.125 112.625Z" fill="#B01C21"/>
<path d="M95.1204 165.7C96.7519 167.242 97.5364 168.642 97.474 169.89C97.4027 171.138 96.841 172.163 95.7712 172.957C94.7014 173.75 93.2928 174.276 91.5454 174.526C89.798 174.775 88.0238 174.677 86.2319 174.223C84.4399 173.768 82.7817 172.93 81.2572 171.7C79.7326 170.469 78.6985 168.749 78.1546 166.52C77.1116 162.57 77.4503 158.648 79.1799 154.77C80.9095 150.883 83.8604 147.459 88.0327 144.481C92.214 141.504 97.5364 139.212 104.009 137.599C110.481 135.985 117.935 135.495 126.386 136.137C130.746 136.458 134.33 136.636 137.147 136.681C139.964 136.725 142.309 136.582 144.199 136.235C146.08 135.896 147.64 135.29 148.862 134.425C150.092 133.56 151.286 132.357 152.472 130.814C153.248 129.816 154.059 129.468 154.924 129.762C155.789 130.056 156.538 130.788 157.171 131.947C157.804 133.106 158.223 134.568 158.428 136.342C158.633 138.116 158.445 139.926 157.884 141.789C157.313 143.652 156.27 145.471 154.755 147.236C153.23 149.01 151.09 150.464 148.318 151.596C146.232 152.461 144.243 152.96 142.353 153.094C140.472 153.227 138.618 153.129 136.799 152.79C134.98 152.452 133.233 151.935 131.557 151.257C129.872 150.579 128.205 149.839 126.547 149.046C124.888 148.253 123.23 147.477 121.572 146.728C119.914 145.979 118.264 145.355 116.633 144.856C117.409 145.899 117.801 147.254 117.828 148.912C117.845 150.57 117.676 152.452 117.319 154.565C116.954 156.677 116.499 158.933 115.955 161.34C115.411 163.747 114.975 166.199 114.663 168.695C116.793 168.107 119.022 167.527 121.34 166.957C123.658 166.386 125.842 165.789 127.911 165.156C129.979 164.523 131.816 163.819 133.429 163.043C135.043 162.267 136.211 161.411 136.942 160.458C137.53 159.682 138.11 159.405 138.68 159.602C139.251 159.807 139.706 160.324 140.044 161.171C140.383 162.009 140.579 163.07 140.624 164.336C140.668 165.611 140.463 166.912 140.009 168.249C139.554 169.587 138.805 170.897 137.762 172.163C136.719 173.438 135.31 174.454 133.536 175.23C131.174 176.273 129.203 176.933 127.608 177.209C126.021 177.486 124.541 177.61 123.177 177.584C121.813 177.566 120.466 177.486 119.12 177.343C117.783 177.209 116.16 177.227 114.253 177.414L114.458 181.435C114.502 182.888 114.547 184.226 114.591 185.456C114.636 186.686 114.582 187.747 114.422 188.656C114.261 189.566 113.976 190.27 113.566 190.769C113.156 191.269 112.568 191.518 111.792 191.518C110.749 191.518 109.563 191.233 108.253 190.662C106.933 190.092 105.676 188.924 104.472 187.159C103.269 185.385 102.235 182.844 101.37 179.527C100.505 176.211 100.006 171.789 99.8722 166.244C99.6404 160.342 99.8455 155.777 100.487 152.55C101.12 149.322 102.074 146.987 103.349 145.533C100.987 146.443 98.8559 147.646 96.948 149.144C95.0401 150.642 93.6226 152.309 92.6865 154.154C91.7593 155.991 91.4295 157.917 91.6969 159.914C91.9644 161.911 93.1055 163.845 95.1025 165.7H95.1204Z" fill="black" stroke="black" stroke-width="12" stroke-linecap="round" stroke-linejoin="round"/>
<path d="M184.148 161.679C184.692 163.765 184.906 165.869 184.799 167.982C184.683 170.095 184.219 172.003 183.399 173.706C182.579 175.408 181.411 176.79 179.896 177.86C178.371 178.93 176.499 179.465 174.279 179.465C172.647 179.465 171.257 179.215 170.124 178.716C168.992 178.217 168.065 177.557 167.37 176.737C166.665 175.917 166.139 175.016 165.801 174.009C165.462 173.01 165.248 172.012 165.15 171.013C164.784 172.056 164.276 173.081 163.616 174.08C162.957 175.078 162.154 175.979 161.2 176.772C160.246 177.566 159.176 178.217 158 178.716C156.814 179.215 155.548 179.465 154.184 179.465C152.321 179.465 150.689 179.099 149.281 178.377C147.872 177.655 146.722 176.665 145.839 175.417C144.957 174.169 144.333 172.689 143.967 170.986C143.602 169.284 143.512 167.438 143.691 165.432C144.056 160.752 145.295 157.426 147.399 155.456C149.503 153.486 152.41 152.657 156.083 152.969C157.313 153.058 158.294 153.263 159.043 153.584C159.792 153.905 160.3 154.404 160.576 155.082C160.853 155.759 160.915 156.651 160.781 157.738C160.648 158.826 160.327 160.19 159.827 161.822C159.417 163.141 159.319 164.193 159.524 164.986C159.729 165.78 160.068 166.226 160.549 166.315C161.022 166.404 161.539 166.11 162.083 165.432C162.627 164.755 163.01 163.596 163.242 161.955C163.741 158.683 164.793 156.312 166.407 154.841C168.02 153.37 170.365 152.737 173.459 152.969C175.955 153.2 177.613 154.047 178.433 155.527C179.254 157.007 179.432 159.218 178.977 162.169C178.799 163.355 178.879 164.246 179.218 164.862C179.557 165.477 180.011 165.78 180.582 165.78C181.153 165.78 181.759 165.45 182.419 164.79C183.078 164.131 183.658 163.096 184.157 161.688L184.148 161.679Z" fill="black" stroke="black" stroke-width="12" stroke-linecap="round" stroke-linejoin="round"/>
<path d="M184.148 164.273C184.059 163.185 184.095 161.955 184.246 160.591C184.407 159.227 184.763 157.961 185.334 156.775C185.904 155.599 186.76 154.618 187.919 153.842C189.078 153.067 190.63 152.728 192.582 152.817C193.358 152.862 194.106 152.986 194.829 153.191C195.551 153.397 196.175 153.717 196.701 154.145C197.218 154.582 197.628 155.126 197.931 155.777C198.225 156.437 198.35 157.266 198.306 158.264C199.215 156.945 200.347 155.786 201.711 154.787C203.075 153.789 204.573 153.129 206.204 152.808C207.791 152.532 209.262 152.559 210.6 152.879C211.937 153.2 213.06 153.78 213.97 154.618C214.879 155.456 215.574 156.517 216.047 157.783C216.528 159.058 216.716 160.511 216.626 162.142C216.537 163.328 216.671 164.22 217.036 164.835C217.402 165.45 217.857 165.753 218.401 165.753C218.944 165.753 219.524 165.423 220.139 164.763C220.754 164.104 221.307 163.07 221.806 161.661C222.35 163.747 222.564 165.851 222.457 167.964C222.341 170.077 221.877 171.985 221.057 173.688C220.237 175.39 219.069 176.772 217.554 177.842C216.029 178.912 214.157 179.447 211.937 179.447C209.717 179.447 207.943 179.162 206.623 178.591C205.304 178.02 204.306 177.289 203.628 176.38C202.95 175.471 202.514 174.463 202.335 173.349C202.157 172.234 202.13 171.111 202.264 169.979C202.353 169.025 202.237 168.303 201.925 167.795C201.604 167.295 201.248 167.073 200.837 167.117C200.427 167.162 200.044 167.474 199.678 168.035C199.313 168.606 199.135 169.48 199.135 170.656C199.135 170.746 199.144 170.853 199.17 170.96C199.188 171.075 199.206 171.174 199.206 171.263C199.295 172.448 199.358 173.536 199.375 174.535C199.393 175.533 199.304 176.398 199.099 177.12C198.894 177.851 198.528 178.413 198.011 178.823C197.485 179.233 196.728 179.438 195.729 179.438C194.365 179.438 193.037 179.242 191.744 178.859C190.451 178.475 189.283 177.726 188.24 176.612C187.197 175.497 186.306 173.955 185.583 171.976C184.852 169.997 184.38 167.42 184.157 164.246L184.148 164.273Z" fill="black" stroke="black" stroke-width="12" stroke-linecap="round" stroke-linejoin="round"/>
<path d="M259.696 161.679C260.24 163.765 260.454 165.869 260.347 167.982C260.231 170.095 259.767 172.003 258.947 173.706C258.127 175.408 256.959 176.79 255.434 177.86C253.91 178.93 252.038 179.465 249.818 179.465C248.231 179.465 246.733 179.135 245.325 178.475C243.916 177.815 242.641 176.977 241.509 175.952C240.377 174.927 239.396 173.768 238.576 172.475C237.756 171.183 237.194 169.917 236.873 168.695L237.078 171.281C237.167 172.466 237.238 173.554 237.283 174.553C237.328 175.551 237.247 176.416 237.042 177.138C236.837 177.869 236.472 178.431 235.955 178.841C235.429 179.251 234.671 179.456 233.672 179.456C232.308 179.456 230.944 179.233 229.589 178.778C228.225 178.324 227.004 177.379 225.907 175.952C224.82 174.526 223.883 172.466 223.117 169.783C222.341 167.108 221.842 163.515 221.619 159.022C221.396 154.663 221.45 151.079 221.788 148.261C222.127 145.444 222.778 143.198 223.732 141.521C224.686 139.845 225.987 138.669 227.646 138.018C229.304 137.358 231.337 137.028 233.744 137.028C236.374 137.028 238.273 137.563 239.432 138.624C240.591 139.694 241.224 141.102 241.339 142.85C241.455 144.597 241.188 146.576 240.555 148.778C239.922 150.981 239.129 153.236 238.175 155.554C238.674 155.099 239.182 154.689 239.708 154.324C240.225 153.958 240.787 153.619 241.375 153.299C243.149 152.389 244.906 151.89 246.653 151.801C248.4 151.712 249.969 151.935 251.351 152.478C252.733 153.022 253.857 153.842 254.721 154.93C255.586 156.018 256.014 157.293 256.014 158.746C256.014 160.654 255.631 162.205 254.855 163.408C254.079 164.612 253.108 165.53 251.922 166.163C250.736 166.796 249.443 167.171 248.044 167.287C246.635 167.402 245.298 167.278 244.023 166.912C245.111 167.955 246.448 168.535 248.044 168.651C249.631 168.767 251.209 168.535 252.778 167.973C254.347 167.402 255.764 166.564 257.03 165.45C258.305 164.336 259.188 163.079 259.687 161.67L259.696 161.679ZM238.986 164.879C239.441 164.879 239.86 164.683 240.243 164.3C240.626 163.917 240.822 163.31 240.822 162.499C240.867 161.59 240.707 160.921 240.35 160.493C239.984 160.065 239.53 159.842 238.986 159.842C238.442 159.842 237.987 160.056 237.622 160.493C237.256 160.921 237.096 161.599 237.14 162.499C237.14 163.319 237.337 163.917 237.72 164.3C238.103 164.683 238.522 164.879 238.977 164.879H238.986Z" fill="black" stroke="black" stroke-width="12" stroke-linecap="round" stroke-linejoin="round"/>
<path d="M96.9034 163.025C98.5349 164.567 99.3195 165.967 99.2571 167.215C99.1857 168.463 98.6241 169.489 97.5542 170.282C96.4844 171.076 95.0758 171.602 93.3284 171.851C91.581 172.101 89.8069 172.003 88.0149 171.548C86.223 171.093 84.5647 170.255 83.0402 169.025C81.5157 167.795 80.4815 166.074 79.9377 163.845C78.8946 159.896 79.2334 155.973 80.9629 152.095C82.6925 148.208 85.6435 144.785 89.8158 141.807C93.9971 138.829 99.3195 136.538 105.792 134.924C112.264 133.311 119.718 132.82 128.169 133.462C132.529 133.783 136.113 133.961 138.93 134.006C141.747 134.051 144.092 133.908 145.982 133.56C147.863 133.221 149.423 132.615 150.645 131.75C151.875 130.886 153.07 129.682 154.255 128.14C155.031 127.141 155.842 126.794 156.707 127.088C157.572 127.382 158.321 128.113 158.954 129.272C159.587 130.431 160.006 131.893 160.211 133.667C160.416 135.441 160.228 137.251 159.667 139.114C159.096 140.978 158.053 142.796 156.538 144.562C155.013 146.336 152.873 147.789 150.101 148.921C148.015 149.786 146.026 150.285 144.136 150.419C142.255 150.553 140.401 150.455 138.582 150.116C136.764 149.777 135.016 149.26 133.34 148.582C131.655 147.905 129.988 147.165 128.33 146.371C126.671 145.578 125.013 144.802 123.355 144.053C121.697 143.305 120.047 142.681 118.416 142.181C119.192 143.224 119.584 144.579 119.611 146.238C119.628 147.896 119.459 149.777 119.102 151.89C118.737 154.003 118.282 156.258 117.738 158.666C117.195 161.073 116.758 163.524 116.446 166.021C118.576 165.432 120.805 164.853 123.123 164.282C125.441 163.712 127.625 163.114 129.694 162.481C131.762 161.848 133.599 161.144 135.212 160.368C136.826 159.593 137.994 158.737 138.725 157.783C139.313 157.007 139.893 156.731 140.463 156.927C141.034 157.132 141.489 157.649 141.827 158.496C142.166 159.334 142.362 160.395 142.407 161.661C142.451 162.936 142.246 164.238 141.792 165.575C141.337 166.912 140.588 168.223 139.545 169.489C138.502 170.764 137.093 171.78 135.319 172.556C132.957 173.599 130.986 174.258 129.391 174.535C127.804 174.811 126.324 174.936 124.96 174.909C123.596 174.891 122.249 174.811 120.903 174.668C119.566 174.535 117.943 174.553 116.036 174.74L116.241 178.761C116.285 180.214 116.33 181.551 116.374 182.781C116.419 184.012 116.365 185.073 116.205 185.982C116.044 186.891 115.759 187.596 115.349 188.095C114.939 188.594 114.351 188.844 113.575 188.844C112.532 188.844 111.346 188.558 110.036 187.988C108.716 187.417 107.459 186.249 106.256 184.484C105.052 182.71 104.018 180.169 103.153 176.853C102.288 173.536 101.789 169.114 101.655 163.569C101.423 157.667 101.629 153.102 102.27 149.875C102.903 146.648 103.857 144.312 105.132 142.859C102.77 143.768 100.639 144.972 98.7311 146.469C96.8232 147.967 95.4057 149.634 94.4696 151.48C93.5424 153.316 93.2125 155.242 93.48 157.239C93.7474 159.236 94.8886 161.171 96.8856 163.025H96.9034Z" fill="white"/>
<path d="M185.931 159.004C186.475 161.09 186.689 163.194 186.582 165.307C186.466 167.42 186.002 169.328 185.182 171.031C184.362 172.734 183.194 174.116 181.679 175.185C180.154 176.255 178.282 176.79 176.062 176.79C174.43 176.79 173.04 176.541 171.907 176.041C170.775 175.542 169.848 174.882 169.153 174.062C168.448 173.242 167.922 172.342 167.584 171.334C167.245 170.336 167.031 169.337 166.933 168.339C166.567 169.382 166.059 170.407 165.399 171.405C164.74 172.404 163.937 173.304 162.983 174.098C162.029 174.891 160.96 175.542 159.783 176.041C158.597 176.541 157.331 176.79 155.967 176.79C154.104 176.79 152.472 176.425 151.064 175.703C149.655 174.98 148.505 173.991 147.622 172.743C146.74 171.495 146.116 170.015 145.75 168.312C145.385 166.609 145.295 164.764 145.474 162.758C145.839 158.077 147.078 154.752 149.182 152.781C151.286 150.811 154.193 149.982 157.866 150.294C159.096 150.383 160.077 150.588 160.826 150.909C161.575 151.23 162.083 151.729 162.359 152.407C162.636 153.085 162.698 153.976 162.564 155.064C162.431 156.151 162.11 157.515 161.61 159.147C161.2 160.466 161.102 161.518 161.307 162.312C161.512 163.105 161.851 163.551 162.332 163.64C162.805 163.729 163.322 163.435 163.866 162.758C164.41 162.08 164.793 160.921 165.025 159.281C165.524 156.009 166.576 153.637 168.19 152.166C169.803 150.695 172.148 150.062 175.242 150.294C177.738 150.526 179.396 151.373 180.216 152.853C181.037 154.333 181.215 156.544 180.76 159.495C180.582 160.68 180.662 161.572 181.001 162.187C181.34 162.802 181.794 163.105 182.365 163.105C182.936 163.105 183.542 162.775 184.202 162.116C184.861 161.456 185.441 160.422 185.94 159.013L185.931 159.004Z" fill="white"/>
<path d="M185.931 161.599C185.842 160.511 185.878 159.281 186.029 157.917C186.19 156.553 186.546 155.287 187.117 154.101C187.687 152.924 188.543 151.943 189.702 151.168C190.861 150.392 192.413 150.053 194.365 150.142C195.141 150.187 195.89 150.312 196.612 150.517C197.334 150.722 197.958 151.043 198.484 151.471C199.001 151.908 199.411 152.452 199.714 153.102C200.008 153.762 200.133 154.591 200.089 155.59C200.998 154.27 202.13 153.111 203.494 152.113C204.858 151.114 206.356 150.455 207.988 150.134C209.574 149.857 211.045 149.884 212.383 150.205C213.72 150.526 214.843 151.105 215.753 151.943C216.662 152.781 217.357 153.842 217.83 155.108C218.311 156.383 218.499 157.836 218.409 159.468C218.32 160.654 218.454 161.545 218.82 162.16C219.185 162.775 219.64 163.079 220.184 163.079C220.727 163.079 221.307 162.749 221.922 162.089C222.537 161.429 223.09 160.395 223.589 158.986C224.133 161.073 224.347 163.177 224.24 165.29C224.124 167.402 223.661 169.31 222.84 171.013C222.02 172.716 220.852 174.098 219.337 175.168C217.812 176.237 215.94 176.772 213.72 176.772C211.5 176.772 209.726 176.487 208.407 175.916C207.087 175.346 206.089 174.615 205.411 173.706C204.733 172.796 204.297 171.789 204.118 170.674C203.94 169.56 203.913 168.437 204.047 167.304C204.136 166.35 204.02 165.628 203.708 165.12C203.387 164.621 203.031 164.398 202.621 164.443C202.21 164.487 201.827 164.799 201.462 165.361C201.096 165.931 200.918 166.805 200.918 167.982C200.918 168.071 200.927 168.178 200.953 168.285C200.971 168.401 200.989 168.499 200.989 168.588C201.078 169.774 201.141 170.862 201.158 171.86C201.176 172.859 201.087 173.723 200.882 174.445C200.677 175.177 200.311 175.738 199.794 176.148C199.268 176.558 198.511 176.763 197.512 176.763C196.148 176.763 194.82 176.567 193.527 176.184C192.234 175.801 191.066 175.052 190.023 173.937C188.98 172.823 188.089 171.281 187.367 169.301C186.635 167.322 186.163 164.746 185.94 161.572L185.931 161.599Z" fill="white"/>
<path d="M261.479 159.004C262.023 161.09 262.237 163.194 262.13 165.307C262.014 167.42 261.55 169.328 260.73 171.031C259.91 172.734 258.742 174.116 257.218 175.186C255.693 176.255 253.821 176.79 251.601 176.79C250.014 176.79 248.516 176.46 247.108 175.801C245.699 175.141 244.424 174.303 243.292 173.278C242.16 172.252 241.179 171.093 240.359 169.801C239.539 168.508 238.977 167.242 238.656 166.021L238.861 168.606C238.95 169.792 239.022 170.879 239.066 171.878C239.111 172.876 239.03 173.741 238.825 174.463C238.62 175.194 238.255 175.756 237.738 176.166C237.212 176.576 236.454 176.781 235.455 176.781C234.091 176.781 232.727 176.558 231.372 176.104C230.008 175.649 228.787 174.704 227.69 173.278C226.603 171.851 225.666 169.792 224.9 167.108C224.124 164.434 223.625 160.841 223.402 156.348C223.179 151.988 223.233 148.404 223.571 145.587C223.91 142.77 224.561 140.523 225.515 138.847C226.469 137.171 227.77 135.994 229.429 135.343C231.087 134.684 233.12 134.354 235.527 134.354C238.157 134.354 240.056 134.889 241.215 135.949C242.374 137.019 243.007 138.428 243.123 140.175C243.238 141.923 242.971 143.902 242.338 146.104C241.705 148.306 240.912 150.562 239.958 152.88C240.457 152.425 240.965 152.015 241.491 151.649C242.008 151.284 242.57 150.945 243.158 150.624C244.932 149.715 246.689 149.215 248.436 149.126C250.183 149.037 251.753 149.26 253.134 149.804C254.516 150.348 255.64 151.168 256.504 152.255C257.369 153.343 257.797 154.618 257.797 156.071C257.797 157.979 257.414 159.53 256.638 160.734C255.862 161.937 254.891 162.856 253.705 163.489C252.519 164.122 251.226 164.496 249.827 164.612C248.418 164.728 247.081 164.603 245.806 164.238C246.894 165.281 248.231 165.86 249.827 165.976C251.414 166.092 252.992 165.86 254.561 165.298C256.13 164.728 257.547 163.89 258.813 162.775C260.088 161.661 260.971 160.404 261.47 158.995L261.479 159.004ZM240.769 162.205C241.224 162.205 241.643 162.009 242.026 161.625C242.409 161.242 242.605 160.636 242.605 159.825C242.65 158.915 242.49 158.247 242.133 157.819C241.767 157.391 241.313 157.168 240.769 157.168C240.225 157.168 239.77 157.382 239.405 157.819C239.039 158.247 238.879 158.924 238.923 159.825C238.923 160.645 239.12 161.242 239.503 161.625C239.886 162.009 240.305 162.205 240.76 162.205H240.769Z" fill="white"/>
<path d="M78.5915 93.1295C79.4563 90.9007 79.6881 89.0463 79.3047 87.5396C78.9213 86.0418 78.1101 84.8918 76.8887 84.0983C75.6584 83.3049 74.1428 82.8502 72.3241 82.7343C70.5053 82.6184 68.6331 82.8502 66.7074 83.4118C64.7728 83.9824 62.8917 84.8918 61.0552 86.1399C59.2186 87.388 57.6852 88.966 56.4549 90.8739C55.2246 92.7818 54.3866 95.0284 53.9319 97.6138C53.4772 100.199 53.6823 103.106 54.547 106.333C55.1354 108.517 56.1161 110.265 57.4802 111.575C58.8442 112.895 60.3954 113.849 62.1428 114.437C63.8902 115.025 65.7713 115.266 67.7951 115.15C69.8189 115.034 71.7446 114.651 73.5811 113.991C75.4176 113.331 77.1115 112.44 78.6539 111.299C80.1962 110.167 81.3998 108.847 82.2646 107.349C82.853 106.351 83.584 105.655 84.4399 105.272C85.3047 104.889 86.1962 104.782 87.1323 104.969C88.0595 105.147 88.9688 105.575 89.8604 106.226C90.743 106.886 91.5097 107.75 92.1427 108.811C92.7756 109.881 93.2392 111.103 93.5424 112.493C93.8366 113.875 93.8455 115.391 93.578 117.022C93.1679 119.519 92.0089 121.712 90.1011 123.593C88.1932 125.474 85.8574 126.927 83.0848 127.952C80.3121 128.978 77.2453 129.522 73.8931 129.584C70.5321 129.655 67.2067 129.129 63.917 128.015C60.6272 126.9 57.498 125.126 54.547 122.701C51.5961 120.268 49.1176 117.085 47.1206 113.135C45.7566 110.363 44.8383 107.447 44.3658 104.381C43.8933 101.314 43.8755 98.2736 44.3302 95.2513C44.7848 92.229 45.712 89.3137 47.1206 86.4965C48.5292 83.6793 50.4104 81.1563 52.7729 78.9364C55.1354 76.7076 57.9705 74.8621 61.287 73.3822C64.6034 71.9023 68.3924 70.9662 72.6628 70.556C76.9332 70.1459 80.7044 70.3153 83.9674 71.0642C87.2393 71.8131 90.003 72.9275 92.2764 74.3985C94.5498 75.8785 96.3418 77.5902 97.6612 79.5426C98.9807 81.4951 99.8276 83.4921 100.22 85.5337C100.603 87.5753 100.55 89.5455 100.05 91.4267C99.5512 93.3078 98.6241 94.9125 97.26 96.232C95.896 97.5514 94.4339 98.5232 92.8648 99.1651C91.2957 99.7981 89.7534 100.173 88.2289 100.288C86.7044 100.404 85.2779 100.28 83.9406 99.914C82.6033 99.5485 81.4622 99.0314 80.535 98.3449C79.6078 97.6673 78.9481 96.8739 78.5558 95.9645C78.1725 95.0552 78.1814 94.1012 78.5915 93.1027V93.1295Z" fill="black" stroke="black" stroke-width="12" stroke-linecap="round" stroke-linejoin="round"/>
<path d="M138.948 98.5768C139.492 100.663 139.706 102.767 139.599 104.88C139.483 106.993 139.019 108.901 138.199 110.603C137.379 112.306 136.211 113.688 134.695 114.758C133.171 115.828 131.298 116.363 129.079 116.363C127.447 116.363 126.038 116.14 124.853 115.685C123.667 115.231 122.686 114.651 121.893 113.947C121.099 113.242 120.493 112.449 120.092 111.566C119.691 110.684 119.459 109.783 119.414 108.874C119.37 109.783 119.093 110.693 118.594 111.602C118.095 112.511 117.426 113.332 116.588 114.054C115.75 114.785 114.752 115.373 113.593 115.828C112.434 116.283 111.177 116.461 109.813 116.372C108.083 116.283 106.532 115.881 105.15 115.177C103.768 114.473 102.609 113.528 101.673 112.351C100.746 111.174 100.059 109.792 99.6315 108.232C99.2035 106.663 99.0787 104.951 99.257 103.088C99.4888 100.815 100.006 98.8443 100.826 97.1593C101.646 95.4832 102.609 94.0924 103.724 93.0048C104.838 91.9171 106.024 91.1237 107.299 90.6244C108.573 90.1252 109.795 89.8755 110.981 89.8755C112.166 89.8755 113.183 90.0003 114.047 90.25C114.912 90.4996 115.661 90.8295 116.294 91.2396C116.927 91.6497 117.498 92.1133 117.997 92.6393C118.496 93.1653 118.951 93.6734 119.361 94.1727C120.181 92.7195 121.349 91.5962 122.874 90.8027C124.398 90.0093 126.226 89.6972 128.356 89.8844C130.853 90.1162 132.511 90.9632 133.331 92.4431C134.151 93.9231 134.33 96.134 133.875 99.085C133.697 100.271 133.759 101.162 134.08 101.777C134.401 102.393 134.838 102.696 135.408 102.696C135.979 102.696 136.585 102.366 137.245 101.706C137.905 101.046 138.484 100.012 138.983 98.6036L138.948 98.5768ZM116.677 103.614C117.266 103.614 117.801 103.373 118.282 102.901C118.764 102.428 118.995 101.661 118.995 100.618C119.04 99.5307 118.844 98.7016 118.416 98.1311C117.988 97.5605 117.408 97.2752 116.677 97.2752C115.946 97.2752 115.376 97.5605 114.939 98.1311C114.511 98.7016 114.315 99.5307 114.359 100.618C114.359 101.661 114.6 102.419 115.073 102.901C115.545 103.382 116.08 103.614 116.677 103.614Z" fill="black" stroke="black" stroke-width="12" stroke-linecap="round" stroke-linejoin="round"/>
<path d="M145.483 100.074C145.572 100.44 146.232 100.583 147.462 100.52C148.692 100.449 150.234 100.306 152.098 100.074C153.007 99.9853 154.041 99.9586 155.2 100.003C156.359 100.048 157.474 100.244 158.535 100.583C159.604 100.921 160.532 101.456 161.325 102.178C162.118 102.91 162.627 103.881 162.858 105.112C163.081 106.342 163.01 107.644 162.618 109.025C162.234 110.407 161.53 111.691 160.505 112.877C159.48 114.063 158.133 115.043 156.448 115.837C154.772 116.63 152.749 117.049 150.386 117.094C147.845 117.138 145.777 116.817 144.19 116.14C142.603 115.462 141.364 114.597 140.481 113.554C139.599 112.511 139.028 111.388 138.778 110.184C138.529 108.981 138.52 107.884 138.743 106.877C138.966 105.602 139.287 104.915 139.697 104.8C140.107 104.684 140.766 104.808 141.676 105.174C142.353 105.45 143.138 105.7 144.029 105.923C144.912 106.146 146.125 106.262 147.676 106.262C148.451 106.262 149.227 106.235 150.029 106.19C150.823 106.146 151.563 106.048 152.24 105.887C152.918 105.727 153.524 105.522 154.041 105.272C154.558 105.022 154.915 104.693 155.093 104.282C155.316 103.783 154.933 103.578 153.934 103.667C152.936 103.756 151.304 104.006 149.031 104.416C147.346 104.737 145.804 104.791 144.395 104.586C142.986 104.381 141.783 103.997 140.784 103.427C139.786 102.856 139.01 102.098 138.466 101.144C137.922 100.19 137.691 99.1206 137.789 97.9437C137.878 96.5351 138.243 95.2335 138.876 94.0299C139.509 92.8264 140.365 91.7833 141.426 90.9007C142.496 90.0181 143.744 89.3316 145.171 88.8591C146.597 88.3866 148.13 88.1459 149.771 88.1459C153.043 88.1459 155.682 88.9215 157.705 90.4638C159.729 92.0062 160.986 94.0745 161.486 96.6599C161.708 98.1131 161.575 99.0403 161.075 99.4504C160.576 99.8605 159.961 99.8338 159.239 99.3791C158.463 98.969 157.367 98.6837 155.931 98.5232C154.505 98.3628 153.016 98.3271 151.474 98.4162C150.841 98.4608 150.154 98.5232 149.432 98.5856C148.71 98.657 148.032 98.755 147.426 98.8888C146.811 99.0225 146.312 99.183 145.928 99.3702C145.545 99.5485 145.393 99.7803 145.483 100.048V100.074Z" fill="black" stroke="black" stroke-width="12" stroke-linecap="round" stroke-linejoin="round"/>
<path d="M205.224 98.5768C205.768 100.663 205.982 102.767 205.875 104.88C205.759 106.993 205.295 108.901 204.475 110.603C203.655 112.306 202.487 113.688 200.971 114.758C199.447 115.828 197.574 116.363 195.355 116.363C193.723 116.363 192.332 116.113 191.2 115.614C190.068 115.115 189.141 114.455 188.445 113.635C187.741 112.814 187.215 111.914 186.876 110.907C186.537 109.908 186.323 108.91 186.225 107.911C185.86 108.954 185.352 109.979 184.692 110.978C184.032 111.976 183.23 112.877 182.276 113.67C181.322 114.464 180.252 115.115 179.075 115.614C177.89 116.113 176.624 116.363 175.26 116.363C173.396 116.363 171.765 115.997 170.356 115.275C168.948 114.553 167.798 113.563 166.915 112.315C166.032 111.067 165.408 109.587 165.043 107.884C164.677 106.182 164.588 104.336 164.766 102.33C165.132 97.6496 166.371 94.3242 168.475 92.354C170.579 90.3837 173.485 89.5546 177.159 89.8666C178.389 89.9558 179.37 90.1608 180.118 90.4818C180.867 90.8027 181.375 91.302 181.652 91.9795C181.928 92.6571 181.991 93.5486 181.857 94.6363C181.723 95.7239 181.402 97.088 180.903 98.7195C180.493 100.039 180.395 101.091 180.6 101.884C180.805 102.678 181.144 103.124 181.625 103.213C182.098 103.302 182.615 103.008 183.159 102.33C183.702 101.653 184.086 100.494 184.318 98.8532C184.817 95.5813 185.869 93.2098 187.482 91.7388C189.096 90.2678 191.441 89.6348 194.534 89.8666C197.031 90.0984 198.689 90.9453 199.509 92.4253C200.329 93.9052 200.508 96.1162 200.053 99.0671C199.875 100.253 199.955 101.144 200.294 101.76C200.632 102.375 201.087 102.678 201.658 102.678C202.228 102.678 202.834 102.348 203.494 101.688C204.154 101.029 204.733 99.9943 205.233 98.5857L205.224 98.5768Z" fill="black" stroke="black" stroke-width="12" stroke-linecap="round" stroke-linejoin="round"/>
<path d="M243.916 98.5768C244.46 100.663 244.674 102.767 244.567 104.88C244.451 106.993 243.987 108.901 243.167 110.603C242.347 112.306 241.179 113.688 239.663 114.758C238.139 115.828 236.267 116.363 234.047 116.363C232.415 116.363 231.007 116.14 229.821 115.685C228.635 115.231 227.655 114.651 226.861 113.947C226.068 113.242 225.461 112.449 225.06 111.566C224.659 110.684 224.427 109.783 224.383 108.874C224.338 109.783 224.062 110.693 223.562 111.602C223.063 112.511 222.395 113.332 221.557 114.054C220.718 114.785 219.72 115.373 218.561 115.828C217.402 116.283 216.145 116.461 214.781 116.372C213.051 116.283 211.5 115.881 210.118 115.177C208.736 114.473 207.577 113.528 206.641 112.351C205.714 111.174 205.028 109.792 204.6 108.232C204.172 106.663 204.047 104.951 204.225 103.088C204.457 100.815 204.974 98.8443 205.794 97.1593C206.615 95.4832 207.577 94.0924 208.692 93.0048C209.806 91.9171 210.992 91.1237 212.267 90.6244C213.542 90.1252 214.763 89.8755 215.949 89.8755C217.135 89.8755 218.151 90.0003 219.016 90.25C219.88 90.4996 220.629 90.8295 221.262 91.2396C221.895 91.6497 222.466 92.1133 222.965 92.6393C223.464 93.1653 223.919 93.6734 224.329 94.1727C225.149 92.7195 226.317 91.5962 227.842 90.8027C229.366 90.0093 231.194 89.6972 233.325 89.8844C235.821 90.1162 237.479 90.9632 238.299 92.4431C239.12 93.9231 239.298 96.134 238.843 99.085C238.665 100.271 238.727 101.162 239.048 101.777C239.369 102.393 239.806 102.696 240.377 102.696C240.947 102.696 241.553 102.366 242.213 101.706C242.873 101.046 243.452 100.012 243.952 98.6036L243.916 98.5768ZM221.646 103.614C222.234 103.614 222.769 103.373 223.25 102.901C223.732 102.428 223.964 101.661 223.964 100.618C224.008 99.5307 223.812 98.7016 223.384 98.1311C222.956 97.5605 222.377 97.2752 221.646 97.2752C220.915 97.2752 220.344 97.5605 219.907 98.1311C219.479 98.7016 219.283 99.5307 219.328 100.618C219.328 101.661 219.568 102.419 220.041 102.901C220.513 103.382 221.048 103.614 221.646 103.614Z" fill="black" stroke="black" stroke-width="12" stroke-linecap="round" stroke-linejoin="round"/>
<path d="M265.366 98.5767C265.91 100.663 266.124 102.767 266.017 104.88C265.901 106.993 265.437 108.901 264.617 110.603C263.797 112.306 262.629 113.688 261.105 114.758C259.58 115.828 257.708 116.363 255.488 116.363C253.803 116.363 252.305 116.06 250.995 115.444C249.675 114.829 248.543 113.813 247.589 112.378C246.635 110.951 245.842 109.061 245.209 106.725C244.576 104.389 244.121 101.519 243.845 98.1042C243.212 89.8843 243.934 83.8041 246.02 79.8458C248.106 75.8963 251.583 73.9171 256.442 73.9171C258.671 73.9171 260.356 74.2648 261.515 74.9691C262.674 75.6734 263.44 76.6184 263.833 77.7953C264.216 78.981 264.314 80.3539 264.109 81.9141C263.904 83.4832 263.574 85.1236 263.119 86.8531C262.665 88.5827 262.166 90.3301 261.622 92.0953C261.078 93.8605 260.641 95.5723 260.329 97.2038C260.008 98.7907 259.999 100.021 260.293 100.886C260.588 101.751 261.033 102.25 261.622 102.384C262.21 102.517 262.861 102.268 263.565 101.635C264.27 101.002 264.867 99.9764 265.366 98.5678V98.5767Z" fill="black" stroke="black" stroke-width="12" stroke-linecap="round" stroke-linejoin="round"/>
<path d="M80.3745 90.4549C81.2393 88.2261 81.4711 86.3717 81.0877 84.865C80.7044 83.3673 79.8931 82.2172 78.6717 81.4238C77.4414 80.6303 75.9258 80.1756 74.1071 80.0597C72.2884 79.9438 70.4162 80.1756 68.4905 80.7373C66.5559 81.3079 64.6748 82.2172 62.8382 83.4654C61.0017 84.7135 59.4683 86.2915 58.2379 88.1994C57.0076 90.1072 56.1696 92.3539 55.7149 94.9393C55.2603 97.5247 55.4653 100.431 56.3301 103.658C56.9185 105.843 57.8992 107.59 59.2632 108.901C60.6272 110.22 62.1785 111.174 63.9259 111.762C65.6733 112.351 67.5544 112.591 69.5782 112.476C71.6019 112.36 73.5276 111.976 75.3642 111.317C77.2007 110.657 78.8946 109.765 80.4369 108.624C81.9793 107.492 83.1828 106.173 84.0476 104.675C84.636 103.676 85.3671 102.981 86.2229 102.597C87.0877 102.214 87.9792 102.107 88.9153 102.294C89.8425 102.473 90.7519 102.901 91.6434 103.551C92.526 104.211 93.2927 105.076 93.9257 106.137C94.5587 107.207 95.0223 108.428 95.3254 109.819C95.6196 111.201 95.6285 112.716 95.3611 114.348C94.951 116.844 93.792 119.037 91.8841 120.918C89.9763 122.799 87.6405 124.253 84.8678 125.278C82.0952 126.303 79.0283 126.847 75.6762 126.909C72.3151 126.981 68.9897 126.455 65.7 125.34C62.4103 124.226 59.281 122.452 56.3301 120.027C53.3791 117.593 50.9007 114.41 48.9037 110.461C47.5396 107.688 46.6214 104.773 46.1489 101.706C45.6764 98.6391 45.6585 95.599 46.1132 92.5767C46.5679 89.5545 47.4951 86.6392 48.9037 83.822C50.3123 81.0047 52.1934 78.4817 54.556 76.2618C56.9185 74.033 59.7535 72.1876 63.07 70.7076C66.3865 69.2277 70.1755 68.2916 74.4459 67.8815C78.7163 67.4714 82.4874 67.6408 85.7504 68.3897C89.0223 69.1385 91.7861 70.2529 94.0594 71.724C96.3328 73.2039 98.1248 74.9156 99.4443 76.8681C100.764 78.8205 101.611 80.8175 102.003 82.8591C102.386 84.9007 102.333 86.871 101.834 88.7521C101.334 90.6332 100.407 92.238 99.0431 93.5574C97.679 94.8769 96.2169 95.8486 94.6479 96.4905C93.0788 97.1235 91.5364 97.498 90.0119 97.6139C88.4874 97.7298 87.061 97.6049 85.7237 97.2394C84.3864 96.8739 83.2452 96.3568 82.3181 95.6703C81.3909 94.9928 80.7311 94.1993 80.3389 93.29C79.9555 92.3806 79.9644 91.4267 80.3745 90.4282V90.4549Z" fill="white"/>
<path d="M140.731 95.9023C141.275 97.9884 141.489 100.092 141.382 102.205C141.266 104.318 140.802 106.226 139.982 107.929C139.162 109.632 137.994 111.014 136.478 112.083C134.954 113.153 133.082 113.688 130.862 113.688C129.23 113.688 127.822 113.465 126.636 113.011C125.45 112.556 124.469 111.976 123.676 111.272C122.882 110.568 122.276 109.774 121.875 108.892C121.474 108.009 121.242 107.109 121.197 106.199C121.153 107.109 120.877 108.018 120.377 108.927C119.878 109.837 119.209 110.657 118.371 111.379C117.533 112.11 116.535 112.699 115.376 113.153C114.217 113.608 112.96 113.786 111.596 113.697C109.866 113.608 108.315 113.207 106.933 112.502C105.551 111.798 104.392 110.853 103.456 109.676C102.529 108.5 101.842 107.118 101.415 105.557C100.987 103.988 100.862 102.277 101.04 100.413C101.272 98.14 101.789 96.1697 102.609 94.4847C103.429 92.8087 104.392 91.4179 105.507 90.3302C106.621 89.2426 107.807 88.4491 109.082 87.9498C110.357 87.4506 111.578 87.201 112.764 87.201C113.949 87.201 114.966 87.3258 115.83 87.5754C116.695 87.825 117.444 88.1549 118.077 88.565C118.71 88.9751 119.281 89.4387 119.78 89.9647C120.279 90.4907 120.734 90.9989 121.144 91.4981C121.964 90.0449 123.132 88.9216 124.657 88.1281C126.181 87.3347 128.009 87.0227 130.139 87.2099C132.636 87.4417 134.294 88.2886 135.114 89.7686C135.934 91.2485 136.113 93.4595 135.658 96.4104C135.48 97.5962 135.542 98.4877 135.863 99.1028C136.184 99.718 136.621 100.021 137.191 100.021C137.762 100.021 138.368 99.6912 139.028 99.0315C139.688 98.3718 140.267 97.3376 140.766 95.929L140.731 95.9023ZM118.46 100.939C119.049 100.939 119.584 100.699 120.065 100.226C120.547 99.7536 120.778 98.9869 120.778 97.9438C120.823 96.8562 120.627 96.0271 120.199 95.4565C119.771 94.8859 119.192 94.6006 118.46 94.6006C117.729 94.6006 117.159 94.8859 116.722 95.4565C116.294 96.0271 116.098 96.8562 116.143 97.9438C116.143 98.9869 116.383 99.7447 116.856 100.226C117.328 100.708 117.863 100.939 118.46 100.939Z" fill="white"/>
<path d="M147.266 97.3999C147.355 97.7654 148.015 97.9081 149.245 97.8457C150.475 97.7744 152.018 97.6317 153.881 97.3999C154.79 97.3108 155.824 97.284 156.983 97.3286C158.142 97.3732 159.257 97.5693 160.318 97.9081C161.387 98.2469 162.315 98.7818 163.108 99.5039C163.902 100.235 164.41 101.207 164.642 102.437C164.864 103.667 164.793 104.969 164.401 106.351C164.017 107.733 163.313 109.017 162.288 110.202C161.263 111.388 159.916 112.369 158.231 113.162C156.555 113.956 154.532 114.375 152.169 114.419C149.628 114.464 147.56 114.143 145.973 113.465C144.386 112.788 143.147 111.923 142.264 110.88C141.382 109.837 140.811 108.713 140.561 107.51C140.312 106.306 140.303 105.21 140.526 104.202C140.749 102.927 141.07 102.241 141.48 102.125C141.89 102.009 142.55 102.134 143.459 102.499C144.136 102.776 144.921 103.025 145.813 103.248C146.695 103.471 147.908 103.587 149.459 103.587C150.234 103.587 151.01 103.56 151.812 103.516C152.606 103.471 153.346 103.373 154.023 103.213C154.701 103.052 155.307 102.847 155.824 102.598C156.341 102.348 156.698 102.018 156.876 101.608C157.099 101.109 156.716 100.904 155.717 100.993C154.719 101.082 153.087 101.332 150.814 101.742C149.129 102.063 147.587 102.116 146.178 101.911C144.769 101.706 143.566 101.323 142.567 100.752C141.569 100.181 140.793 99.4237 140.249 98.4698C139.706 97.5158 139.474 96.446 139.572 95.2692C139.661 93.8606 140.027 92.5589 140.659 91.3554C141.292 90.1518 142.148 89.1087 143.209 88.2261C144.279 87.3435 145.527 86.657 146.954 86.1845C148.38 85.712 149.914 85.4713 151.554 85.4713C154.826 85.4713 157.465 86.2469 159.488 87.7893C161.512 89.3316 162.769 91.4 163.269 93.9854C163.491 95.4386 163.358 96.3658 162.858 96.7759C162.359 97.186 161.744 97.1592 161.022 96.7045C160.246 96.2944 159.15 96.0091 157.714 95.8487C156.288 95.6882 154.799 95.6525 153.257 95.7417C152.624 95.7863 151.937 95.8487 151.215 95.9111C150.493 95.9824 149.815 96.0805 149.209 96.2142C148.594 96.3479 148.095 96.5084 147.711 96.6956C147.328 96.8739 147.177 97.1057 147.266 97.3732V97.3999Z" fill="white"/>
<path d="M207.007 95.9022C207.551 97.9884 207.765 100.092 207.658 102.205C207.542 104.318 207.078 106.226 206.258 107.929C205.438 109.632 204.27 111.014 202.754 112.083C201.23 113.153 199.358 113.688 197.138 113.688C195.506 113.688 194.115 113.439 192.983 112.939C191.851 112.44 190.924 111.78 190.228 110.96C189.524 110.14 188.998 109.239 188.659 108.232C188.32 107.234 188.106 106.235 188.008 105.237C187.643 106.28 187.135 107.305 186.475 108.303C185.815 109.302 185.013 110.202 184.059 110.996C183.105 111.789 182.035 112.44 180.858 112.939C179.673 113.439 178.407 113.688 177.043 113.688C175.179 113.688 173.548 113.323 172.139 112.601C170.731 111.878 169.581 110.889 168.698 109.641C167.815 108.393 167.191 106.913 166.826 105.21C166.46 103.507 166.371 101.661 166.549 99.6556C166.915 94.9751 168.154 91.6497 170.258 89.6794C172.362 87.7091 175.269 86.88 178.942 87.192C180.172 87.2812 181.153 87.4862 181.901 87.8072C182.65 88.1281 183.159 88.6274 183.435 89.305C183.711 89.9825 183.774 90.874 183.64 91.9617C183.506 93.0494 183.185 94.4134 182.686 96.0449C182.276 97.3643 182.178 98.4163 182.383 99.2098C182.588 100.003 182.927 100.449 183.408 100.538C183.881 100.627 184.398 100.333 184.942 99.6556C185.485 98.978 185.869 97.819 186.101 96.1786C186.6 92.9067 187.652 90.5353 189.265 89.0642C190.879 87.5932 193.224 86.9602 196.317 87.192C198.814 87.4238 200.472 88.2708 201.292 89.7507C202.112 91.2306 202.291 93.4416 201.836 96.3926C201.658 97.5783 201.738 98.4698 202.077 99.085C202.415 99.7001 202.87 100.003 203.441 100.003C204.011 100.003 204.618 99.6734 205.277 99.0137C205.937 98.3539 206.516 97.3198 207.016 95.9112L207.007 95.9022Z" fill="white"/>
<path d="M245.699 95.9023C246.243 97.9884 246.457 100.092 246.35 102.205C246.234 104.318 245.77 106.226 244.95 107.929C244.13 109.632 242.962 111.014 241.446 112.083C239.922 113.153 238.05 113.688 235.83 113.688C234.198 113.688 232.79 113.465 231.604 113.011C230.418 112.556 229.438 111.976 228.644 111.272C227.851 110.568 227.244 109.774 226.843 108.892C226.442 108.009 226.21 107.109 226.166 106.199C226.121 107.109 225.845 108.018 225.345 108.927C224.846 109.837 224.178 110.657 223.34 111.379C222.502 112.11 221.503 112.699 220.344 113.153C219.185 113.608 217.928 113.786 216.564 113.697C214.834 113.608 213.283 113.207 211.901 112.502C210.519 111.798 209.36 110.853 208.424 109.676C207.497 108.5 206.811 107.118 206.383 105.557C205.955 103.988 205.83 102.277 206.008 100.413C206.24 98.14 206.757 96.1697 207.577 94.4847C208.398 92.8087 209.36 91.4179 210.475 90.3302C211.589 89.2426 212.775 88.4491 214.05 87.9498C215.325 87.4506 216.546 87.201 217.732 87.201C218.918 87.201 219.934 87.3258 220.799 87.5754C221.663 87.825 222.412 88.1549 223.045 88.565C223.678 88.9751 224.249 89.4387 224.748 89.9647C225.247 90.4907 225.702 90.9989 226.112 91.4981C226.932 90.0449 228.1 88.9216 229.625 88.1281C231.149 87.3347 232.977 87.0227 235.108 87.2099C237.604 87.4417 239.262 88.2886 240.082 89.7686C240.903 91.2485 241.081 93.4595 240.626 96.4104C240.448 97.5962 240.51 98.4877 240.831 99.1028C241.152 99.718 241.589 100.021 242.16 100.021C242.73 100.021 243.336 99.6912 243.996 99.0315C244.656 98.3718 245.235 97.3376 245.735 95.929L245.699 95.9023ZM223.429 100.939C224.017 100.939 224.552 100.699 225.033 100.226C225.515 99.7536 225.747 98.9869 225.747 97.9438C225.791 96.8562 225.595 96.0271 225.167 95.4565C224.739 94.8859 224.16 94.6006 223.429 94.6006C222.698 94.6006 222.127 94.8859 221.69 95.4565C221.262 96.0271 221.066 96.8562 221.111 97.9438C221.111 98.9869 221.351 99.7447 221.824 100.226C222.296 100.708 222.831 100.939 223.429 100.939Z" fill="white"/>
<path d="M267.149 95.9021C267.693 97.9883 267.907 100.092 267.8 102.205C267.684 104.318 267.22 106.226 266.4 107.929C265.58 109.632 264.412 111.014 262.888 112.083C261.363 113.153 259.491 113.688 257.271 113.688C255.586 113.688 254.088 113.385 252.778 112.77C251.458 112.155 250.326 111.138 249.372 109.703C248.418 108.277 247.625 106.386 246.992 104.051C246.359 101.715 245.904 98.8442 245.628 95.4296C244.995 87.2098 245.717 81.1296 247.803 77.1712C249.889 73.2217 253.366 71.2426 258.225 71.2426C260.454 71.2426 262.139 71.5902 263.298 72.2946C264.457 72.9989 265.223 73.9439 265.616 75.1207C265.999 76.3064 266.097 77.6794 265.892 79.2395C265.687 80.8086 265.357 82.449 264.902 84.1786C264.448 85.9081 263.949 87.6555 263.405 89.4208C262.861 91.186 262.424 92.8977 262.112 94.5292C261.791 96.1161 261.782 97.3464 262.076 98.2112C262.371 99.076 262.816 99.5752 263.405 99.709C263.993 99.8427 264.644 99.5931 265.348 98.9601C266.053 98.3271 266.65 97.3018 267.149 95.8932V95.9021Z" fill="white"/>
<path d="M111.257 38.7286C113.281 38.2561 115.331 37.8282 117.417 37.4538C119.504 37.0704 121.518 36.8297 123.462 36.7227C125.405 36.6157 127.233 36.687 128.963 36.9367C130.683 37.1863 132.208 37.7123 133.536 38.4968C134.677 39.1922 135.453 39.9857 135.881 40.8861C136.309 41.7866 136.505 42.6692 136.469 43.5429C136.434 44.4077 136.238 45.2279 135.881 45.9857C135.515 46.7434 135.087 47.3229 134.597 47.7152C134.107 48.1075 133.625 48.268 133.153 48.1877C132.68 48.1075 132.333 47.6706 132.11 46.8861C131.602 45.1833 130.523 43.8192 128.865 42.8118C127.206 41.8044 124.986 41.3943 122.205 41.5815C122.998 41.956 123.533 42.5176 123.819 43.2398C124.104 43.9708 124.211 44.8178 124.148 45.7984C124.086 46.7791 123.899 47.8579 123.578 49.0436C123.266 50.2293 122.882 51.4953 122.437 52.8326C121.991 54.1788 121.545 55.5696 121.09 57.0227C120.636 58.4759 120.226 59.9291 119.878 61.3823C119.718 62.0777 119.566 62.8711 119.406 63.7538C119.245 64.6364 119.111 65.5546 119.004 66.4997C118.897 67.4447 118.817 68.3719 118.764 69.2723C118.71 70.1727 118.728 71.0019 118.79 71.7597C118.915 73.0524 118.79 74.1757 118.389 75.1207C117.997 76.0657 117.195 76.6096 116 76.7344C115.492 76.7968 114.93 76.7165 114.315 76.4937C113.7 76.2708 113.085 75.8785 112.469 75.3079C111.854 74.7374 111.284 73.9528 110.767 72.9365C110.25 71.929 109.831 70.6542 109.536 69.1207C109.233 67.5873 109.091 65.7597 109.108 63.62C109.126 61.4893 109.349 59.0019 109.795 56.158C110.205 53.5012 110.633 51.2902 111.079 49.4983C111.524 47.7152 111.997 46.2353 112.496 45.0674C111.007 45.8876 109.51 46.7167 107.994 47.5547C106.478 48.3928 104.936 49.0882 103.376 49.6409C101.816 50.1937 100.22 50.5324 98.5884 50.6572C96.9569 50.7821 95.2987 50.5324 93.5869 49.8994C92.1337 49.3645 91.0372 48.6067 90.2972 47.6261C89.5572 46.6454 89.0847 45.6023 88.8797 44.4968C88.6746 43.3913 88.6924 42.2947 88.9242 41.2071C89.156 40.1194 89.5216 39.2011 90.0119 38.4612C90.5022 37.7212 91.0728 37.2041 91.7147 36.9188C92.3655 36.6335 92.9896 36.7494 93.5869 37.2487C94.5052 38.0065 95.4146 38.6217 96.3328 39.0942C97.2511 39.5667 98.3477 39.8787 99.6226 40.0213C100.897 40.164 102.467 40.1283 104.312 39.9233C106.157 39.7182 108.475 39.317 111.257 38.7108V38.7286Z" fill="black" stroke="black" stroke-width="12" stroke-linecap="round" stroke-linejoin="round"/>
<path d="M127.929 54.1342C127.768 51.103 127.813 48.6067 128.044 46.6453C128.285 44.684 128.731 43.1238 129.391 41.9559C130.05 40.788 130.96 39.9767 132.119 39.5131C133.269 39.0585 134.686 38.8267 136.362 38.8267C138.261 38.8267 139.599 39.2189 140.392 40.0124C141.185 40.8058 141.605 41.8489 141.649 43.1416C141.694 44.4344 141.462 45.8965 140.936 47.5279C140.419 49.1594 139.804 50.7909 139.108 52.4313C139.741 51.7984 140.428 51.2634 141.168 50.8177C141.908 50.3719 142.71 50.0777 143.557 49.9172C144.662 49.73 145.679 49.7478 146.615 49.9618C147.542 50.1847 148.336 50.577 148.986 51.1475C149.637 51.7181 150.127 52.4313 150.457 53.305C150.787 54.1787 150.921 55.1772 150.859 56.3184C150.796 57.1386 150.885 57.7627 151.117 58.1906C151.358 58.6185 151.661 58.8325 152.044 58.8325C152.428 58.8325 152.829 58.6007 153.257 58.146C153.685 57.6913 154.068 56.9692 154.416 55.9885C154.79 57.4417 154.942 58.9038 154.861 60.3748C154.781 61.8458 154.46 63.1742 153.89 64.351C153.319 65.5278 152.508 66.4996 151.447 67.2396C150.386 67.9795 149.084 68.354 147.542 68.354C146 68.354 144.761 68.1578 143.842 67.7656C142.924 67.3733 142.229 66.8562 141.756 66.2232C141.284 65.5903 140.98 64.8859 140.856 64.1103C140.731 63.3347 140.713 62.5502 140.811 61.7656C140.873 61.1059 140.793 60.5977 140.57 60.25C140.347 59.9023 140.098 59.7419 139.813 59.7775C139.527 59.8132 139.26 60.0182 139.01 60.4194C138.761 60.8117 138.627 61.4179 138.627 62.247C138.627 62.3094 138.627 62.3808 138.654 62.461C138.671 62.5412 138.68 62.6126 138.68 62.675C138.743 63.4952 138.778 64.253 138.796 64.9484C138.814 65.6437 138.752 66.2411 138.609 66.7492C138.466 67.2574 138.217 67.6497 137.851 67.935C137.486 68.2203 136.96 68.3629 136.264 68.3629C135.319 68.3629 134.374 68.2024 133.447 67.8904C132.511 67.5784 131.673 66.9186 130.915 65.9201C130.157 64.9216 129.507 63.4952 128.972 61.6319C128.437 59.7686 128.089 57.2723 127.929 54.1431V54.1342Z" fill="black" stroke="black" stroke-width="12" stroke-linecap="round" stroke-linejoin="round"/>
<path d="M170.392 52.7078C170.838 53.3675 171.025 54.1253 170.962 54.9812C170.9 55.837 170.624 56.6305 170.133 57.3704C169.643 58.1104 168.957 58.7256 168.074 59.2159C167.191 59.7062 166.13 59.9202 164.9 59.8578C165.346 60.2055 165.961 60.3749 166.746 60.3749C168.012 60.3749 169.206 59.9915 170.347 59.2159C171.488 58.4403 172.291 57.3615 172.763 55.9708C173.173 57.2635 173.28 58.7791 173.093 60.5175C172.808 63.0138 171.809 64.9395 170.08 66.2946C168.359 67.6497 166.202 68.3362 163.616 68.3362C161.031 68.3362 158.873 67.6586 157.144 66.2946C155.423 64.9395 154.416 63.0049 154.13 60.5175C153.943 58.9039 154.023 57.4418 154.371 56.1312C154.719 54.8207 155.298 53.6974 156.127 52.7702C156.948 51.843 157.991 51.1119 159.257 50.5859C160.523 50.0689 161.976 49.8014 163.616 49.8014C165.168 49.8014 166.523 50.0421 167.691 50.5146C168.858 50.9871 169.759 51.7182 170.392 52.6899V52.7078ZM167.075 56.5948C167.102 56.3452 167.049 56.1312 166.906 55.9529C166.763 55.7835 166.576 55.6498 166.335 55.5785C166.095 55.4982 165.854 55.4804 165.604 55.5339C165.355 55.5785 165.114 55.7033 164.891 55.8905C164.642 56.051 164.445 56.2828 164.321 56.6037C164.196 56.9158 164.098 57.2635 164.035 57.6468C164.757 57.8073 165.435 57.8162 166.05 57.6736C166.665 57.5309 167.004 57.1743 167.066 56.6037L167.075 56.5948Z" fill="black" stroke="black" stroke-width="12" stroke-linecap="round" stroke-linejoin="round"/>
<path d="M113.04 36.0541C115.064 35.5816 117.114 35.1536 119.2 34.7792C121.287 34.3958 123.301 34.1551 125.245 34.0481C127.189 33.9412 129.016 34.0125 130.746 34.2621C132.466 34.5117 133.991 35.0377 135.319 35.8223C136.46 36.5177 137.236 37.3111 137.664 38.2116C138.092 39.112 138.288 39.9946 138.252 40.8683C138.217 41.7331 138.021 42.5533 137.664 43.3111C137.298 44.0689 136.87 44.6484 136.38 45.0407C135.89 45.4329 135.408 45.5934 134.936 45.5132C134.463 45.4329 134.116 44.9961 133.893 44.2115C133.385 42.5087 132.306 41.1447 130.648 40.1373C128.989 39.1298 126.77 38.7197 123.988 38.907C124.781 39.2814 125.316 39.8431 125.602 40.5652C125.887 41.2962 125.994 42.1432 125.931 43.1239C125.869 44.1045 125.682 45.1833 125.361 46.369C125.049 47.5548 124.666 48.8207 124.22 50.158C123.774 51.5042 123.328 52.895 122.874 54.3482C122.419 55.8014 122.009 57.2546 121.661 58.7077C121.501 59.4031 121.349 60.1966 121.189 61.0792C121.028 61.9618 120.894 62.8801 120.787 63.8251C120.68 64.7701 120.6 65.6973 120.547 66.5977C120.493 67.4982 120.511 68.3273 120.573 69.0851C120.698 70.3778 120.573 71.5011 120.172 72.4461C119.78 73.3912 118.978 73.935 117.783 74.0598C117.275 74.1222 116.713 74.042 116.098 73.8191C115.483 73.5962 114.868 73.2039 114.252 72.6334C113.637 72.0628 113.067 71.2782 112.55 70.2619C112.033 69.2545 111.614 67.9796 111.319 66.4462C111.016 64.9128 110.874 63.0851 110.891 60.9455C110.909 58.8147 111.132 56.3274 111.578 53.4834C111.988 50.8267 112.416 48.6157 112.862 46.8237C113.307 45.0407 113.78 43.5607 114.279 42.3928C112.79 43.213 111.293 44.0421 109.777 44.8802C108.261 45.7182 106.719 46.4136 105.159 46.9663C103.599 47.5191 102.003 47.8579 100.371 47.9827C98.7399 48.1075 97.0817 47.8579 95.37 47.2249C93.9168 46.69 92.8202 45.9322 92.0802 44.9515C91.3403 43.9708 90.8678 42.9277 90.6627 41.8222C90.4577 40.7168 90.4755 39.6202 90.7073 38.5325C90.9391 37.4449 91.3046 36.5266 91.795 35.7866C92.2853 35.0467 92.8559 34.5296 93.4978 34.2443C94.1486 33.959 94.7727 34.0749 95.37 34.5741C96.2882 35.3319 97.1976 35.9471 98.1159 36.4196C99.0341 36.8921 100.131 37.2041 101.406 37.3468C102.68 37.4894 104.25 37.4538 106.095 37.2487C107.94 37.0437 110.258 36.6425 113.04 36.0362V36.0541Z" fill="white"/>
<path d="M129.712 51.4596C129.551 48.4284 129.596 45.9321 129.827 43.9708C130.068 42.0094 130.514 40.4493 131.174 39.2814C131.833 38.1135 132.743 37.3022 133.902 36.8386C135.052 36.3839 136.469 36.1521 138.145 36.1521C140.044 36.1521 141.382 36.5444 142.175 37.3378C142.969 38.1313 143.388 39.1744 143.432 40.4671C143.477 41.7598 143.245 43.2219 142.719 44.8534C142.202 46.4849 141.587 48.1164 140.891 49.7568C141.524 49.1238 142.211 48.5889 142.951 48.1431C143.691 47.6974 144.493 47.4032 145.34 47.2427C146.445 47.0555 147.462 47.0733 148.398 47.2873C149.325 47.5101 150.119 47.9024 150.769 48.473C151.42 49.0436 151.911 49.7568 152.24 50.6305C152.57 51.5042 152.704 52.5027 152.642 53.6438C152.579 54.464 152.668 55.0881 152.9 55.516C153.141 55.944 153.444 56.1579 153.827 56.1579C154.211 56.1579 154.612 55.9261 155.04 55.4715C155.468 55.0168 155.851 54.2946 156.199 53.314C156.573 54.7672 156.725 56.2293 156.645 57.7003C156.564 59.1713 156.243 60.4997 155.673 61.6765C155.102 62.8533 154.291 63.8251 153.23 64.565C152.169 65.305 150.867 65.6794 149.325 65.6794C147.783 65.6794 146.544 65.4833 145.625 65.091C144.707 64.6987 144.012 64.1817 143.539 63.5487C143.067 62.9157 142.763 62.2114 142.639 61.4358C142.514 60.6601 142.496 59.8756 142.594 59.0911C142.656 58.4313 142.576 57.9232 142.353 57.5755C142.13 57.2278 141.881 57.0673 141.596 57.103C141.31 57.1386 141.043 57.3437 140.793 57.7448C140.544 58.1371 140.41 58.7434 140.41 59.5725C140.41 59.6349 140.41 59.7062 140.437 59.7864C140.454 59.8667 140.463 59.938 140.463 60.0004C140.526 60.8206 140.561 61.5784 140.579 62.2738C140.597 62.9692 140.535 63.5665 140.392 64.0747C140.249 64.5828 140 64.9751 139.634 65.2604C139.269 65.5457 138.743 65.6883 138.047 65.6883C137.102 65.6883 136.157 65.5279 135.23 65.2158C134.294 64.9038 133.456 64.2441 132.698 63.2456C131.94 62.2471 131.29 60.8206 130.755 58.9573C130.22 57.094 129.872 54.5978 129.712 51.4685V51.4596Z" fill="white"/>
<path d="M172.175 50.0332C172.621 50.6929 172.808 51.4507 172.745 52.3066C172.683 53.1625 172.407 53.9559 171.916 54.6959C171.426 55.4359 170.74 56.051 169.857 56.5413C168.974 57.0317 167.913 57.2456 166.683 57.1832C167.129 57.5309 167.744 57.7003 168.529 57.7003C169.795 57.7003 170.989 57.317 172.13 56.5413C173.271 55.7657 174.074 54.687 174.546 53.2962C174.956 54.5889 175.063 56.1045 174.876 57.843C174.591 60.3392 173.592 62.2649 171.863 63.6201C170.142 64.9752 167.985 65.6616 165.399 65.6616C162.814 65.6616 160.656 64.9841 158.927 63.6201C157.206 62.2649 156.199 60.3303 155.913 57.843C155.726 56.2293 155.806 54.7672 156.154 53.4567C156.502 52.1461 157.081 51.0228 157.91 50.0956C158.731 49.1684 159.774 48.4374 161.04 47.9114C162.306 47.3943 163.759 47.1268 165.399 47.1268C166.951 47.1268 168.306 47.3675 169.474 47.8401C170.641 48.3126 171.542 49.0436 172.175 50.0154V50.0332ZM168.858 53.9203C168.885 53.6706 168.832 53.4567 168.689 53.2784C168.546 53.109 168.359 52.9752 168.118 52.9039C167.878 52.8237 167.637 52.8058 167.387 52.8593C167.138 52.9039 166.897 53.0287 166.674 53.216C166.425 53.3764 166.228 53.6082 166.104 53.9292C165.979 54.2412 165.881 54.5889 165.818 54.9723C166.54 55.1327 167.218 55.1416 167.833 54.999C168.448 54.8564 168.787 54.4997 168.85 53.9292L168.858 53.9203Z" fill="white"/>
</svg>
