<svg width="340" height="338" viewBox="0 0 340 338" fill="none" xmlns="http://www.w3.org/2000/svg">
    <path d="M157.588 250.687C145.249 250.687 137.872 242.038 139.144 224.484L140.67 197.137C140.797 194.72 142.705 192.812 145.249 192.812H158.096C160.895 192.812 162.93 195.102 162.675 197.773L160.767 217.87C160.64 225.375 161.912 227.41 165.474 227.41L167.763 226.901C169.671 226.392 170.943 224.739 170.816 222.704L168.908 197.773C168.654 195.102 170.816 192.812 173.487 192.812H185.571C187.988 192.812 190.023 194.72 190.15 197.137L193.076 243.819C193.33 247.507 190.405 250.687 186.716 250.687H174.886C172.342 250.687 170.562 248.143 171.452 245.727L165.474 249.034C164.075 249.924 161.912 250.687 157.588 250.687Z" fill="#f0e3c0"/>
    <path d="M273.733 281.503C271.195 281.503 269.08 279.247 269.08 276.709L272.182 189.145C272.323 186.607 274.297 184.633 276.835 184.633L288.679 184.492C291.218 184.492 293.333 186.466 293.333 189.004L294.179 228.062C294.32 229.754 296.435 230.177 297.14 228.767L301.934 219.32C302.78 218.051 304.331 217.346 305.882 217.346H318.854C322.662 217.346 324.918 221.576 322.803 224.678L314.765 236.522C313.919 237.932 313.919 239.765 314.765 241.176L336.198 274.312C338.172 277.414 335.916 281.503 332.25 281.503H313.214C311.099 281.503 309.266 280.093 308.702 278.119L300.383 250.341C299.96 249.072 298.409 248.79 297.704 249.777L296.717 250.905C295.025 253.02 294.038 255.699 294.038 258.519L293.897 276.85C293.897 279.388 291.782 281.503 289.243 281.503H273.733Z" fill="#f0e3c0"/>
    <path d="M205.859 238.391C203.188 238.391 201.153 236.228 201.28 233.557L205.096 184.077C205.223 181.915 206.877 180.134 209.039 179.88L220.487 178.735C223.158 178.48 225.448 180.643 225.448 183.314L229.9 181.024C231.935 180.007 234.097 179.625 237.405 179.625C242.365 179.625 247.072 180.897 250.379 184.586C250.379 184.586 259.664 193.744 259.664 233.557C259.664 236.228 257.502 238.391 254.831 238.391H237.405C234.733 238.391 232.698 236.101 232.825 233.557C232.825 233.557 238.422 194.635 230.536 194.635L226.593 195.398V234.066C226.338 236.483 224.43 238.391 222.014 238.391H205.859Z" fill="#f0e3c0"/>
    <path d="M74.6899 294.034C67.2319 294.034 67.0857 290.378 67.2319 290.086L70.7416 204.245C70.8878 196.495 73.9587 193.57 77.7609 193.57H128.358C129.528 193.57 130.406 194.448 130.552 195.617L130.698 202.637C130.844 203.807 129.821 204.684 128.505 204.538L98.2339 201.906C95.7479 201.906 93.8468 203.807 93.8468 206.146L93.7006 228.959C93.5543 231.738 96.0404 233.785 98.6726 233.346L120.316 227.497C121.778 227.058 123.094 228.082 123.094 229.544L123.386 236.71C123.386 237.88 122.655 238.757 121.632 238.903L97.3565 242.559C95.1629 242.852 93.5543 244.753 93.4081 247.092L95.6017 285.699C95.8941 290.232 92.2382 294.034 87.7049 294.034H74.6899Z" fill="#f0e3c0"/>
    <path d="M74.8062 101.778C72.63 101.778 70.8722 99.9369 70.9559 97.6769L75.141 51.3897C75.2247 50.2179 74.2203 49.2972 73.0485 49.3809L64.0087 50.2179C62.9205 50.3016 61.9161 49.4646 61.9161 48.2927V45.7817C61.9161 44.7772 62.7531 43.8565 63.8413 43.8565H101.256C102.261 43.8565 103.181 44.7772 103.181 45.7817V48.2927C103.181 49.4646 102.177 50.3853 101.005 50.2179L91.4629 49.3809C90.2911 49.2134 89.2867 50.2179 89.3704 51.3897L93.5555 97.6769C93.6392 99.9369 91.8815 101.778 89.7052 101.778H74.8062Z" fill="#f0e3c0"/>
    <path d="M103.442 111.822C101.684 111.822 100.261 110.316 100.345 108.558L102.94 57.2485C103.107 55.6582 104.446 54.3189 106.037 54.3189L111.394 54.2352C113.151 54.2352 114.574 55.6582 114.574 57.4159V75.5792L118.173 73.8215C119.178 73.3193 120.685 73.2356 122.442 73.2356C135.5 73.2356 136.923 99.4343 137.006 108.642C137.09 110.399 135.667 111.822 133.909 111.822H124.2C122.526 111.822 121.187 110.483 121.103 108.809L120.099 83.782C120.099 81.0199 119.513 79.011 117.002 79.011C115.746 79.3458 114.909 80.6851 114.909 82.1917L114.574 108.725C114.574 110.483 113.151 111.822 111.477 111.822H103.442Z" fill="#f0e3c0"/>
    <path d="M159.913 107.435C146.772 107.435 141.833 102.915 142.168 89.858C142.419 77.1353 148.362 68.2628 159.913 68.2628C170.041 68.2628 173.138 76.3819 174.059 82.1574C174.561 85.0032 172.301 87.6817 169.371 87.6817H155.812C155.812 88.435 155.728 89.272 155.728 90.0254C155.728 97.9771 156.983 101.241 159.578 101.241C161.336 101.241 162.424 99.7348 162.926 96.1356C163.177 94.3779 165.27 93.6246 166.525 94.8801L171.045 99.4C172.719 101.074 172.385 104.004 170.292 105.175C167.614 106.766 164.182 107.435 159.913 107.435ZM162.843 82.4085C162.34 77.6375 161.336 74.122 159.578 74.122C157.653 74.122 156.649 77.7212 156.146 82.4085H162.843Z" fill="#f0e3c0"/>
    <path d="M37.9351 184.595C14.923 184.595 1.39467 176.506 1.39467 143.453C1.39467 112.77 14.7835 87.8051 37.9351 87.8051C53.695 87.8051 64.7129 99.7993 70.0127 117.512C71.2679 121.696 68.1996 125.88 63.8761 125.88H54.5318C51.1846 125.88 48.5347 123.369 48.1163 120.162C46.3032 106.494 42.8165 97.1494 37.9351 97.1494C29.7066 97.1494 25.3831 118.069 25.3831 143.453C25.3831 156.284 29.9855 157.26 37.9351 157.26C45.1874 157.26 49.3715 153.634 49.3715 143.453C49.3715 142.755 49.3715 141.918 49.3715 141.221C49.3715 137.595 52.3003 134.666 55.9264 134.666H67.0838C70.5705 134.666 73.4993 137.455 73.6388 141.082C73.6388 141.779 73.6388 142.616 73.6388 143.453C73.6388 174.554 62.063 184.595 37.9351 184.595Z" fill="#f0e3c0"/>
    <path d="M280.578 175.486C277.713 175.486 275.347 173.12 275.222 170.255V167.515C272.482 172.123 266.628 175.362 262.642 175.362C249.19 175.362 239.973 168.013 243.585 154.312C247.197 140.611 252.055 137.123 262.891 137.123C264.386 137.123 266.628 137.248 268.123 137.497L274.849 138.493L274.724 132.888C274.724 128.903 270.987 127.408 266.379 127.408C263.639 127.408 260.151 130.522 257.162 132.764C254.671 134.632 251.058 133.262 250.809 130.397L250.436 125.291C250.187 123.422 251.308 121.679 253.176 120.931C257.162 119.187 262.891 117.817 270.738 117.817C286.183 117.817 293.905 125.291 294.653 140.237L296.272 169.881C296.521 172.871 294.155 175.362 291.041 175.362L280.578 175.486ZM267.749 153.565C270.365 153.565 272.607 153.316 275.098 152.693L274.973 146.714L268.496 146.59C264.261 146.59 262.891 147.461 262.891 149.579C262.767 151.945 264.137 153.565 267.749 153.565Z" fill="#f0e3c0"/>
    <path d="M201.996 168.243C189.914 168.243 182.689 159.773 183.935 142.585L185.43 115.805C185.554 113.439 187.423 111.571 189.914 111.571H202.494C205.234 111.571 207.227 113.813 206.978 116.428L205.109 136.108C204.985 143.457 206.23 145.45 209.718 145.45L211.96 144.951C213.828 144.453 215.074 142.834 214.949 140.841L213.081 116.428C212.832 113.813 214.949 111.571 217.565 111.571H229.398C231.764 111.571 233.757 113.439 233.882 115.805L236.746 161.517C236.996 165.129 234.131 168.243 230.519 168.243H218.935C216.444 168.243 214.7 165.752 215.572 163.386L209.718 166.624C208.348 167.496 206.23 168.243 201.996 168.243Z" fill="#f0e3c0"/>
    <path d="M322.215 202.078C311.899 202.078 304.058 193.688 304.608 184.059L309.01 111.981C309.148 109.505 311.624 107.579 314.787 107.579L325.654 107.442C328.68 107.442 331.294 109.368 331.431 111.981L336.521 195.063C336.658 198.915 333.632 202.078 329.781 202.078H322.215Z" fill="#f0e3c0"/>
    <path d="M117.516 183.199C114.651 183.199 112.284 180.832 112.16 177.967V175.227C109.419 179.836 103.565 183.074 99.5796 183.074C86.1276 183.074 76.9105 175.725 80.5226 162.024C84.1347 148.323 88.9924 144.836 99.8287 144.836C101.323 144.836 103.565 144.96 105.06 145.209L111.786 146.206L111.661 140.601C111.661 136.615 107.925 135.12 103.316 135.12C100.576 135.12 97.0885 138.234 94.0991 140.476C91.608 142.345 87.9959 140.975 87.7468 138.11L87.3732 133.003C87.124 131.135 88.245 129.391 90.1134 128.644C94.0991 126.9 99.8287 125.53 107.676 125.53C123.121 125.53 130.843 133.003 131.59 147.95L133.21 177.594C133.459 180.583 131.092 183.074 127.978 183.074L117.516 183.199ZM104.686 161.277C107.302 161.277 109.544 161.028 112.035 160.405L111.911 154.427L105.434 154.302C101.199 154.302 99.8287 155.174 99.8287 157.291C99.7041 159.658 101.074 161.277 104.686 161.277ZM159.833 183.572C151.986 183.572 145.758 181.953 141.524 180.209C138.908 179.088 137.538 176.099 138.41 173.484L141.15 165.761C142.022 163.145 144.762 161.651 147.378 162.274C150.99 163.021 155.723 163.768 159.086 163.768C163.445 163.768 164.94 163.145 164.94 162.024C164.94 160.654 162.947 160.032 155.349 159.035C145.011 157.54 139.282 153.804 139.655 142.843C140.029 130.387 148.872 125.031 159.584 125.031C166.31 125.031 170.794 126.152 175.154 128.021C177.146 128.768 178.018 131.01 177.271 132.878L175.527 137.238C174.78 138.982 172.912 139.978 171.043 139.48C167.556 138.608 163.819 138.11 159.709 138.11C156.346 138.11 155.349 138.733 155.349 139.604C155.349 140.601 156.844 141.224 165.065 142.469C175.652 143.964 182.129 151.313 182.502 163.27C183.001 176.846 175.901 183.572 159.833 183.572Z" fill="#f0e3c0"/>
    <path d="M246.037 99.693C243.367 92.9785 236.815 88.3134 229.399 88.3134H217.561C214.972 88.3134 212.41 88.8797 210.037 89.9583C207.664 88.8797 205.103 88.3134 202.487 88.3134H200.465C200.384 87.855 200.33 87.3966 200.276 86.9382C198.739 72.3227 209.363 59.1633 223.979 57.5993C224.923 57.4914 225.893 57.4375 226.837 57.4375C240.482 57.4375 251.888 67.6845 253.318 81.3023C253.938 87.1808 252.59 93.1403 249.462 98.156C248.922 98.3447 248.41 98.5335 247.897 98.7492C247.25 99.0189 246.63 99.3155 246.037 99.666V99.693Z" fill="#B02024"/>
    <path d="M256.581 96.0256C258.495 91.2257 259.25 85.9673 258.684 80.7629C256.958 64.4216 243.26 52.0712 226.837 52.0712C225.705 52.0712 224.545 52.1252 223.413 52.26C205.831 54.1206 193.049 69.9496 194.91 87.5313C194.91 87.801 194.964 88.0707 195.018 88.3133H189.894C187.899 88.3133 185.957 88.6639 184.043 89.3111C183.935 89.0684 183.8 88.7987 183.692 88.556C186.901 84.4842 188.222 79.3337 187.332 74.372C186.389 68.4125 184.15 63.1272 180.807 58.9475C189.22 49.5634 200.654 43.7118 213.22 42.3635C215.026 42.1748 216.833 42.0669 218.64 42.0669C244.662 42.0669 266.342 61.6171 269.093 87.5044C269.336 89.7965 269.416 92.1425 269.336 94.5694C264.778 94.6503 260.491 95.1357 256.527 95.9986L256.581 96.0256Z" fill="#E2522D"/>
    <path d="M288.886 98.2364C284.734 96.3218 279.988 95.1623 274.756 94.7578C274.864 92.1151 274.756 89.4995 274.487 86.9916C271.44 58.3269 247.44 36.7273 218.667 36.7273C216.672 36.7273 214.676 36.8351 212.681 37.0509C198.874 38.507 186.335 44.8979 177.032 55.1449C172.34 51.2619 166.461 49.2125 159.882 49.2125C158.399 49.2125 156.916 49.3203 155.486 49.5091C168.052 35.4329 185.499 26.3993 204.429 24.4039C207.126 24.1072 209.876 23.9724 212.6 23.9724C251.727 23.9724 284.356 53.3652 288.509 92.3309C288.725 94.2724 288.833 96.2409 288.886 98.2634V98.2364Z" fill="#FFC434"/>
    <path d="M295.385 102.174C295.034 101.904 294.683 101.635 294.306 101.365C294.36 98.0751 294.198 94.8392 293.874 91.7112C289.452 49.995 254.504 18.5258 212.599 18.5258C209.714 18.5258 206.775 18.6876 203.862 18.9842C180.914 21.4112 160.016 33.4919 146.425 52.1253C142.731 53.8781 139.576 56.305 136.96 59.4061C134.317 57.1679 131.324 55.6309 128.034 54.8219V51.8017C128.034 51.5051 128.034 51.2354 127.98 50.9388C144.484 29.6897 168.267 16.4495 195.018 13.618C198.496 13.2405 202.002 13.0518 205.48 13.0518C250.352 13.0518 290.126 44.494 300.643 88.0169C297.569 91.091 295.789 95.0819 295.546 99.3965L295.385 102.174Z" fill="#4989C8"/>
    <path d="M305.362 84.5919C293.497 39.8016 252.104 7.65831 205.507 7.65831C201.84 7.65831 198.145 7.84707 194.478 8.25155C167.593 11.1099 143.566 23.9187 126.308 44.4667C124.286 40.314 120.591 37.159 116.007 35.8376C115.872 35.3792 115.711 34.9478 115.549 34.4893C134.209 15.4784 159.018 3.4786 185.552 0.647181C189.624 0.215727 193.777 0 197.849 0C249.246 0 294.333 34.1118 308.463 83.2976C307.357 83.6481 306.332 84.0796 305.335 84.5919H305.362Z" fill="#2C2F59"/>
    </svg>
    