<svg width="935" height="667" viewBox="0 0 935 667" fill="none" xmlns="http://www.w3.org/2000/svg">
    <path
        d="M292.66 32.8808C300.741 30.9942 308.928 29.2855 317.258 27.7904C325.587 26.2597 333.633 25.2986 341.393 24.8714C349.153 24.4443 356.45 24.729 363.356 25.7258C370.227 26.7225 376.314 28.8227 381.618 31.9553C386.174 34.7319 389.271 37.9 390.98 41.4954C392.689 45.0907 393.472 48.6148 393.329 52.1034C393.187 55.5563 392.404 58.8313 390.98 61.8571C389.52 64.8828 387.812 67.1967 385.854 68.7629C383.896 70.3292 381.974 70.97 380.087 70.6496C378.2 70.3292 376.812 68.5849 375.922 65.4524C373.893 58.6533 369.586 53.2069 362.965 49.1844C356.344 45.1619 347.48 43.5244 336.373 44.272C339.542 45.7671 341.678 48.0097 342.817 50.8931C343.956 53.8121 344.383 57.1938 344.134 61.1095C343.885 65.0252 343.137 69.3325 341.855 74.0669C340.61 78.8014 339.079 83.8562 337.299 89.1958C335.519 94.571 333.739 100.124 331.924 105.927C330.108 111.729 328.471 117.531 327.083 123.334C326.442 126.11 325.837 129.278 325.196 132.803C324.555 136.327 324.021 139.993 323.594 143.767C323.167 147.54 322.847 151.242 322.633 154.837C322.419 158.433 322.491 161.743 322.74 164.769C323.238 169.931 322.74 174.416 321.138 178.189C319.572 181.962 316.368 184.134 311.598 184.632C309.569 184.881 307.326 184.561 304.87 183.671C302.414 182.781 299.957 181.215 297.501 178.937C295.045 176.658 292.767 173.526 290.702 169.468C288.637 165.445 286.964 160.355 285.79 154.232C284.579 148.109 284.01 140.812 284.081 132.269C284.152 123.761 285.042 113.829 286.822 102.474C288.459 91.8656 290.168 83.0375 291.948 75.8824C293.728 68.7629 295.615 62.8538 297.608 58.1905C291.663 61.4655 285.683 64.776 279.631 68.1222C273.58 71.4683 267.421 74.2449 261.192 76.452C254.962 78.659 248.59 80.0117 242.076 80.5101C235.562 81.0084 228.941 80.0117 222.106 77.4843C216.304 75.3484 211.925 72.3227 208.971 68.407C206.016 64.4913 204.129 60.3264 203.311 55.9123C202.492 51.4982 202.563 47.1198 203.489 42.7769C204.414 38.434 205.874 34.7675 207.831 31.8129C209.789 28.8583 212.068 26.7937 214.631 25.6546C217.229 24.5154 219.721 24.9782 222.106 26.9717C225.773 29.9974 229.403 32.4537 233.07 34.3403C236.737 36.227 241.115 37.4729 246.205 38.0424C251.296 38.612 257.561 38.4696 264.93 37.6509C272.298 36.8321 281.554 35.2302 292.66 32.8096V32.8808Z"
        fill="black" stroke="black" stroke-width="47.9143" stroke-linecap="round"
        stroke-linejoin="round" />
    <path
        d="M359.227 94.3916C358.586 82.2885 358.764 72.3213 359.69 64.4899C360.651 56.6584 362.431 50.4289 365.065 45.7657C367.699 41.1024 371.33 37.8631 375.958 36.012C380.55 34.1965 386.21 33.271 392.902 33.271C400.484 33.271 405.824 34.8373 408.992 38.0054C412.16 41.1736 413.833 45.3385 414.011 50.5001C414.189 55.6617 413.264 61.4997 411.164 68.014C409.099 74.5283 406.643 81.0426 403.866 87.5925C406.394 85.0651 409.135 82.9293 412.089 81.1494C415.044 79.3695 418.248 78.1948 421.629 77.5541C426.043 76.8065 430.101 76.8777 433.839 77.7321C437.541 78.622 440.709 80.1883 443.308 82.4665C445.907 84.7448 447.864 87.5925 449.182 91.0811C450.499 94.5696 451.033 98.5565 450.784 103.113C450.534 106.388 450.89 108.88 451.816 110.588C452.777 112.297 453.987 113.151 455.518 113.151C457.049 113.151 458.65 112.226 460.359 110.41C462.068 108.595 463.599 105.712 464.987 101.796C466.482 107.598 467.087 113.436 466.767 119.31C466.446 125.183 465.165 130.487 462.887 135.186C460.608 139.885 457.369 143.765 453.133 146.72C448.897 149.674 443.7 151.169 437.541 151.169C431.383 151.169 426.435 150.386 422.768 148.82C419.102 147.254 416.325 145.189 414.439 142.662C412.552 140.134 411.342 137.322 410.843 134.225C410.345 131.128 410.274 127.996 410.665 124.863C410.914 122.229 410.594 120.2 409.704 118.811C408.814 117.423 407.818 116.782 406.678 116.925C405.539 117.067 404.471 117.886 403.475 119.488C402.478 121.054 401.944 123.475 401.944 126.785C401.944 127.034 401.944 127.319 402.051 127.64C402.122 127.96 402.158 128.245 402.158 128.494C402.407 131.769 402.549 134.795 402.62 137.571C402.692 140.348 402.442 142.733 401.873 144.762C401.303 146.791 400.306 148.357 398.847 149.496C397.387 150.635 395.287 151.205 392.511 151.205C388.737 151.205 384.964 150.564 381.262 149.318C377.524 148.072 374.178 145.438 371.152 141.451C368.126 137.464 365.528 131.769 363.392 124.329C361.256 116.889 359.868 106.922 359.227 94.4272V94.3916Z"
        fill="black" stroke="black" stroke-width="47.9143" stroke-linecap="round"
        stroke-linejoin="round" />
    <path
        d="M528.777 88.6985C530.557 91.3327 531.304 94.3585 531.055 97.7758C530.806 101.193 529.703 104.361 527.745 107.316C525.787 110.27 523.046 112.727 519.522 114.685C515.998 116.642 511.762 117.497 506.849 117.248C508.629 118.636 511.085 119.312 514.218 119.312C519.273 119.312 524.043 117.782 528.599 114.685C533.156 111.588 536.359 107.28 538.246 101.727C539.883 106.889 540.311 112.94 539.563 119.882C538.424 129.849 534.437 137.538 527.531 142.949C520.661 148.36 512.046 151.101 501.723 151.101C491.4 151.101 482.785 148.395 475.879 142.949C469.009 137.538 464.987 129.813 463.848 119.882C463.1 113.439 463.42 107.601 464.809 102.368C466.197 97.1351 468.511 92.6498 471.821 88.9477C475.096 85.2455 479.261 82.3266 484.316 80.2263C489.371 78.1617 495.173 77.0938 501.723 77.0938C507.917 77.0938 513.328 78.0549 517.991 79.9415C522.654 81.8282 526.25 84.7472 528.777 88.6273V88.6985ZM515.535 104.219C515.642 103.222 515.428 102.368 514.859 101.656C514.289 100.98 513.541 100.446 512.58 100.161C511.619 99.8404 510.658 99.7693 509.661 99.9828C508.665 100.161 507.703 100.659 506.814 101.407C505.817 102.047 505.034 102.973 504.535 104.255C504.037 105.5 503.645 106.889 503.396 108.419C506.28 109.06 508.985 109.096 511.441 108.526C513.897 107.957 515.25 106.533 515.499 104.255L515.535 104.219Z"
        fill="black" stroke="black" stroke-width="47.9143" stroke-linecap="round"
        stroke-linejoin="round" />
    <path
        d="M299.779 22.2016C307.86 20.315 316.047 18.6063 324.377 17.1112C332.707 15.5805 340.752 14.6194 348.512 14.1922C356.272 13.7651 363.57 14.0498 370.476 15.0466C377.346 16.0433 383.433 18.1435 388.737 21.2761C393.294 24.0527 396.391 27.2208 398.099 30.8162C399.808 34.4115 400.591 37.9356 400.449 41.4242C400.306 44.8771 399.523 48.1521 398.099 51.1779C396.64 54.2036 394.931 56.5175 392.973 58.0837C391.015 59.65 389.093 60.2908 387.206 59.9704C385.32 59.65 383.931 57.9058 383.042 54.7732C381.013 47.9741 376.705 42.5277 370.084 38.5052C363.463 34.4827 354.599 32.8452 343.493 33.5928C346.661 35.0879 348.797 37.3305 349.936 40.2139C351.075 43.1329 351.502 46.5146 351.253 50.4303C351.004 54.346 350.256 58.6533 348.975 63.3877C347.729 68.1222 346.198 73.177 344.418 78.5166C342.639 83.8918 340.859 89.445 339.043 95.2474C337.228 101.05 335.59 106.852 334.202 112.654C333.561 115.431 332.956 118.599 332.315 122.123C331.675 125.647 331.141 129.314 330.713 133.087C330.286 136.861 329.966 140.563 329.752 144.158C329.539 147.753 329.61 151.064 329.859 154.09C330.357 159.251 329.859 163.737 328.257 167.51C326.691 171.283 323.487 173.455 318.717 173.953C316.688 174.202 314.445 173.882 311.989 172.992C309.533 172.102 307.077 170.536 304.621 168.258C302.164 165.979 299.886 162.847 297.821 158.789C295.757 154.766 294.084 149.676 292.909 143.553C291.699 137.43 291.129 130.133 291.2 121.589C291.272 113.082 292.162 103.15 293.941 91.7944C295.579 81.1864 297.288 72.3583 299.067 65.2032C300.847 58.0837 302.734 52.1746 304.727 47.5113C298.783 50.7863 292.802 54.0968 286.751 57.443C280.699 60.7891 274.541 63.5657 268.311 65.7728C262.082 67.9798 255.71 69.3325 249.196 69.8309C242.681 70.3292 236.06 69.3325 229.225 66.8051C223.423 64.6692 219.045 61.6435 216.09 57.7278C213.135 53.8121 211.249 49.6472 210.43 45.2331C209.611 40.819 209.682 36.4406 210.608 32.0977C211.534 27.7548 212.993 24.0883 214.951 21.1337C216.909 18.1791 219.187 16.1145 221.75 14.9754C224.349 13.8363 226.84 14.299 229.225 16.2925C232.892 19.3182 236.523 21.7745 240.189 23.6611C243.856 25.5478 248.234 26.7937 253.325 27.3632C258.415 27.9328 264.68 27.7904 272.049 26.9717C279.418 26.1529 288.673 24.5511 299.779 22.1304V22.2016Z"
        fill="white" />
    <path
        d="M366.346 83.7119C365.706 71.6088 365.884 61.6416 366.809 53.8102C367.77 45.9788 369.55 39.7492 372.184 35.086C374.818 30.4227 378.449 27.1834 383.077 25.3323C387.669 23.5168 393.329 22.5913 400.021 22.5913C407.604 22.5913 412.943 24.1576 416.111 27.3258C419.28 30.4939 420.953 34.6588 421.131 39.8204C421.309 44.982 420.383 50.82 418.283 57.3343C416.218 63.8486 413.762 70.3629 410.985 76.9128C413.513 74.3854 416.254 72.2496 419.208 70.4697C422.163 68.6899 425.367 67.5151 428.748 66.8744C433.162 66.1269 437.221 66.198 440.958 67.0524C444.66 67.9423 447.829 69.5086 450.427 71.7868C453.026 74.0651 454.984 76.9128 456.301 80.4014C457.618 83.8899 458.152 87.8768 457.903 92.4333C457.653 95.7082 458.009 98.2001 458.935 99.9087C459.896 101.617 461.106 102.472 462.637 102.472C464.168 102.472 465.77 101.546 467.478 99.7307C469.187 97.9153 470.718 95.0319 472.106 91.1162C473.601 96.9186 474.206 102.757 473.886 108.63C473.565 114.504 472.284 119.808 470.006 124.506C467.728 129.205 464.488 133.085 460.252 136.04C456.016 138.995 450.819 140.49 444.66 140.49C438.502 140.49 433.554 139.707 429.888 138.14C426.221 136.574 423.444 134.509 421.558 131.982C419.671 129.455 418.461 126.642 417.962 123.545C417.464 120.448 417.393 117.316 417.784 114.183C418.034 111.549 417.713 109.52 416.823 108.132C415.933 106.743 414.937 106.103 413.798 106.245C412.658 106.387 411.59 107.206 410.594 108.808C409.597 110.374 409.063 112.795 409.063 116.106C409.063 116.355 409.063 116.639 409.17 116.96C409.241 117.28 409.277 117.565 409.277 117.814C409.526 121.089 409.668 124.115 409.739 126.892C409.811 129.668 409.561 132.053 408.992 134.082C408.422 136.111 407.426 137.678 405.966 138.817C404.507 139.956 402.406 140.525 399.63 140.525C395.856 140.525 392.083 139.885 388.381 138.639C384.643 137.393 381.297 134.759 378.271 130.772C375.246 126.785 372.647 121.089 370.511 113.649C368.375 106.209 366.987 96.2422 366.346 83.7475V83.7119Z"
        fill="white" />
    <path
        d="M535.896 78.0178C537.676 80.652 538.424 83.6778 538.175 87.0951C537.925 90.5125 536.822 93.6807 534.864 96.6352C532.906 99.5898 530.165 102.046 526.641 104.004C523.117 105.962 518.881 106.816 513.969 106.567C515.748 107.955 518.205 108.632 521.337 108.632C526.392 108.632 531.162 107.101 535.719 104.004C540.275 100.907 543.479 96.5996 545.365 91.0464C547.003 96.2081 547.43 102.26 546.682 109.201C545.543 119.168 541.556 126.857 534.651 132.268C527.78 137.679 519.166 140.42 508.843 140.42C498.519 140.42 489.905 137.715 482.999 132.268C476.129 126.857 472.106 119.133 470.967 109.201C470.219 102.758 470.54 96.92 471.928 91.6872C473.316 86.4544 475.63 81.9691 478.941 78.267C482.216 74.5649 486.381 71.6459 491.435 69.5457C496.49 67.481 502.293 66.4131 508.843 66.4131C515.036 66.4131 520.447 67.3742 525.11 69.2609C529.774 71.1475 533.369 74.0665 535.896 77.9466V78.0178ZM522.654 93.5383C522.761 92.5415 522.547 91.6872 521.978 90.9753C521.408 90.2989 520.661 89.7649 519.7 89.4802C518.739 89.1598 517.777 89.0886 516.781 89.3022C515.784 89.4802 514.823 89.9785 513.933 90.7261C512.936 91.3668 512.153 92.2924 511.655 93.5739C511.156 94.8198 510.765 96.2081 510.516 97.7387C513.399 98.3795 516.104 98.4151 518.561 97.8455C521.017 97.276 522.369 95.8521 522.619 93.5739L522.654 93.5383Z"
        fill="white" />
    <path
        d="M162.232 250.095C165.685 241.196 166.61 233.792 165.079 227.776C163.549 221.795 160.309 217.203 155.433 214.035C150.52 210.867 144.469 209.052 137.207 208.589C129.945 208.126 122.469 209.052 114.78 211.294C107.056 213.572 99.5447 217.203 92.2117 222.187C84.8786 227.171 78.7559 233.471 73.8434 241.089C68.931 248.707 65.5849 257.678 63.7694 268.001C61.9539 278.324 62.7727 289.929 66.2256 302.815C68.575 311.536 72.4907 318.513 77.9371 323.746C83.3835 329.015 89.5775 332.824 96.5545 335.173C103.532 337.522 111.043 338.484 119.123 338.021C127.204 337.558 134.893 336.027 142.226 333.393C149.559 330.759 156.322 327.199 162.481 322.643C168.639 318.122 173.445 312.853 176.898 306.873C179.247 302.886 182.166 300.11 185.583 298.579C189.036 297.048 192.596 296.621 196.334 297.369C200.036 298.081 203.667 299.789 207.227 302.388C210.751 305.022 213.812 308.475 216.34 312.711C218.867 316.983 220.718 321.86 221.928 327.413C223.103 332.93 223.139 338.982 222.071 345.496C220.433 355.463 215.806 364.22 208.188 371.731C200.57 379.242 191.243 385.045 180.173 389.139C169.102 393.232 156.856 395.404 143.472 395.653C130.052 395.938 116.774 393.837 103.638 389.388C90.503 384.938 78.0083 377.854 66.2256 368.172C54.4429 358.454 44.5468 345.745 36.573 329.976C31.1266 318.905 27.4601 307.265 25.5734 295.019C23.6868 282.774 23.6156 270.635 25.431 258.567C27.2465 246.5 30.9486 234.86 36.573 223.611C42.1974 212.362 49.7084 202.288 59.1417 193.424C68.575 184.525 79.895 177.156 93.1372 171.247C106.379 165.338 121.508 161.6 138.559 159.963C155.611 158.325 170.668 159.002 183.697 161.992C196.761 164.982 207.796 169.432 216.874 175.305C225.951 181.214 233.106 188.049 238.374 195.845C243.643 203.641 247.025 211.615 248.591 219.766C250.121 227.918 249.908 235.785 247.914 243.296C245.921 250.807 242.219 257.215 236.772 262.483C231.326 267.752 225.488 271.632 219.223 274.195C212.958 276.722 206.799 278.217 200.712 278.68C194.625 279.143 188.93 278.644 183.59 277.185C178.25 275.725 173.694 273.661 169.992 270.92C166.29 268.214 163.656 265.046 162.089 261.415C160.559 257.784 160.594 253.975 162.232 249.989V250.095Z"
        fill="black" stroke="black" stroke-width="47.9143" stroke-linecap="round"
        stroke-linejoin="round" />
    <path
        d="M403.226 271.845C405.397 280.175 406.252 288.576 405.824 297.013C405.362 305.449 403.511 313.067 400.236 319.866C396.961 326.665 392.297 332.183 386.246 336.455C380.159 340.726 372.683 342.862 363.82 342.862C357.305 342.862 351.681 341.972 346.946 340.157C342.212 338.341 338.296 336.027 335.128 333.215C331.96 330.403 329.539 327.235 327.937 323.711C326.336 320.187 325.41 316.591 325.232 312.96C325.054 316.591 323.951 320.222 321.957 323.853C319.964 327.484 317.294 330.759 313.948 333.642C310.602 336.561 306.615 338.911 301.987 340.726C297.359 342.542 292.34 343.254 286.894 342.898C279.988 342.542 273.794 340.94 268.276 338.128C262.759 335.315 258.131 331.542 254.393 326.843C250.691 322.144 247.95 316.627 246.242 310.397C244.533 304.132 244.035 297.297 244.746 289.858C245.672 280.78 247.737 272.913 251.012 266.185C254.287 259.493 258.131 253.94 262.581 249.597C267.03 245.254 271.765 242.086 276.855 240.093C281.946 238.099 286.823 237.102 291.557 237.102C296.291 237.102 300.35 237.601 303.802 238.597C307.255 239.594 310.246 240.911 312.773 242.549C315.3 244.186 317.579 246.037 319.572 248.138C321.566 250.238 323.381 252.267 325.018 254.26C328.293 248.458 332.957 243.973 339.044 240.804C345.131 237.636 352.428 236.39 360.936 237.138C370.903 238.063 377.525 241.445 380.8 247.354C384.074 253.264 384.786 262.092 382.971 273.874C382.259 278.609 382.508 282.169 383.79 284.625C385.071 287.081 386.815 288.291 389.094 288.291C391.372 288.291 393.793 286.974 396.427 284.34C399.061 281.706 401.375 277.577 403.368 271.952L403.226 271.845ZM314.304 291.958C316.653 291.958 318.789 290.997 320.711 289.11C322.633 287.223 323.559 284.162 323.559 279.997C323.737 275.654 322.954 272.344 321.245 270.066C319.536 267.787 317.223 266.648 314.304 266.648C311.385 266.648 309.106 267.787 307.362 270.066C305.654 272.344 304.87 275.654 305.048 279.997C305.048 284.162 306.009 287.188 307.896 289.11C309.783 291.032 311.919 291.958 314.304 291.958Z"
        fill="black" stroke="black" stroke-width="47.9143" stroke-linecap="round"
        stroke-linejoin="round" />
    <path
        d="M429.319 277.826C429.675 279.285 432.309 279.855 437.221 279.606C442.134 279.321 448.292 278.752 455.732 277.826C459.363 277.47 463.492 277.363 468.12 277.541C472.747 277.719 477.197 278.502 481.433 279.855C485.705 281.208 489.407 283.344 492.575 286.227C495.743 289.146 497.772 293.026 498.698 297.939C499.588 302.851 499.303 308.048 497.737 313.566C496.206 319.083 493.394 324.209 489.3 328.944C485.206 333.678 479.831 337.594 473.103 340.762C466.411 343.93 458.33 345.603 448.897 345.781C438.752 345.959 430.493 344.678 424.157 341.972C417.821 339.267 412.873 335.814 409.348 331.649C405.824 327.484 403.546 322.999 402.549 318.193C401.553 313.388 401.517 309.009 402.407 304.987C403.297 299.896 404.578 297.155 406.216 296.693C407.853 296.23 410.488 296.728 414.118 298.188C416.824 299.291 419.956 300.288 423.516 301.178C427.04 302.068 431.882 302.531 438.075 302.531C441.172 302.531 444.269 302.424 447.473 302.246C450.641 302.068 453.596 301.676 456.301 301.035C459.007 300.395 461.427 299.576 463.492 298.579C465.557 297.583 466.981 296.265 467.692 294.628C468.582 292.635 467.052 291.816 463.065 292.172C459.078 292.528 452.564 293.524 443.486 295.162C436.758 296.443 430.6 296.657 424.976 295.838C419.351 295.02 414.546 293.489 410.559 291.211C406.572 288.932 403.475 285.907 401.303 282.098C399.132 278.289 398.206 274.017 398.598 269.318C398.954 263.694 400.414 258.497 402.941 253.691C405.468 248.885 408.886 244.72 413.122 241.196C417.393 237.672 422.377 234.931 428.073 233.045C433.768 231.158 439.891 230.197 446.441 230.197C459.505 230.197 470.042 233.294 478.122 239.452C486.203 245.61 491.222 253.869 493.216 264.192C494.106 269.995 493.572 273.697 491.578 275.334C489.585 276.972 487.129 276.865 484.245 275.049C481.148 273.412 476.77 272.273 471.039 271.632C465.343 270.991 459.398 270.849 453.24 271.205C450.713 271.383 447.972 271.632 445.088 271.881C442.205 272.166 439.499 272.558 437.079 273.092C434.623 273.626 432.629 274.266 431.098 275.014C429.568 275.726 428.963 276.651 429.319 277.719V277.826Z"
        fill="black" stroke="black" stroke-width="47.9143" stroke-linecap="round"
        stroke-linejoin="round" />
    <path
        d="M667.856 271.846C670.028 280.176 670.882 288.577 670.455 297.013C669.992 305.45 668.141 313.068 664.866 319.867C661.591 326.666 656.928 332.184 650.876 336.455C644.789 340.727 637.314 342.863 628.45 342.863C621.936 342.863 616.383 341.866 611.862 339.873C607.341 337.879 603.639 335.245 600.862 331.97C598.05 328.695 595.95 325.1 594.597 321.077C593.244 317.09 592.39 313.103 591.998 309.117C590.539 313.281 588.51 317.375 585.876 321.362C583.241 325.349 580.038 328.944 576.229 332.112C572.42 335.281 568.148 337.879 563.449 339.873C558.715 341.866 553.66 342.863 548.214 342.863C540.774 342.863 534.26 341.403 528.635 338.52C523.011 335.637 518.419 331.685 514.895 326.702C511.37 321.718 508.879 315.809 507.419 309.01C505.96 302.211 505.604 294.842 506.316 286.833C507.775 268.144 512.723 254.866 521.124 246.999C529.525 239.132 541.13 235.822 555.796 237.068C560.708 237.423 564.624 238.242 567.614 239.524C570.604 240.805 572.633 242.799 573.737 245.504C574.84 248.209 575.09 251.769 574.556 256.112C574.022 260.455 572.74 265.901 570.747 272.416C569.109 277.684 568.718 281.885 569.537 285.053C570.355 288.221 571.708 290.001 573.63 290.357C575.517 290.713 577.581 289.538 579.753 286.833C581.924 284.127 583.455 279.5 584.381 272.95C586.374 259.885 590.574 250.417 597.018 244.543C603.461 238.669 612.823 236.142 625.175 237.068C635.142 237.993 641.763 241.375 645.038 247.284C648.313 253.193 649.025 262.021 647.21 273.804C646.498 278.538 646.818 282.098 648.171 284.554C649.524 287.011 651.339 288.221 653.617 288.221C655.896 288.221 658.316 286.904 660.95 284.27C663.585 281.635 665.898 277.506 667.892 271.882L667.856 271.846Z"
        fill="black" stroke="black" stroke-width="47.9143" stroke-linecap="round"
        stroke-linejoin="round" />
    <path
        d="M822.349 271.845C824.52 280.175 825.374 288.576 824.947 297.013C824.484 305.449 822.633 313.067 819.358 319.866C816.084 326.665 811.42 332.183 805.369 336.455C799.281 340.726 791.806 342.862 782.942 342.862C776.428 342.862 770.804 341.972 766.069 340.157C761.335 338.341 757.419 336.027 754.251 333.215C751.083 330.403 748.662 327.235 747.06 323.711C745.458 320.187 744.533 316.591 744.355 312.96C744.177 316.591 743.073 320.222 741.08 323.853C739.086 327.484 736.417 330.759 733.07 333.642C729.724 336.561 725.737 338.911 721.11 340.726C716.482 342.542 711.463 343.254 706.017 342.898C699.111 342.542 692.917 340.94 687.399 338.128C681.882 335.315 677.254 331.542 673.516 326.843C669.814 322.144 667.073 316.627 665.364 310.397C663.656 304.132 663.157 297.297 663.869 289.858C664.795 280.78 666.859 272.913 670.134 266.185C673.409 259.493 677.254 253.94 681.704 249.597C686.153 245.254 690.888 242.086 695.978 240.093C701.068 238.099 705.945 237.102 710.68 237.102C715.414 237.102 719.472 237.601 722.925 238.597C726.378 239.594 729.368 240.911 731.896 242.549C734.423 244.186 736.701 246.037 738.695 248.138C740.688 250.238 742.504 252.267 744.141 254.26C747.416 248.458 752.079 243.973 758.167 240.804C764.254 237.636 771.551 236.39 780.059 237.138C790.026 238.063 796.647 241.445 799.922 247.354C803.197 253.264 803.909 262.092 802.094 273.874C801.382 278.609 801.631 282.169 802.912 284.625C804.194 287.081 805.938 288.291 808.216 288.291C810.495 288.291 812.915 286.974 815.55 284.34C818.184 281.706 820.497 277.577 822.491 271.952L822.349 271.845ZM733.426 291.958C735.776 291.958 737.912 290.997 739.834 289.11C741.756 287.223 742.682 284.162 742.682 279.997C742.86 275.654 742.077 272.344 740.368 270.066C738.659 267.787 736.345 266.648 733.426 266.648C730.507 266.648 728.229 267.787 726.485 270.066C724.776 272.344 723.993 275.654 724.171 279.997C724.171 284.162 725.132 287.188 727.019 289.11C728.906 291.032 731.041 291.958 733.426 291.958Z"
        fill="black" stroke="black" stroke-width="47.9143" stroke-linecap="round"
        stroke-linejoin="round" />
    <path
        d="M907.996 271.844C910.167 280.174 911.022 288.575 910.594 297.011C910.132 305.448 908.281 313.066 905.006 319.865C901.731 326.664 897.068 332.182 890.98 336.453C884.893 340.725 877.418 342.861 868.554 342.861C861.826 342.861 855.846 341.65 850.613 339.194C845.345 336.738 840.824 332.68 837.015 326.949C833.206 321.253 830.038 313.707 827.51 304.38C824.983 295.054 823.167 283.591 822.064 269.957C819.537 237.137 822.42 212.859 830.75 197.054C839.079 181.284 852.962 173.382 872.363 173.382C881.262 173.382 887.99 174.77 892.618 177.582C897.246 180.395 900.307 184.168 901.873 188.867C903.404 193.601 903.795 199.083 902.977 205.313C902.158 211.578 900.841 218.128 899.025 225.034C897.21 231.939 895.216 238.917 893.045 245.965C890.874 253.013 889.129 259.848 887.883 266.362C886.602 272.698 886.566 277.611 887.741 281.064C888.916 284.517 890.696 286.51 893.045 287.044C895.394 287.578 897.993 286.581 900.805 284.054C903.617 281.527 906.003 277.433 907.996 271.808V271.844Z"
        fill="black" stroke="black" stroke-width="47.9143" stroke-linecap="round"
        stroke-linejoin="round" />
    <path
        d="M169.351 239.416C172.804 230.516 173.729 223.112 172.199 217.096C170.668 211.116 167.429 206.524 162.552 203.356C157.639 200.187 151.588 198.372 144.326 197.909C137.064 197.446 129.589 198.372 121.9 200.615C114.175 202.893 106.664 206.524 99.331 211.507C91.998 216.491 85.8752 222.792 80.9628 230.41C76.0504 238.027 72.7042 246.998 70.8888 257.321C69.0733 267.644 69.892 279.249 73.345 292.135C75.6944 300.857 79.6101 307.834 85.0565 313.067C90.5029 318.335 96.6968 322.144 103.674 324.493C110.651 326.843 118.162 327.804 126.243 327.341C134.323 326.878 142.012 325.348 149.345 322.713C156.678 320.079 163.442 316.519 169.6 311.963C175.759 307.442 180.564 302.174 184.017 296.193C186.367 292.206 189.286 289.43 192.703 287.899C196.156 286.369 199.716 285.941 203.453 286.689C207.155 287.401 210.786 289.11 214.346 291.708C217.87 294.342 220.932 297.795 223.459 302.031C225.986 306.303 227.837 311.18 229.048 316.733C230.222 322.251 230.258 328.302 229.19 334.816C227.553 344.784 222.925 353.541 215.307 361.052C207.689 368.563 198.363 374.365 187.292 378.459C176.221 382.553 163.976 384.724 150.591 384.973C137.171 385.258 123.893 383.158 110.758 378.708C97.6224 374.258 85.1277 367.174 73.345 357.492C61.5623 347.774 51.6662 335.066 43.6924 319.296C38.246 308.225 34.5795 296.585 32.6928 284.339C30.8062 272.094 30.735 259.955 32.5504 247.888C34.3659 235.82 38.068 224.18 43.6924 212.931C49.3168 201.682 56.8278 191.608 66.2611 182.745C75.6944 173.845 87.0144 166.477 100.257 160.568C113.499 154.658 128.628 150.921 145.679 149.283C162.73 147.646 177.788 148.322 190.816 151.312C203.88 154.302 214.916 158.752 223.993 164.626C233.07 170.535 240.225 177.369 245.494 185.165C250.762 192.961 254.144 200.935 255.71 209.087C257.241 217.238 257.027 225.106 255.034 232.617C253.04 240.128 249.338 246.535 243.892 251.804C238.445 257.072 232.607 260.952 226.342 263.515C220.077 266.042 213.919 267.538 207.832 268C201.745 268.463 196.049 267.965 190.709 266.505C185.37 265.046 180.813 262.981 177.111 260.24C173.409 257.535 170.775 254.367 169.209 250.736C167.678 247.105 167.714 243.296 169.351 239.309V239.416Z"
        fill="white" />
    <path
        d="M410.345 261.165C412.516 269.494 413.371 277.895 412.944 286.332C412.481 294.769 410.63 302.386 407.355 309.186C404.08 315.985 399.417 321.502 393.365 325.774C387.278 330.046 379.802 332.181 370.939 332.181C364.424 332.181 358.8 331.291 354.066 329.476C349.331 327.661 345.415 325.347 342.247 322.535C339.079 319.722 336.658 316.554 335.057 313.03C333.455 309.506 332.529 305.911 332.351 302.28C332.173 305.911 331.07 309.541 329.076 313.172C327.083 316.803 324.413 320.078 321.067 322.962C317.721 325.881 313.734 328.23 309.106 330.046C304.478 331.861 299.459 332.573 294.013 332.217C287.107 331.861 280.913 330.259 275.395 327.447C269.878 324.635 265.25 320.861 261.512 316.163C257.81 311.464 255.069 305.946 253.361 299.717C251.652 293.451 251.154 286.617 251.866 279.177C252.791 270.1 254.856 262.233 258.131 255.505C261.406 248.812 265.25 243.259 269.7 238.916C274.15 234.573 278.884 231.405 283.974 229.412C289.065 227.418 293.942 226.422 298.676 226.422C303.411 226.422 307.469 226.92 310.922 227.917C314.375 228.914 317.365 230.231 319.892 231.868C322.42 233.506 324.698 235.357 326.691 237.457C328.685 239.557 330.5 241.586 332.138 243.58C335.413 237.777 340.076 233.292 346.163 230.124C352.25 226.956 359.548 225.71 368.055 226.457C378.023 227.383 384.644 230.765 387.919 236.674C391.194 242.583 391.906 251.411 390.09 263.194C389.378 267.928 389.627 271.488 390.909 273.944C392.19 276.4 393.935 277.611 396.213 277.611C398.491 277.611 400.912 276.294 403.546 273.659C406.18 271.025 408.494 266.896 410.487 261.271L410.345 261.165ZM321.423 281.277C323.772 281.277 325.908 280.316 327.83 278.429C329.753 276.543 330.678 273.481 330.678 269.317C330.856 264.974 330.073 261.663 328.364 259.385C326.656 257.107 324.342 255.967 321.423 255.967C318.504 255.967 316.226 257.107 314.481 259.385C312.773 261.663 311.99 264.974 312.168 269.317C312.168 273.481 313.129 276.507 315.015 278.429C316.902 280.352 319.038 281.277 321.423 281.277Z"
        fill="white" />
    <path
        d="M436.438 267.146C436.794 268.605 439.428 269.175 444.341 268.926C449.253 268.641 455.411 268.071 462.851 267.146C466.482 266.79 470.611 266.683 475.239 266.861C479.867 267.039 484.316 267.822 488.552 269.175C492.824 270.528 496.526 272.663 499.694 275.547C502.863 278.466 504.892 282.346 505.817 287.258C506.707 292.171 506.422 297.368 504.856 302.886C503.325 308.403 500.513 313.529 496.419 318.264C492.326 322.998 486.951 326.914 480.223 330.082C473.53 333.25 465.45 334.923 456.016 335.101C445.871 335.279 437.613 333.998 431.276 331.292C424.94 328.587 419.992 325.134 416.468 320.969C412.944 316.804 410.665 312.319 409.669 307.513C408.672 302.708 408.636 298.329 409.526 294.307C410.416 289.216 411.698 286.475 413.335 286.012C414.973 285.55 417.607 286.048 421.238 287.508C423.943 288.611 427.076 289.608 430.636 290.498C434.16 291.388 439.001 291.85 445.195 291.85C448.292 291.85 451.389 291.744 454.593 291.566C457.761 291.388 460.715 290.996 463.421 290.355C466.126 289.715 468.547 288.896 470.611 287.899C472.676 286.902 474.1 285.585 474.812 283.948C475.702 281.954 474.171 281.136 470.184 281.492C466.197 281.848 459.683 282.844 450.606 284.482C443.878 285.763 437.719 285.977 432.095 285.158C426.471 284.339 421.665 282.809 417.678 280.53C413.691 278.252 410.594 275.226 408.423 271.418C406.251 267.609 405.326 263.337 405.717 258.638C406.073 253.014 407.533 247.816 410.06 243.011C412.588 238.205 416.005 234.04 420.241 230.516C424.513 226.992 429.496 224.251 435.192 222.364C440.888 220.478 447.01 219.517 453.56 219.517C466.624 219.517 477.161 222.614 485.242 228.772C493.322 234.93 498.342 243.189 500.335 253.512C501.225 259.314 500.691 263.017 498.698 264.654C496.704 266.292 494.248 266.185 491.365 264.369C488.268 262.732 483.889 261.593 478.158 260.952C472.462 260.311 466.518 260.169 460.359 260.525C457.832 260.703 455.091 260.952 452.208 261.201C449.324 261.486 446.619 261.877 444.198 262.411C441.742 262.945 439.749 263.586 438.218 264.334C436.687 265.046 436.082 265.971 436.438 267.039V267.146Z"
        fill="white" />
    <path
        d="M674.975 261.166C677.147 269.496 678.001 277.897 677.574 286.334C677.111 294.77 675.26 302.388 671.985 309.187C668.71 315.986 664.047 321.504 657.996 325.776C651.908 330.047 644.433 332.183 635.569 332.183C629.055 332.183 623.502 331.186 618.981 329.193C614.46 327.199 610.758 324.565 607.981 321.29C605.169 318.015 603.069 314.42 601.716 310.398C600.363 306.411 599.509 302.424 599.118 298.437C597.658 302.602 595.629 306.695 592.995 310.682C590.361 314.669 587.157 318.265 583.348 321.433C579.539 324.601 575.267 327.199 570.568 329.193C565.834 331.186 560.779 332.183 555.333 332.183C547.893 332.183 541.379 330.724 535.754 327.84C530.13 324.957 525.538 321.006 522.014 316.022C518.49 311.038 515.998 305.129 514.538 298.33C513.079 291.531 512.723 284.162 513.435 276.153C514.894 257.464 519.842 244.187 528.243 236.319C536.644 228.452 548.249 225.142 562.915 226.388C567.828 226.744 571.743 227.563 574.733 228.844C577.724 230.126 579.753 232.119 580.856 234.824C581.96 237.53 582.209 241.09 581.675 245.432C581.141 249.775 579.859 255.222 577.866 261.736C576.228 267.004 575.837 271.205 576.656 274.373C577.474 277.541 578.827 279.321 580.749 279.677C582.636 280.033 584.701 278.858 586.872 276.153C589.044 273.447 590.574 268.82 591.5 262.27C593.493 249.206 597.694 239.737 604.137 233.863C610.58 227.99 619.942 225.462 632.294 226.388C642.262 227.313 648.883 230.695 652.158 236.604C655.433 242.513 656.144 251.342 654.329 263.124C653.617 267.859 653.937 271.418 655.29 273.875C656.643 276.331 658.458 277.541 660.737 277.541C663.015 277.541 665.435 276.224 668.07 273.59C670.704 270.956 673.018 266.826 675.011 261.202L674.975 261.166Z"
        fill="white" />
    <path
        d="M829.468 261.165C831.639 269.494 832.494 277.895 832.067 286.332C831.604 294.769 829.753 302.386 826.478 309.186C823.203 315.985 818.54 321.502 812.488 325.774C806.401 330.046 798.925 332.181 790.062 332.181C783.547 332.181 777.923 331.291 773.189 329.476C768.454 327.661 764.538 325.347 761.37 322.535C758.202 319.722 755.782 316.554 754.18 313.03C752.578 309.506 751.652 305.911 751.474 302.28C751.296 305.911 750.193 309.541 748.199 313.172C746.206 316.803 743.536 320.078 740.19 322.962C736.844 325.881 732.857 328.23 728.229 330.046C723.601 331.861 718.582 332.573 713.136 332.217C706.23 331.861 700.036 330.259 694.518 327.447C689.001 324.635 684.373 320.861 680.636 316.163C676.933 311.464 674.192 305.946 672.484 299.717C670.775 293.451 670.277 286.617 670.989 279.177C671.914 270.1 673.979 262.233 677.254 255.505C680.529 248.812 684.373 243.259 688.823 238.916C693.273 234.573 698.007 231.405 703.097 229.412C708.188 227.418 713.065 226.422 717.799 226.422C722.534 226.422 726.592 226.92 730.045 227.917C733.498 228.914 736.488 230.231 739.015 231.868C741.543 233.506 743.821 235.357 745.814 237.457C747.808 239.557 749.623 241.586 751.261 243.58C754.536 237.777 759.199 233.292 765.286 230.124C771.373 226.956 778.671 225.71 787.178 226.457C797.146 227.383 803.767 230.765 807.042 236.674C810.317 242.583 811.029 251.411 809.213 263.194C808.501 267.928 808.75 271.488 810.032 273.944C811.313 276.4 813.058 277.611 815.336 277.611C817.614 277.611 820.035 276.294 822.669 273.659C825.303 271.025 827.617 266.896 829.61 261.271L829.468 261.165ZM740.546 281.277C742.895 281.277 745.031 280.316 746.953 278.429C748.876 276.543 749.801 273.481 749.801 269.317C749.979 264.974 749.196 261.663 747.487 259.385C745.779 257.107 743.465 255.967 740.546 255.967C737.627 255.967 735.349 257.107 733.604 259.385C731.896 261.663 731.113 264.974 731.291 269.317C731.291 273.481 732.252 276.507 734.138 278.429C736.025 280.352 738.161 281.277 740.546 281.277Z"
        fill="white" />
    <path
        d="M915.115 261.165C917.287 269.495 918.141 277.896 917.714 286.332C917.251 294.769 915.4 302.387 912.125 309.186C908.85 315.985 904.187 321.502 898.1 325.774C892.013 330.046 884.537 332.182 875.673 332.182C868.946 332.182 862.965 330.971 857.732 328.515C852.464 326.059 847.943 322.001 844.134 316.27C840.325 310.574 837.157 303.027 834.63 293.701C832.102 284.374 830.287 272.912 829.183 259.278C826.656 226.457 829.539 202.18 837.869 186.375C846.199 170.605 860.082 162.703 879.482 162.703C888.382 162.703 895.11 164.091 899.737 166.903C904.365 169.715 907.426 173.489 908.993 178.187C910.523 182.922 910.915 188.404 910.096 194.633C909.277 200.899 907.96 207.448 906.145 214.354C904.329 221.26 902.336 228.237 900.164 235.286C897.993 242.334 896.249 249.169 895.003 255.683C893.721 262.019 893.686 266.932 894.86 270.385C896.035 273.838 897.815 275.831 900.164 276.365C902.514 276.899 905.112 275.902 907.925 273.375C910.737 270.847 913.122 266.754 915.115 261.129V261.165Z"
        fill="white" />
    <path
        d="M228.229 539.858C234.743 546.016 237.876 551.605 237.627 556.588C237.342 561.572 235.099 565.666 230.828 568.834C226.556 572.002 220.932 574.102 213.955 575.099C206.977 576.096 199.894 575.704 192.738 573.889C185.583 572.073 178.962 568.727 172.875 563.815C166.788 558.902 162.659 552.032 160.487 543.133C156.322 527.363 157.675 511.7 164.581 496.215C171.487 480.695 183.27 467.026 199.929 455.136C216.624 443.247 237.876 434.098 263.72 427.655C289.563 421.212 319.323 419.254 353.069 421.817C370.476 423.098 384.786 423.81 396.035 423.988C407.284 424.166 416.646 423.597 424.192 422.208C431.703 420.856 437.933 418.435 442.81 414.982C447.722 411.529 452.492 406.724 457.227 400.565C460.324 396.578 463.563 395.19 467.016 396.365C470.469 397.54 473.459 400.459 475.986 405.086C478.514 409.714 480.187 415.552 481.006 422.636C481.824 429.72 481.077 436.946 478.834 444.386C476.556 451.825 472.391 459.087 466.34 466.136C460.252 473.219 451.709 479.022 440.638 483.543C432.309 486.996 424.37 488.989 416.824 489.523C409.313 490.057 401.908 489.665 394.647 488.313C387.385 486.96 380.408 484.895 373.715 482.19C366.987 479.485 360.331 476.53 353.71 473.362C347.089 470.194 340.467 467.097 333.846 464.107C327.225 461.116 320.64 458.625 314.125 456.631C317.222 460.796 318.789 466.207 318.895 472.828C318.967 479.449 318.29 486.96 316.866 495.397C315.407 503.833 313.591 512.839 311.42 522.451C309.249 532.062 307.504 541.851 306.258 551.818C314.766 549.469 323.665 547.155 332.921 544.877C342.176 542.599 350.897 540.214 359.156 537.686C367.415 535.159 374.748 532.347 381.191 529.25C387.634 526.153 392.297 522.735 395.216 518.926C397.566 515.829 399.879 514.726 402.158 515.509C404.436 516.328 406.251 518.392 407.604 521.774C408.957 525.12 409.74 529.356 409.918 534.411C410.096 539.502 409.277 544.699 407.462 550.039C405.646 555.378 402.656 560.611 398.491 565.666C394.326 570.756 388.702 574.814 381.618 577.911C372.185 582.076 364.318 584.71 357.946 585.814C351.609 586.917 345.7 587.416 340.254 587.309C334.807 587.238 329.432 586.917 324.057 586.348C318.717 585.814 312.239 585.885 304.621 586.633L305.44 602.687C305.618 608.489 305.796 613.829 305.974 618.741C306.152 623.654 305.938 627.89 305.297 631.521C304.657 635.152 303.517 637.964 301.88 639.957C300.242 641.951 297.893 642.948 294.796 642.948C290.631 642.948 285.897 641.808 280.664 639.53C275.395 637.252 270.376 632.589 265.571 625.54C260.765 618.457 256.636 608.311 253.183 595.069C249.73 581.827 247.736 564.171 247.202 542.029C246.277 518.464 247.096 500.238 249.659 487.352C252.186 474.465 255.995 465.139 261.085 459.336C251.652 462.967 243.144 467.773 235.526 473.753C227.909 479.734 222.249 486.39 218.511 493.759C214.809 501.092 213.492 508.781 214.56 516.755C215.628 524.729 220.184 532.453 228.158 539.858H228.229Z"
        fill="black" stroke="black" stroke-width="47.9143" stroke-linecap="round"
        stroke-linejoin="round" />
    <path
        d="M583.704 523.804C585.875 532.133 586.73 540.534 586.303 548.971C585.84 557.408 583.989 565.025 580.714 571.824C577.439 578.624 572.776 584.141 566.724 588.413C560.637 592.685 553.161 594.82 544.298 594.82C537.783 594.82 532.23 593.824 527.709 591.83C523.189 589.837 519.486 587.203 516.71 583.928C513.898 580.653 511.797 577.057 510.445 573.035C509.092 569.048 508.238 565.061 507.846 561.074C506.387 565.239 504.358 569.333 501.723 573.32C499.089 577.306 495.885 580.902 492.076 584.07C488.268 587.238 483.996 589.837 479.297 591.83C474.563 593.824 469.508 594.82 464.061 594.82C456.622 594.82 450.107 593.361 444.483 590.477C438.858 587.594 434.266 583.643 430.742 578.659C427.218 573.676 424.726 567.766 423.267 560.967C421.807 554.168 421.451 546.8 422.163 538.79C423.623 520.102 428.571 506.824 436.972 498.957C445.373 491.09 456.977 487.779 471.644 489.025C476.556 489.381 480.472 490.2 483.462 491.481C486.452 492.763 488.481 494.756 489.585 497.462C490.688 500.167 490.937 503.727 490.403 508.07C489.869 512.413 488.588 517.859 486.594 524.373C484.957 529.642 484.565 533.842 485.384 537.01C486.203 540.178 487.556 541.958 489.478 542.314C491.365 542.67 493.429 541.496 495.601 538.79C497.772 536.085 499.303 531.457 500.228 524.907C502.222 511.843 506.422 502.374 512.865 496.501C519.308 490.627 528.67 488.1 541.023 489.025C550.99 489.951 557.611 493.332 560.886 499.242C564.161 505.151 564.873 513.979 563.058 525.762C562.346 530.496 562.666 534.056 564.019 536.512C565.371 538.968 567.187 540.178 569.465 540.178C571.743 540.178 574.164 538.861 576.798 536.227C579.432 533.593 581.746 529.464 583.74 523.839L583.704 523.804Z"
        fill="black" stroke="black" stroke-width="47.9143" stroke-linecap="round"
        stroke-linejoin="round" />
    <path
        d="M583.704 534.162C583.348 529.819 583.49 524.906 584.096 519.46C584.736 514.014 586.16 508.959 588.439 504.224C590.717 499.525 594.134 495.61 598.762 492.513C603.389 489.416 609.583 488.063 617.379 488.419C620.476 488.597 623.466 489.095 626.35 489.914C629.233 490.733 631.725 492.014 633.825 493.723C635.89 495.467 637.527 497.639 638.738 500.237C639.912 502.872 640.411 506.182 640.233 510.169C643.864 504.901 648.384 500.273 653.831 496.286C659.277 492.299 665.258 489.665 671.772 488.384C678.108 487.28 683.982 487.387 689.321 488.668C694.661 489.95 699.146 492.264 702.777 495.61C706.408 498.956 709.185 503.192 711.071 508.247C712.994 513.337 713.741 519.14 713.385 525.654C713.029 530.388 713.563 533.948 715.023 536.404C716.482 538.861 718.298 540.071 720.469 540.071C722.64 540.071 724.954 538.754 727.411 536.12C729.867 533.485 732.074 529.356 734.067 523.732C736.239 532.061 737.093 540.462 736.666 548.899C736.203 557.336 734.352 564.953 731.077 571.752C727.802 578.552 723.139 584.069 717.087 588.341C711 592.613 703.525 594.748 694.661 594.748C685.797 594.748 678.713 593.609 673.445 591.331C668.177 589.053 664.19 586.134 661.484 582.503C658.779 578.872 657.035 574.849 656.323 570.4C655.611 565.95 655.504 561.465 656.038 556.944C656.394 553.135 655.931 550.252 654.685 548.223C653.404 546.229 651.98 545.339 650.342 545.517C648.705 545.695 647.174 546.941 645.715 549.184C644.255 551.462 643.543 554.951 643.543 559.649C643.543 560.005 643.579 560.433 643.686 560.86C643.757 561.322 643.828 561.714 643.828 562.07C644.184 566.804 644.433 571.147 644.504 575.134C644.576 579.121 644.22 582.574 643.401 585.457C642.582 588.376 641.123 590.619 639.058 592.257C636.958 593.894 633.932 594.713 629.945 594.713C624.499 594.713 619.195 593.93 614.033 592.399C608.871 590.868 604.208 587.878 600.043 583.428C595.878 578.979 592.319 572.82 589.435 564.918C586.516 557.015 584.63 546.728 583.74 534.055L583.704 534.162Z"
        fill="black" stroke="black" stroke-width="47.9143" stroke-linecap="round"
        stroke-linejoin="round" />
    <path
        d="M885.356 523.803C887.527 532.132 888.382 540.533 887.954 548.97C887.492 557.407 885.641 565.024 882.366 571.823C879.091 578.623 874.427 584.14 868.34 588.412C862.253 592.683 854.778 594.819 845.914 594.819C839.578 594.819 833.597 593.502 827.973 590.868C822.349 588.234 817.258 584.888 812.737 580.794C808.216 576.7 804.301 572.073 801.026 566.911C797.751 561.749 795.508 556.695 794.227 551.818L795.045 562.141C795.401 566.875 795.686 571.218 795.864 575.205C796.042 579.192 795.722 582.645 794.903 585.528C794.084 588.447 792.625 590.69 790.56 592.327C788.46 593.965 785.434 594.784 781.447 594.784C776.001 594.784 770.554 593.894 765.144 592.078C759.697 590.263 754.82 586.49 750.442 580.794C746.099 575.098 742.361 566.875 739.3 556.161C736.203 545.481 734.21 531.136 733.32 513.195C732.43 495.788 732.643 481.477 733.996 470.229C735.349 458.98 737.947 450.009 741.756 443.317C745.565 436.625 750.762 431.926 757.383 429.327C764.005 426.693 772.121 425.376 781.732 425.376C792.233 425.376 799.816 427.512 804.443 431.748C809.071 436.02 811.598 441.644 812.061 448.621C812.524 455.598 811.456 463.501 808.928 472.293C806.401 481.086 803.233 490.092 799.424 499.347C801.417 497.532 803.446 495.894 805.547 494.435C807.611 492.975 809.854 491.623 812.203 490.341C819.287 486.71 826.3 484.717 833.277 484.361C840.254 484.005 846.519 484.895 852.037 487.066C857.554 489.238 862.04 492.513 865.493 496.855C868.946 501.198 870.654 506.289 870.654 512.091C870.654 519.709 869.123 525.903 866.027 530.708C862.93 535.514 859.049 539.181 854.315 541.708C849.581 544.235 844.419 545.731 838.83 546.193C833.206 546.656 827.866 546.158 822.776 544.698C827.119 548.863 832.458 551.177 838.83 551.64C845.166 552.103 851.467 551.177 857.732 548.934C863.998 546.656 869.657 543.31 874.712 538.86C879.803 534.411 883.327 529.391 885.32 523.767L885.356 523.803ZM802.663 536.582C804.479 536.582 806.152 535.799 807.682 534.268C809.213 532.738 809.996 530.317 809.996 527.078C810.174 523.447 809.534 520.777 808.11 519.068C806.65 517.359 804.835 516.47 802.663 516.47C800.492 516.47 798.676 517.324 797.217 519.068C795.757 520.777 795.117 523.482 795.295 527.078C795.295 530.353 796.078 532.738 797.608 534.268C799.139 535.799 800.812 536.582 802.628 536.582H802.663Z"
        fill="black" stroke="black" stroke-width="47.9143" stroke-linecap="round"
        stroke-linejoin="round" />
    <path
        d="M235.349 529.178C241.863 535.336 244.996 540.925 244.746 545.908C244.462 550.892 242.219 554.986 237.947 558.154C233.676 561.322 228.051 563.422 221.074 564.419C214.097 565.416 207.013 565.024 199.858 563.209C192.703 561.393 186.082 558.047 179.995 553.135C173.908 548.222 169.778 541.352 167.607 532.452C163.442 516.683 164.795 501.02 171.701 485.535C178.606 470.015 190.389 456.345 207.049 444.456C223.744 432.566 244.996 423.418 270.839 416.975C296.683 410.532 326.442 408.574 360.189 411.137C377.596 412.418 391.906 413.13 403.155 413.308C414.403 413.486 423.765 412.917 431.312 411.528C438.823 410.176 445.053 407.755 449.929 404.302C454.842 400.849 459.612 396.043 464.346 389.885C467.443 385.898 470.683 384.51 474.136 385.685C477.589 386.859 480.579 389.778 483.106 394.406C485.634 399.034 487.307 404.872 488.125 411.955C488.944 419.039 488.197 426.266 485.954 433.705C483.676 441.145 479.511 448.407 473.459 455.455C467.372 462.539 458.829 468.342 447.758 472.863C439.428 476.315 431.49 478.309 423.943 478.843C416.432 479.377 409.028 478.985 401.766 477.633C394.504 476.28 387.527 474.215 380.835 471.51C374.107 468.804 367.45 465.85 360.829 462.682C354.208 459.514 347.587 456.417 340.966 453.426C334.345 450.436 327.759 447.944 321.245 445.951C324.342 450.116 325.908 455.527 326.015 462.148C326.086 468.769 325.41 476.28 323.986 484.716C322.527 493.153 320.711 502.159 318.54 511.77C316.368 521.382 314.624 531.171 313.378 541.138C321.886 538.789 330.785 536.475 340.04 534.197C349.296 531.918 358.017 529.533 366.276 527.006C374.534 524.479 381.867 521.666 388.31 518.569C394.754 515.473 399.417 512.055 402.336 508.246C404.685 505.149 406.999 504.046 409.277 504.829C411.555 505.648 413.371 507.712 414.724 511.094C416.076 514.44 416.859 518.676 417.037 523.731C417.215 528.821 416.397 534.019 414.581 539.358C412.766 544.698 409.776 549.931 405.611 554.986C401.446 560.076 395.821 564.134 388.738 567.231C379.304 571.396 371.437 574.03 365.065 575.134C358.729 576.237 352.82 576.736 347.373 576.629C341.927 576.558 336.552 576.237 331.177 575.668C325.837 575.134 319.358 575.205 311.741 575.952L312.559 592.007C312.737 597.809 312.915 603.149 313.093 608.061C313.271 612.974 313.058 617.21 312.417 620.841C311.776 624.472 310.637 627.284 309 629.277C307.362 631.271 305.013 632.267 301.916 632.267C297.751 632.267 293.016 631.128 287.784 628.85C282.515 626.572 277.496 621.909 272.69 614.86C267.885 607.776 263.755 597.631 260.302 584.389C256.849 571.147 254.856 553.49 254.322 531.349C253.397 507.784 254.215 489.558 256.778 476.671C259.306 463.785 263.115 454.459 268.205 448.656C258.772 452.287 250.264 457.093 242.646 463.073C235.028 469.054 229.368 475.71 225.631 483.079C221.928 490.412 220.611 498.101 221.679 506.075C222.747 514.049 227.304 521.773 235.277 529.178H235.349Z"
        fill="white" />
    <path
        d="M590.824 513.123C592.995 521.452 593.849 529.853 593.422 538.29C592.959 546.726 591.108 554.344 587.833 561.143C584.559 567.942 579.895 573.46 573.844 577.732C567.757 582.003 560.281 584.139 551.417 584.139C544.903 584.139 539.35 583.142 534.829 581.149C530.308 579.156 526.606 576.521 523.829 573.246C521.017 569.971 518.917 566.376 517.564 562.354C516.212 558.367 515.357 554.38 514.966 550.393C513.506 554.558 511.477 558.652 508.843 562.638C506.209 566.625 503.005 570.221 499.196 573.389C495.387 576.557 491.115 579.156 486.417 581.149C481.682 583.142 476.627 584.139 471.181 584.139C463.741 584.139 457.227 582.68 451.602 579.796C445.978 576.913 441.386 572.962 437.862 567.978C434.338 562.994 431.846 557.085 430.386 550.286C428.927 543.487 428.571 536.118 429.283 528.109C430.742 509.42 435.69 496.143 444.091 488.276C452.492 480.409 464.097 477.098 478.763 478.344C483.676 478.7 487.591 479.519 490.582 480.8C493.572 482.082 495.601 484.075 496.704 486.78C497.808 489.486 498.057 493.046 497.523 497.388C496.989 501.731 495.708 507.178 493.714 513.692C492.077 518.96 491.685 523.161 492.504 526.329C493.323 529.497 494.675 531.277 496.597 531.633C498.484 531.989 500.549 530.814 502.72 528.109C504.892 525.404 506.422 520.776 507.348 514.226C509.341 501.162 513.542 491.693 519.985 485.819C526.428 479.946 535.79 477.418 548.142 478.344C558.11 479.269 564.731 482.651 568.006 488.56C571.281 494.47 571.993 503.298 570.177 515.08C569.465 519.815 569.786 523.375 571.138 525.831C572.491 528.287 574.306 529.497 576.585 529.497C578.863 529.497 581.284 528.18 583.918 525.546C586.552 522.912 588.866 518.783 590.859 513.158L590.824 513.123Z"
        fill="white" />
    <path
        d="M590.824 523.482C590.468 519.139 590.61 514.226 591.215 508.78C591.856 503.333 593.28 498.279 595.558 493.544C597.836 488.845 601.254 484.93 605.881 481.833C610.509 478.736 616.703 477.383 624.499 477.739C627.596 477.917 630.586 478.415 633.469 479.234C636.353 480.053 638.845 481.334 640.945 483.043C643.009 484.787 644.647 486.959 645.857 489.557C647.032 492.191 647.53 495.502 647.352 499.489C650.983 494.22 655.504 489.593 660.95 485.606C666.397 481.619 672.377 478.985 678.891 477.703C685.228 476.6 691.101 476.707 696.441 477.988C701.781 479.27 706.266 481.583 709.897 484.93C713.528 488.276 716.304 492.512 718.191 497.567C720.113 502.657 720.861 508.459 720.505 514.974C720.149 519.708 720.683 523.268 722.142 525.724C723.602 528.18 725.417 529.391 727.589 529.391C729.76 529.391 732.074 528.074 734.53 525.439C736.986 522.805 739.193 518.676 741.187 513.051C743.358 521.381 744.213 529.782 743.785 538.219C743.323 546.655 741.472 554.273 738.197 561.072C734.922 567.871 730.258 573.389 724.207 577.661C718.12 581.932 710.644 584.068 701.781 584.068C692.917 584.068 685.833 582.929 680.565 580.651C675.296 578.373 671.309 575.454 668.604 571.823C665.898 568.192 664.154 564.169 663.442 559.72C662.73 555.27 662.624 550.785 663.157 546.264C663.513 542.455 663.051 539.571 661.805 537.542C660.523 535.549 659.099 534.659 657.462 534.837C655.824 535.015 654.294 536.261 652.834 538.504C651.375 540.782 650.663 544.27 650.663 548.969C650.663 549.325 650.698 549.752 650.805 550.18C650.876 550.642 650.948 551.034 650.948 551.39C651.304 556.124 651.553 560.467 651.624 564.454C651.695 568.441 651.339 571.894 650.52 574.777C649.702 577.696 648.242 579.939 646.178 581.576C644.077 583.214 641.052 584.033 637.065 584.033C631.618 584.033 626.314 583.249 621.153 581.719C615.991 580.188 611.328 577.198 607.163 572.748C602.998 568.299 599.438 562.14 596.555 554.238C593.636 546.335 591.749 536.047 590.859 523.375L590.824 523.482Z"
        fill="white" />
    <path
        d="M892.475 513.122C894.647 521.452 895.501 529.853 895.074 538.29C894.611 546.726 892.76 554.344 889.485 561.143C886.21 567.942 881.547 573.46 875.46 577.732C869.373 582.003 861.897 584.139 853.034 584.139C846.697 584.139 840.717 582.822 835.093 580.188C829.468 577.554 824.378 574.207 819.857 570.114C815.336 566.02 811.42 561.392 808.145 556.231C804.87 551.069 802.628 546.014 801.346 541.138L802.165 551.461C802.521 556.195 802.806 560.538 802.984 564.525C803.162 568.512 802.841 571.965 802.023 574.848C801.204 577.767 799.744 580.01 797.68 581.647C795.58 583.285 792.554 584.104 788.567 584.104C783.12 584.104 777.674 583.214 772.263 581.398C766.817 579.583 761.94 575.809 757.562 570.114C753.219 564.418 749.481 556.195 746.42 545.48C743.323 534.801 741.329 520.455 740.439 502.514C739.549 485.107 739.763 470.797 741.116 459.548C742.468 448.3 745.067 439.329 748.876 432.637C752.685 425.945 757.882 421.246 764.503 418.647C771.124 416.013 779.24 414.696 788.852 414.696C799.353 414.696 806.935 416.832 811.563 421.068C816.19 425.339 818.718 430.964 819.181 437.941C819.643 444.918 818.575 452.821 816.048 461.613C813.521 470.406 810.352 479.412 806.544 488.667C808.537 486.852 810.566 485.214 812.666 483.755C814.731 482.295 816.974 480.942 819.323 479.661C826.407 476.03 833.419 474.037 840.397 473.681C847.374 473.325 853.639 474.215 859.156 476.386C864.674 478.557 869.159 481.832 872.612 486.175C876.065 490.518 877.774 495.609 877.774 501.411C877.774 509.029 876.243 515.223 873.146 520.028C870.049 524.834 866.169 528.5 861.435 531.028C856.7 533.555 851.539 535.05 845.95 535.513C840.325 535.976 834.986 535.478 829.895 534.018C834.238 538.183 839.578 540.497 845.95 540.96C852.286 541.422 858.587 540.497 864.852 538.254C871.117 535.976 876.777 532.63 881.832 528.18C886.922 523.73 890.447 518.711 892.44 513.087L892.475 513.122ZM809.783 525.902C811.598 525.902 813.271 525.119 814.802 523.588C816.333 522.057 817.116 519.637 817.116 516.397C817.294 512.766 816.653 510.097 815.229 508.388C813.77 506.679 811.954 505.789 809.783 505.789C807.611 505.789 805.796 506.644 804.337 508.388C802.877 510.097 802.236 512.802 802.414 516.397C802.414 519.672 803.197 522.057 804.728 523.588C806.259 525.119 807.932 525.902 809.747 525.902H809.783Z"
        fill="white" />
</svg>
    